<?xml version="1.0" encoding="UTF-8" standalone="no"?>
<!DOCTYPE svg PUBLIC "-//W3C//DTD SVG 1.1//EN"
 "http://www.w3.org/Graphics/SVG/1.1/DTD/svg11.dtd">
<!-- Generated by graphviz version 2.43.0 (0)
 -->
<!-- Title: app_camerapipeline.c Pages: 1 -->
<svg width="503pt" height="140pt"
 viewBox="0.00 0.00 502.50 140.00" xmlns="http://www.w3.org/2000/svg" xmlns:xlink="http://www.w3.org/1999/xlink">
<g id="graph0" class="graph" transform="scale(1 1) rotate(0) translate(4 136)">
<title>app_camerapipeline.c</title>
<polygon fill="white" stroke="transparent" points="-4,4 -4,-136 498.5,-136 498.5,4 -4,4"/>
<!-- Node1 -->
<g id="node1" class="node">
<title>Node1</title>
<g id="a_node1"><a xlink:title=" ">
<polygon fill="#bfbfbf" stroke="black" points="184,-112.5 184,-131.5 308,-131.5 308,-112.5 184,-112.5"/>
<text text-anchor="middle" x="246" y="-119.5" font-family="Helvetica,sans-Serif" font-size="10.00">app_camerapipeline.c</text>
</a>
</g>
</g>
<!-- Node2 -->
<g id="node2" class="node">
<title>Node2</title>
<g id="a_node2"><a xlink:title=" ">
<polygon fill="white" stroke="#bfbfbf" points="0,-56.5 0,-75.5 56,-75.5 56,-56.5 0,-56.5"/>
<text text-anchor="middle" x="28" y="-63.5" font-family="Helvetica,sans-Serif" font-size="10.00">assert.h</text>
</a>
</g>
</g>
<!-- Node1&#45;&gt;Node2 -->
<g id="edge1" class="edge">
<title>Node1&#45;&gt;Node2</title>
<path fill="none" stroke="midnightblue" d="M211.46,-112.44C171.83,-102.63 107.07,-86.59 66.03,-76.42"/>
<polygon fill="midnightblue" stroke="midnightblue" points="66.69,-72.98 56.14,-73.97 65.01,-79.77 66.69,-72.98"/>
</g>
<!-- Node3 -->
<g id="node3" class="node">
<title>Node3</title>
<g id="a_node3"><a xlink:title=" ">
<polygon fill="white" stroke="#bfbfbf" points="74.5,-56.5 74.5,-75.5 165.5,-75.5 165.5,-56.5 74.5,-56.5"/>
<text text-anchor="middle" x="120" y="-63.5" font-family="Helvetica,sans-Serif" font-size="10.00">cmw_camera.h</text>
</a>
</g>
</g>
<!-- Node1&#45;&gt;Node3 -->
<g id="edge2" class="edge">
<title>Node1&#45;&gt;Node3</title>
<path fill="none" stroke="midnightblue" d="M226.03,-112.44C205.39,-103.6 172.94,-89.69 149.37,-79.59"/>
<polygon fill="midnightblue" stroke="midnightblue" points="150.44,-76.24 139.87,-75.52 147.68,-82.67 150.44,-76.24"/>
</g>
<!-- Node4 -->
<g id="node4" class="node">
<title>Node4</title>
<g id="a_node4"><a xlink:href="app__camerapipeline_8h.html" target="_top" xlink:title=" ">
<polygon fill="white" stroke="black" points="183.5,-56.5 183.5,-75.5 308.5,-75.5 308.5,-56.5 183.5,-56.5"/>
<text text-anchor="middle" x="246" y="-63.5" font-family="Helvetica,sans-Serif" font-size="10.00">app_camerapipeline.h</text>
</a>
</g>
</g>
<!-- Node1&#45;&gt;Node4 -->
<g id="edge3" class="edge">
<title>Node1&#45;&gt;Node4</title>
<path fill="none" stroke="midnightblue" d="M246,-112.08C246,-105.01 246,-94.86 246,-85.99"/>
<polygon fill="midnightblue" stroke="midnightblue" points="249.5,-85.75 246,-75.75 242.5,-85.75 249.5,-85.75"/>
</g>
<!-- Node5 -->
<g id="node5" class="node">
<title>Node5</title>
<g id="a_node5"><a xlink:href="app__config_8h.html" target="_top" xlink:title="Central configuration header for the STM32N6570&#45;DK pose estimation firmware application.">
<polygon fill="white" stroke="black" points="327,-56.5 327,-75.5 405,-75.5 405,-56.5 327,-56.5"/>
<text text-anchor="middle" x="366" y="-63.5" font-family="Helvetica,sans-Serif" font-size="10.00">app_config.h</text>
</a>
</g>
</g>
<!-- Node1&#45;&gt;Node5 -->
<g id="edge4" class="edge">
<title>Node1&#45;&gt;Node5</title>
<path fill="none" stroke="midnightblue" d="M265.01,-112.44C284.59,-103.64 315.31,-89.81 337.73,-79.72"/>
<polygon fill="midnightblue" stroke="midnightblue" points="339.39,-82.81 347.07,-75.52 336.52,-76.43 339.39,-82.81"/>
</g>
<!-- Node7 -->
<g id="node7" class="node">
<title>Node7</title>
<g id="a_node7"><a xlink:href="crop__img_8h.html" target="_top" xlink:title=" ">
<polygon fill="white" stroke="black" points="423.5,-56.5 423.5,-75.5 494.5,-75.5 494.5,-56.5 423.5,-56.5"/>
<text text-anchor="middle" x="459" y="-63.5" font-family="Helvetica,sans-Serif" font-size="10.00">crop_img.h</text>
</a>
</g>
</g>
<!-- Node1&#45;&gt;Node7 -->
<g id="edge6" class="edge">
<title>Node1&#45;&gt;Node7</title>
<path fill="none" stroke="midnightblue" d="M279.75,-112.44C316.52,-103.12 375.45,-88.18 415.62,-78"/>
<polygon fill="midnightblue" stroke="midnightblue" points="416.57,-81.37 425.41,-75.52 414.85,-74.58 416.57,-81.37"/>
</g>
<!-- Node6 -->
<g id="node6" class="node">
<title>Node6</title>
<g id="a_node6"><a xlink:title=" ">
<polygon fill="white" stroke="#bfbfbf" points="374,-0.5 374,-19.5 450,-19.5 450,-0.5 374,-0.5"/>
<text text-anchor="middle" x="412" y="-7.5" font-family="Helvetica,sans-Serif" font-size="10.00">arm_math.h</text>
</a>
</g>
</g>
<!-- Node5&#45;&gt;Node6 -->
<g id="edge5" class="edge">
<title>Node5&#45;&gt;Node6</title>
<path fill="none" stroke="midnightblue" d="M373.6,-56.08C380.23,-48.3 390.02,-36.8 398.06,-27.37"/>
<polygon fill="midnightblue" stroke="midnightblue" points="400.73,-29.63 404.55,-19.75 395.4,-25.09 400.73,-29.63"/>
</g>
<!-- Node7&#45;&gt;Node6 -->
<g id="edge7" class="edge">
<title>Node7&#45;&gt;Node6</title>
<path fill="none" stroke="midnightblue" d="M451.24,-56.08C444.46,-48.3 434.46,-36.8 426.24,-27.37"/>
<polygon fill="midnightblue" stroke="midnightblue" points="428.82,-25 419.62,-19.75 423.54,-29.59 428.82,-25"/>
</g>
</g>
</svg>
