<?xml version="1.0" encoding="UTF-8" standalone="no"?>
<!DOCTYPE svg PUBLIC "-//W3C//DTD SVG 1.1//EN"
 "http://www.w3.org/Graphics/SVG/1.1/DTD/svg11.dtd">
<!-- Generated by graphviz version 2.43.0 (0)
 -->
<!-- Title: CameraPipeline_Init Pages: 1 -->
<svg width="293pt" height="66pt"
 viewBox="0.00 0.00 293.00 66.00" xmlns="http://www.w3.org/2000/svg" xmlns:xlink="http://www.w3.org/1999/xlink">
<g id="graph0" class="graph" transform="scale(1 1) rotate(0) translate(4 62)">
<title>CameraPipeline_Init</title>
<polygon fill="white" stroke="transparent" points="-4,4 -4,-62 289,-62 289,4 -4,4"/>
<!-- Node1 -->
<g id="node1" class="node">
<title>Node1</title>
<g id="a_node1"><a xlink:title="Init the camera and the 2 DCMIPP pipes.">
<polygon fill="#bfbfbf" stroke="black" points="0,-19.5 0,-38.5 115,-38.5 115,-19.5 0,-19.5"/>
<text text-anchor="middle" x="57.5" y="-26.5" font-family="Helvetica,sans-Serif" font-size="10.00">CameraPipeline_Init</text>
</a>
</g>
</g>
<!-- Node2 -->
<g id="node2" class="node">
<title>Node2</title>
<g id="a_node2"><a xlink:href="app__camerapipeline_8c.html#aedc9ebb49775f70f6090d97da59f84bf" target="_top" xlink:title=" ">
<polygon fill="white" stroke="black" points="151,-38.5 151,-57.5 285,-57.5 285,-38.5 151,-38.5"/>
<text text-anchor="middle" x="218" y="-45.5" font-family="Helvetica,sans-Serif" font-size="10.00">DCMIPP_PipeInitDisplay</text>
</a>
</g>
</g>
<!-- Node1&#45;&gt;Node2 -->
<g id="edge1" class="edge">
<title>Node1&#45;&gt;Node2</title>
<path fill="none" stroke="midnightblue" d="M115.27,-35.81C123.57,-36.8 132.23,-37.84 140.84,-38.87"/>
<polygon fill="midnightblue" stroke="midnightblue" points="140.56,-42.36 150.9,-40.08 141.39,-35.41 140.56,-42.36"/>
</g>
<!-- Node3 -->
<g id="node3" class="node">
<title>Node3</title>
<g id="a_node3"><a xlink:href="app__camerapipeline_8c.html#ae278283c26c312efa04dbdcd26a69664" target="_top" xlink:title=" ">
<polygon fill="white" stroke="black" points="163,-0.5 163,-19.5 273,-19.5 273,-0.5 163,-0.5"/>
<text text-anchor="middle" x="218" y="-7.5" font-family="Helvetica,sans-Serif" font-size="10.00">DCMIPP_PipeInitNn</text>
</a>
</g>
</g>
<!-- Node1&#45;&gt;Node3 -->
<g id="edge2" class="edge">
<title>Node1&#45;&gt;Node3</title>
<path fill="none" stroke="midnightblue" d="M115.27,-22.19C127.35,-20.75 140.18,-19.21 152.52,-17.73"/>
<polygon fill="midnightblue" stroke="midnightblue" points="153.23,-21.17 162.74,-16.5 152.4,-14.22 153.23,-21.17"/>
</g>
</g>
</svg>
