<?xml version="1.0" encoding="UTF-8" standalone="no"?>
<!DOCTYPE svg PUBLIC "-//W3C//DTD SVG 1.1//EN"
 "http://www.w3.org/Graphics/SVG/1.1/DTD/svg11.dtd">
<!-- Generated by graphviz version 2.43.0 (0)
 -->
<!-- Title: Display_binding Pages: 1 -->
<svg width="557pt" height="28pt"
 viewBox="0.00 0.00 557.00 28.00" xmlns="http://www.w3.org/2000/svg" xmlns:xlink="http://www.w3.org/1999/xlink">
<g id="graph0" class="graph" transform="scale(1 1) rotate(0) translate(4 24)">
<title>Display_binding</title>
<polygon fill="white" stroke="transparent" points="-4,4 -4,-24 553,-24 553,4 -4,4"/>
<!-- Node1 -->
<g id="node1" class="node">
<title>Node1</title>
<g id="a_node1"><a xlink:title=" ">
<polygon fill="#bfbfbf" stroke="black" points="454,-0.5 454,-19.5 549,-19.5 549,-0.5 454,-0.5"/>
<text text-anchor="middle" x="501.5" y="-7.5" font-family="Helvetica,sans-Serif" font-size="10.00">Display_binding</text>
</a>
</g>
</g>
<!-- Node2 -->
<g id="node2" class="node">
<title>Node2</title>
<g id="a_node2"><a xlink:href="display__mpe_8c.html#ad1fe7138bda00f1de29e05121ed85cee" target="_top" xlink:title=" ">
<polygon fill="white" stroke="black" points="285,-0.5 285,-19.5 418,-19.5 418,-0.5 285,-0.5"/>
<text text-anchor="middle" x="351.5" y="-7.5" font-family="Helvetica,sans-Serif" font-size="10.00">Display_mpe_Detection</text>
</a>
</g>
</g>
<!-- Node1&#45;&gt;Node2 -->
<g id="edge1" class="edge">
<title>Node1&#45;&gt;Node2</title>
<path fill="none" stroke="midnightblue" d="M443.42,-10C435.17,-10 426.62,-10 418.22,-10"/>
<polygon fill="midnightblue" stroke="midnightblue" points="443.67,-13.5 453.67,-10 443.67,-6.5 443.67,-13.5"/>
</g>
<!-- Node3 -->
<g id="node3" class="node">
<title>Node3</title>
<g id="a_node3"><a xlink:href="main_8c.html#ad3d97f9133c8867eb9ad3084a51c46b1" target="_top" xlink:title="Render inference results on the LCD foreground overlay layer.">
<polygon fill="white" stroke="black" points="116,-0.5 116,-19.5 249,-19.5 249,-0.5 116,-0.5"/>
<text text-anchor="middle" x="182.5" y="-7.5" font-family="Helvetica,sans-Serif" font-size="10.00">Display_NetworkOutput</text>
</a>
</g>
</g>
<!-- Node2&#45;&gt;Node3 -->
<g id="edge2" class="edge">
<title>Node2&#45;&gt;Node3</title>
<path fill="none" stroke="midnightblue" d="M274.93,-10C266.32,-10 257.58,-10 249.11,-10"/>
<polygon fill="midnightblue" stroke="midnightblue" points="274.98,-13.5 284.98,-10 274.98,-6.5 274.98,-13.5"/>
</g>
<!-- Node4 -->
<g id="node4" class="node">
<title>Node4</title>
<g id="a_node4"><a xlink:href="main_8c.html#a69d29ef3499c0b385325c4225e6085a5" target="_top" xlink:title="LCD background framebuffer — camera preview.">
<polygon fill="white" stroke="black" points="0,-0.5 0,-19.5 80,-19.5 80,-0.5 0,-0.5"/>
<text text-anchor="middle" x="40" y="-7.5" font-family="Helvetica,sans-Serif" font-size="10.00">__attribute__</text>
</a>
</g>
</g>
<!-- Node3&#45;&gt;Node4 -->
<g id="edge3" class="edge">
<title>Node3&#45;&gt;Node4</title>
<path fill="none" stroke="midnightblue" d="M105.52,-10C96.8,-10 88.21,-10 80.27,-10"/>
<polygon fill="midnightblue" stroke="midnightblue" points="105.78,-13.5 115.78,-10 105.78,-6.5 105.78,-13.5"/>
</g>
</g>
</svg>
