<?xml version="1.0" encoding="UTF-8" standalone="no"?>
<!DOCTYPE svg PUBLIC "-//W3C//DTD SVG 1.1//EN"
 "http://www.w3.org/Graphics/SVG/1.1/DTD/svg11.dtd">
<!-- Generated by graphviz version 2.43.0 (0)
 -->
<!-- Title: clamp_point Pages: 1 -->
<svg width="448pt" height="47pt"
 viewBox="0.00 0.00 448.00 47.00" xmlns="http://www.w3.org/2000/svg" xmlns:xlink="http://www.w3.org/1999/xlink">
<g id="graph0" class="graph" transform="scale(1 1) rotate(0) translate(4 43)">
<title>clamp_point</title>
<polygon fill="white" stroke="transparent" points="-4,4 -4,-43 444,-43 444,4 -4,4"/>
<!-- Node1 -->
<g id="node1" class="node">
<title>Node1</title>
<g id="a_node1"><a xlink:title="Clamp a point to the LCD background area boundaries.">
<polygon fill="#bfbfbf" stroke="black" points="363,-0.5 363,-19.5 440,-19.5 440,-0.5 363,-0.5"/>
<text text-anchor="middle" x="401.5" y="-7.5" font-family="Helvetica,sans-Serif" font-size="10.00">clamp_point</text>
</a>
</g>
</g>
<!-- Node2 -->
<g id="node2" class="node">
<title>Node2</title>
<g id="a_node2"><a xlink:href="main_8c.html#a208e4f5220b9e5a2167264f042399457" target="_top" xlink:title="Draw a skeleton connection line between two keypoints on the LCD.">
<polygon fill="white" stroke="black" points="209,-19.5 209,-38.5 327,-38.5 327,-19.5 209,-19.5"/>
<text text-anchor="middle" x="268" y="-26.5" font-family="Helvetica,sans-Serif" font-size="10.00">Display_binding_line</text>
</a>
</g>
</g>
<!-- Node1&#45;&gt;Node2 -->
<g id="edge1" class="edge">
<title>Node1&#45;&gt;Node2</title>
<path fill="none" stroke="midnightblue" d="M352.92,-16.87C344.6,-18.08 335.86,-19.34 327.3,-20.58"/>
<polygon fill="midnightblue" stroke="midnightblue" points="353.42,-20.34 362.82,-15.44 352.42,-13.41 353.42,-20.34"/>
</g>
<!-- Node3 -->
<g id="node3" class="node">
<title>Node3</title>
<g id="a_node3"><a xlink:href="main_8c.html#a2364be520d87157dbabbceee436bf5b7" target="_top" xlink:title="Initialize the LCD display with dual&#45;layer configuration.">
<polygon fill="white" stroke="black" points="116,-0.5 116,-19.5 173,-19.5 173,-0.5 116,-0.5"/>
<text text-anchor="middle" x="144.5" y="-7.5" font-family="Helvetica,sans-Serif" font-size="10.00">LCD_init</text>
</a>
</g>
</g>
<!-- Node1&#45;&gt;Node3 -->
<g id="edge4" class="edge">
<title>Node1&#45;&gt;Node3</title>
<path fill="none" stroke="midnightblue" d="M352.71,-10C299.73,-10 216.09,-10 173.07,-10"/>
<polygon fill="midnightblue" stroke="midnightblue" points="352.87,-13.5 362.87,-10 352.87,-6.5 352.87,-13.5"/>
</g>
<!-- Node2&#45;&gt;Node3 -->
<g id="edge2" class="edge">
<title>Node2&#45;&gt;Node3</title>
<path fill="none" stroke="midnightblue" d="M198.85,-18.34C189.78,-16.92 180.93,-15.54 173.13,-14.32"/>
<polygon fill="midnightblue" stroke="midnightblue" points="198.32,-21.8 208.74,-19.89 199.4,-14.89 198.32,-21.8"/>
</g>
<!-- Node4 -->
<g id="node4" class="node">
<title>Node4</title>
<g id="a_node4"><a xlink:href="main_8c.html#a69d29ef3499c0b385325c4225e6085a5" target="_top" xlink:title="LCD background framebuffer — camera preview.">
<polygon fill="white" stroke="black" points="0,-0.5 0,-19.5 80,-19.5 80,-0.5 0,-0.5"/>
<text text-anchor="middle" x="40" y="-7.5" font-family="Helvetica,sans-Serif" font-size="10.00">__attribute__</text>
</a>
</g>
</g>
<!-- Node3&#45;&gt;Node4 -->
<g id="edge3" class="edge">
<title>Node3&#45;&gt;Node4</title>
<path fill="none" stroke="midnightblue" d="M105.64,-10C97.38,-10 88.62,-10 80.3,-10"/>
<polygon fill="midnightblue" stroke="midnightblue" points="105.76,-13.5 115.76,-10 105.76,-6.5 105.76,-13.5"/>
</g>
</g>
</svg>
