<?xml version="1.0" encoding="UTF-8" standalone="no"?>
<!DOCTYPE svg PUBLIC "-//W3C//DTD SVG 1.1//EN"
 "http://www.w3.org/Graphics/SVG/1.1/DTD/svg11.dtd">
<!-- Generated by graphviz version 2.43.0 (0)
 -->
<!-- Title: LCD_init Pages: 1 -->
<svg width="362pt" height="206pt"
 viewBox="0.00 0.00 362.00 206.05" xmlns="http://www.w3.org/2000/svg" xmlns:xlink="http://www.w3.org/1999/xlink">
<g id="graph0" class="graph" transform="scale(1 1) rotate(0) translate(4 202.05)">
<title>LCD_init</title>
<polygon fill="white" stroke="transparent" points="-4,4 -4,-202.05 358,-202.05 358,4 -4,4"/>
<!-- Node1 -->
<g id="node1" class="node">
<title>Node1</title>
<g id="a_node1"><a xlink:title="Initialize the LCD display with dual&#45;layer configuration.">
<polygon fill="#bfbfbf" stroke="black" points="0,-95.5 0,-114.5 57,-114.5 57,-95.5 0,-95.5"/>
<text text-anchor="middle" x="28.5" y="-102.5" font-family="Helvetica,sans-Serif" font-size="10.00">LCD_init</text>
</a>
</g>
</g>
<!-- Node2 -->
<g id="node2" class="node">
<title>Node2</title>
<g id="a_node2"><a xlink:href="main_8c.html#a4f87d4368bb5a302894eaaf57211b5b9" target="_top" xlink:title="Clamp a point to the LCD background area boundaries.">
<polygon fill="white" stroke="black" points="277,-133.5 277,-152.5 354,-152.5 354,-133.5 277,-133.5"/>
<text text-anchor="middle" x="315.5" y="-140.5" font-family="Helvetica,sans-Serif" font-size="10.00">clamp_point</text>
</a>
</g>
</g>
<!-- Node1&#45;&gt;Node2 -->
<g id="edge1" class="edge">
<title>Node1&#45;&gt;Node2</title>
<path fill="none" stroke="midnightblue" d="M33.95,-114.52C42.55,-131.63 63.25,-167.09 93,-181 152.59,-208.86 177.09,-196.54 241,-181 259.43,-176.52 278.41,-166.55 292.46,-157.94"/>
<polygon fill="midnightblue" stroke="midnightblue" points="294.37,-160.88 300.93,-152.56 290.61,-154.97 294.37,-160.88"/>
</g>
<!-- Node3 -->
<g id="node3" class="node">
<title>Node3</title>
<g id="a_node3"><a xlink:href="main_8c.html#a07fb501dfddc6efffc69a2097633c5a9" target="_top" xlink:title="Convert normalized [0,1] dimensions to LCD pixel dimensions.">
<polygon fill="white" stroke="black" points="122.5,-152.5 122.5,-171.5 211.5,-171.5 211.5,-152.5 122.5,-152.5"/>
<text text-anchor="middle" x="167" y="-159.5" font-family="Helvetica,sans-Serif" font-size="10.00">convert_length</text>
</a>
</g>
</g>
<!-- Node1&#45;&gt;Node3 -->
<g id="edge2" class="edge">
<title>Node1&#45;&gt;Node3</title>
<path fill="none" stroke="midnightblue" d="M43.02,-114.65C55.48,-123.15 74.75,-135.35 93,-143 99.25,-145.62 105.95,-147.96 112.67,-150.02"/>
<polygon fill="midnightblue" stroke="midnightblue" points="111.9,-153.44 122.48,-152.84 113.84,-146.71 111.9,-153.44"/>
</g>
<!-- Node4 -->
<g id="node4" class="node">
<title>Node4</title>
<g id="a_node4"><a xlink:href="main_8c.html#a3eec05468c9b3239dd9a2a3d0a662989" target="_top" xlink:title="Convert normalized [0,1] coordinates to LCD pixel coordinates.">
<polygon fill="white" stroke="black" points="125.5,-114.5 125.5,-133.5 208.5,-133.5 208.5,-114.5 125.5,-114.5"/>
<text text-anchor="middle" x="167" y="-121.5" font-family="Helvetica,sans-Serif" font-size="10.00">convert_point</text>
</a>
</g>
</g>
<!-- Node1&#45;&gt;Node4 -->
<g id="edge3" class="edge">
<title>Node1&#45;&gt;Node4</title>
<path fill="none" stroke="midnightblue" d="M57.12,-108.84C73.84,-111.17 95.67,-114.21 115.39,-116.96"/>
<polygon fill="midnightblue" stroke="midnightblue" points="115.09,-120.45 125.47,-118.36 116.05,-113.51 115.09,-120.45"/>
</g>
<!-- Node5 -->
<g id="node5" class="node">
<title>Node5</title>
<g id="a_node5"><a xlink:href="main_8c.html#a208e4f5220b9e5a2167264f042399457" target="_top" xlink:title="Draw a skeleton connection line between two keypoints on the LCD.">
<polygon fill="white" stroke="black" points="108,-76.5 108,-95.5 226,-95.5 226,-76.5 108,-76.5"/>
<text text-anchor="middle" x="167" y="-83.5" font-family="Helvetica,sans-Serif" font-size="10.00">Display_binding_line</text>
</a>
</g>
</g>
<!-- Node1&#45;&gt;Node5 -->
<g id="edge4" class="edge">
<title>Node1&#45;&gt;Node5</title>
<path fill="none" stroke="midnightblue" d="M57.12,-101.16C69.02,-99.5 83.51,-97.48 97.99,-95.47"/>
<polygon fill="midnightblue" stroke="midnightblue" points="98.55,-98.92 107.98,-94.08 97.59,-91.99 98.55,-98.92"/>
</g>
<!-- Node6 -->
<g id="node6" class="node">
<title>Node6</title>
<g id="a_node6"><a xlink:href="display__mpe_8c.html#ada7df60aafb7c69c4d21d4432de36077" target="_top" xlink:title=" ">
<polygon fill="white" stroke="black" points="93,-38.5 93,-57.5 241,-57.5 241,-38.5 93,-38.5"/>
<text text-anchor="middle" x="167" y="-45.5" font-family="Helvetica,sans-Serif" font-size="10.00">Display_mpe_InitFunctions</text>
</a>
</g>
</g>
<!-- Node1&#45;&gt;Node6 -->
<g id="edge6" class="edge">
<title>Node1&#45;&gt;Node6</title>
<path fill="none" stroke="midnightblue" d="M43.02,-95.35C55.48,-86.85 74.75,-74.65 93,-67 98.79,-64.57 104.96,-62.39 111.18,-60.45"/>
<polygon fill="midnightblue" stroke="midnightblue" points="112.33,-63.76 120.94,-57.58 110.36,-57.04 112.33,-63.76"/>
</g>
<!-- Node7 -->
<g id="node7" class="node">
<title>Node7</title>
<g id="a_node7"><a xlink:href="display__spe_8c.html#a3ed08537d23a3bd4f4cc83b7c5da5529" target="_top" xlink:title=" ">
<polygon fill="white" stroke="black" points="95.5,-0.5 95.5,-19.5 238.5,-19.5 238.5,-0.5 95.5,-0.5"/>
<text text-anchor="middle" x="167" y="-7.5" font-family="Helvetica,sans-Serif" font-size="10.00">Display_spe_InitFunctions</text>
</a>
</g>
</g>
<!-- Node1&#45;&gt;Node7 -->
<g id="edge7" class="edge">
<title>Node1&#45;&gt;Node7</title>
<path fill="none" stroke="midnightblue" d="M34.78,-95.42C44.25,-79.18 65.69,-46.3 93,-29 96.33,-26.89 99.88,-25.02 103.56,-23.35"/>
<polygon fill="midnightblue" stroke="midnightblue" points="104.92,-26.57 112.91,-19.62 102.33,-20.07 104.92,-26.57"/>
</g>
<!-- Node5&#45;&gt;Node2 -->
<g id="edge5" class="edge">
<title>Node5&#45;&gt;Node2</title>
<path fill="none" stroke="midnightblue" d="M211.35,-95.59C221.23,-98.24 231.58,-101.39 241,-105 257.78,-111.43 275.72,-120.65 289.67,-128.4"/>
<polygon fill="midnightblue" stroke="midnightblue" points="288.21,-131.59 298.63,-133.48 291.66,-125.5 288.21,-131.59"/>
</g>
</g>
</svg>
