<?xml version="1.0" encoding="UTF-8" standalone="no"?>
<!DOCTYPE svg PUBLIC "-//W3C//DTD SVG 1.1//EN"
 "http://www.w3.org/Graphics/SVG/1.1/DTD/svg11.dtd">
<!-- Generated by graphviz version 2.43.0 (0)
 -->
<!-- Title: main.c Pages: 1 -->
<svg width="2039pt" height="151pt"
 viewBox="0.00 0.00 2039.00 151.00" xmlns="http://www.w3.org/2000/svg" xmlns:xlink="http://www.w3.org/1999/xlink">
<g id="graph0" class="graph" transform="scale(1 1) rotate(0) translate(4 147)">
<title>main.c</title>
<polygon fill="white" stroke="transparent" points="-4,4 -4,-147 2035,-147 2035,4 -4,4"/>
<!-- Node1 -->
<g id="node1" class="node">
<title>Node1</title>
<g id="a_node1"><a xlink:title="Main firmware entry point for the STM32N6570&#45;DK pose estimation application running on the Neural&#45;ART...">
<polygon fill="#bfbfbf" stroke="black" points="1102.5,-123.5 1102.5,-142.5 1152.5,-142.5 1152.5,-123.5 1102.5,-123.5"/>
<text text-anchor="middle" x="1127.5" y="-130.5" font-family="Helvetica,sans-Serif" font-size="10.00">main.c</text>
</a>
</g>
</g>
<!-- Node2 -->
<g id="node2" class="node">
<title>Node2</title>
<g id="a_node2"><a xlink:title=" ">
<polygon fill="white" stroke="#bfbfbf" points="0,-62 0,-81 91,-81 91,-62 0,-62"/>
<text text-anchor="middle" x="45.5" y="-69" font-family="Helvetica,sans-Serif" font-size="10.00">cmw_camera.h</text>
</a>
</g>
</g>
<!-- Node1&#45;&gt;Node2 -->
<g id="edge1" class="edge">
<title>Node1&#45;&gt;Node2</title>
<path fill="none" stroke="midnightblue" d="M1102.38,-131.63C964.91,-129.48 302.53,-117.69 100.5,-87 94.89,-86.15 89.02,-84.95 83.3,-83.6"/>
<polygon fill="midnightblue" stroke="midnightblue" points="83.79,-80.11 73.24,-81.05 82.07,-86.9 83.79,-80.11"/>
</g>
<!-- Node3 -->
<g id="node3" class="node">
<title>Node3</title>
<g id="a_node3"><a xlink:title=" ">
<polygon fill="white" stroke="#bfbfbf" points="109.5,-56.5 109.5,-86.5 239.5,-86.5 239.5,-56.5 109.5,-56.5"/>
<text text-anchor="start" x="117.5" y="-74.5" font-family="Helvetica,sans-Serif" font-size="10.00">stm32n6570_discovery</text>
<text text-anchor="middle" x="174.5" y="-63.5" font-family="Helvetica,sans-Serif" font-size="10.00">_bus.h</text>
</a>
</g>
</g>
<!-- Node1&#45;&gt;Node3 -->
<g id="edge2" class="edge">
<title>Node1&#45;&gt;Node3</title>
<path fill="none" stroke="midnightblue" d="M1102.21,-132.02C998.12,-131.82 592.46,-128.37 249.91,-87.05"/>
<polygon fill="midnightblue" stroke="midnightblue" points="250.14,-83.55 239.79,-85.82 249.29,-90.5 250.14,-83.55"/>
</g>
<!-- Node4 -->
<g id="node4" class="node">
<title>Node4</title>
<g id="a_node4"><a xlink:title=" ">
<polygon fill="white" stroke="#bfbfbf" points="257.5,-56.5 257.5,-86.5 387.5,-86.5 387.5,-56.5 257.5,-56.5"/>
<text text-anchor="start" x="265.5" y="-74.5" font-family="Helvetica,sans-Serif" font-size="10.00">stm32n6570_discovery</text>
<text text-anchor="middle" x="322.5" y="-63.5" font-family="Helvetica,sans-Serif" font-size="10.00">_lcd.h</text>
</a>
</g>
</g>
<!-- Node1&#45;&gt;Node4 -->
<g id="edge3" class="edge">
<title>Node1&#45;&gt;Node4</title>
<path fill="none" stroke="midnightblue" d="M1102.46,-131.65C1010.08,-130.13 679.62,-122.47 397.8,-87.05"/>
<polygon fill="midnightblue" stroke="midnightblue" points="398.16,-83.57 387.79,-85.78 397.27,-90.51 398.16,-83.57"/>
</g>
<!-- Node5 -->
<g id="node5" class="node">
<title>Node5</title>
<g id="a_node5"><a xlink:title=" ">
<polygon fill="white" stroke="#bfbfbf" points="405.5,-56.5 405.5,-86.5 535.5,-86.5 535.5,-56.5 405.5,-56.5"/>
<text text-anchor="start" x="413.5" y="-74.5" font-family="Helvetica,sans-Serif" font-size="10.00">stm32n6570_discovery</text>
<text text-anchor="middle" x="470.5" y="-63.5" font-family="Helvetica,sans-Serif" font-size="10.00">_xspi.h</text>
</a>
</g>
</g>
<!-- Node1&#45;&gt;Node5 -->
<g id="edge4" class="edge">
<title>Node1&#45;&gt;Node5</title>
<path fill="none" stroke="midnightblue" d="M1102.39,-131.11C1022.53,-128.05 767.15,-116.58 545.97,-87.1"/>
<polygon fill="midnightblue" stroke="midnightblue" points="546.18,-83.59 535.8,-85.72 545.24,-90.53 546.18,-83.59"/>
</g>
<!-- Node6 -->
<g id="node6" class="node">
<title>Node6</title>
<g id="a_node6"><a xlink:title=" ">
<polygon fill="white" stroke="#bfbfbf" points="554,-62 554,-81 691,-81 691,-62 554,-62"/>
<text text-anchor="middle" x="622.5" y="-69" font-family="Helvetica,sans-Serif" font-size="10.00">stm32n6570_discovery.h</text>
</a>
</g>
</g>
<!-- Node1&#45;&gt;Node6 -->
<g id="edge5" class="edge">
<title>Node1&#45;&gt;Node6</title>
<path fill="none" stroke="midnightblue" d="M1102.22,-129.9C1036.58,-124.31 855.44,-108.07 705.5,-87 696.66,-85.76 687.32,-84.28 678.21,-82.76"/>
<polygon fill="midnightblue" stroke="midnightblue" points="678.52,-79.26 668.08,-81.03 677.34,-86.16 678.52,-79.26"/>
</g>
<!-- Node7 -->
<g id="node7" class="node">
<title>Node7</title>
<g id="a_node7"><a xlink:title=" ">
<polygon fill="white" stroke="#bfbfbf" points="982.5,-0.5 982.5,-19.5 1058.5,-19.5 1058.5,-0.5 982.5,-0.5"/>
<text text-anchor="middle" x="1020.5" y="-7.5" font-family="Helvetica,sans-Serif" font-size="10.00">stm32_lcd.h</text>
</a>
</g>
</g>
<!-- Node1&#45;&gt;Node7 -->
<g id="edge6" class="edge">
<title>Node1&#45;&gt;Node7</title>
<path fill="none" stroke="midnightblue" d="M1102.35,-130.99C1020.06,-127.45 762.78,-114.25 738.5,-87 729.33,-76.71 729.56,-66.48 738.5,-56 767.94,-21.49 899.39,-13.32 971.97,-11.47"/>
<polygon fill="midnightblue" stroke="midnightblue" points="972.31,-14.96 982.23,-11.24 972.15,-7.97 972.31,-14.96"/>
</g>
<!-- Node8 -->
<g id="node8" class="node">
<title>Node8</title>
<g id="a_node8"><a xlink:title=" ">
<polygon fill="white" stroke="#bfbfbf" points="747.5,-62 747.5,-81 883.5,-81 883.5,-62 747.5,-62"/>
<text text-anchor="middle" x="815.5" y="-69" font-family="Helvetica,sans-Serif" font-size="10.00">app_fuseprogramming.h</text>
</a>
</g>
</g>
<!-- Node1&#45;&gt;Node8 -->
<g id="edge7" class="edge">
<title>Node1&#45;&gt;Node8</title>
<path fill="none" stroke="midnightblue" d="M1102.5,-127.23C1052.36,-117.67 938.53,-95.96 870.25,-82.94"/>
<polygon fill="midnightblue" stroke="midnightblue" points="870.59,-79.44 860.11,-81.01 869.28,-86.32 870.59,-79.44"/>
</g>
<!-- Node9 -->
<g id="node9" class="node">
<title>Node9</title>
<g id="a_node9"><a xlink:title=" ">
<polygon fill="white" stroke="#bfbfbf" points="902,-62 902,-81 995,-81 995,-62 902,-62"/>
<text text-anchor="middle" x="948.5" y="-69" font-family="Helvetica,sans-Serif" font-size="10.00">stm32_lcd_ex.h</text>
</a>
</g>
</g>
<!-- Node1&#45;&gt;Node9 -->
<g id="edge8" class="edge">
<title>Node1&#45;&gt;Node9</title>
<path fill="none" stroke="midnightblue" d="M1102.23,-123.6C1071.36,-113.34 1018.93,-95.91 984.01,-84.3"/>
<polygon fill="midnightblue" stroke="midnightblue" points="984.81,-80.88 974.22,-81.05 982.6,-87.52 984.81,-80.88"/>
</g>
<!-- Node10 -->
<g id="node10" class="node">
<title>Node10</title>
<g id="a_node10"><a xlink:title=" ">
<polygon fill="white" stroke="#bfbfbf" points="1013,-62 1013,-81 1120,-81 1120,-62 1013,-62"/>
<text text-anchor="middle" x="1066.5" y="-69" font-family="Helvetica,sans-Serif" font-size="10.00">app_postprocess.h</text>
</a>
</g>
</g>
<!-- Node1&#45;&gt;Node10 -->
<g id="edge9" class="edge">
<title>Node1&#45;&gt;Node10</title>
<path fill="none" stroke="midnightblue" d="M1118.76,-123.48C1109.34,-114.28 1094.14,-99.46 1082.55,-88.16"/>
<polygon fill="midnightblue" stroke="midnightblue" points="1084.83,-85.49 1075.22,-81.01 1079.94,-90.5 1084.83,-85.49"/>
</g>
<!-- Node11 -->
<g id="node11" class="node">
<title>Node11</title>
<g id="a_node11"><a xlink:title=" ">
<polygon fill="white" stroke="#bfbfbf" points="1138.5,-62 1138.5,-81 1240.5,-81 1240.5,-62 1138.5,-62"/>
<text text-anchor="middle" x="1189.5" y="-69" font-family="Helvetica,sans-Serif" font-size="10.00">ll_aton_runtime.h</text>
</a>
</g>
</g>
<!-- Node1&#45;&gt;Node11 -->
<g id="edge10" class="edge">
<title>Node1&#45;&gt;Node11</title>
<path fill="none" stroke="midnightblue" d="M1136.38,-123.48C1145.96,-114.28 1161.41,-99.46 1173.19,-88.16"/>
<polygon fill="midnightblue" stroke="midnightblue" points="1175.84,-90.46 1180.63,-81.01 1170.99,-85.41 1175.84,-90.46"/>
</g>
<!-- Node12 -->
<g id="node12" class="node">
<title>Node12</title>
<g id="a_node12"><a xlink:href="app__camerapipeline_8h.html" target="_top" xlink:title=" ">
<polygon fill="white" stroke="black" points="1259,-62 1259,-81 1384,-81 1384,-62 1259,-62"/>
<text text-anchor="middle" x="1321.5" y="-69" font-family="Helvetica,sans-Serif" font-size="10.00">app_camerapipeline.h</text>
</a>
</g>
</g>
<!-- Node1&#45;&gt;Node12 -->
<g id="edge11" class="edge">
<title>Node1&#45;&gt;Node12</title>
<path fill="none" stroke="midnightblue" d="M1152.86,-124.22C1186.24,-113.99 1245.18,-95.91 1283.79,-84.07"/>
<polygon fill="midnightblue" stroke="midnightblue" points="1285.09,-87.33 1293.62,-81.05 1283.03,-80.64 1285.09,-87.33"/>
</g>
<!-- Node13 -->
<g id="node13" class="node">
<title>Node13</title>
<g id="a_node13"><a xlink:href="main_8h.html" target="_top" xlink:title=" ">
<polygon fill="white" stroke="black" points="1402.5,-62 1402.5,-81 1452.5,-81 1452.5,-62 1402.5,-62"/>
<text text-anchor="middle" x="1427.5" y="-69" font-family="Helvetica,sans-Serif" font-size="10.00">main.h</text>
</a>
</g>
</g>
<!-- Node1&#45;&gt;Node13 -->
<g id="edge12" class="edge">
<title>Node1&#45;&gt;Node13</title>
<path fill="none" stroke="midnightblue" d="M1152.76,-129.62C1200.39,-124.71 1306.4,-111.8 1392.5,-87 1394.79,-86.34 1397.14,-85.57 1399.48,-84.75"/>
<polygon fill="midnightblue" stroke="midnightblue" points="1400.82,-87.98 1408.89,-81.12 1398.3,-81.45 1400.82,-87.98"/>
</g>
<!-- Node15 -->
<g id="node15" class="node">
<title>Node15</title>
<g id="a_node15"><a xlink:title=" ">
<polygon fill="white" stroke="#bfbfbf" points="1470.5,-62 1470.5,-81 1520.5,-81 1520.5,-62 1470.5,-62"/>
<text text-anchor="middle" x="1495.5" y="-69" font-family="Helvetica,sans-Serif" font-size="10.00">stdio.h</text>
</a>
</g>
</g>
<!-- Node1&#45;&gt;Node15 -->
<g id="edge15" class="edge">
<title>Node1&#45;&gt;Node15</title>
<path fill="none" stroke="midnightblue" d="M1152.68,-130.92C1208.98,-128 1348.96,-117.97 1461.5,-87 1463.8,-86.37 1466.14,-85.61 1468.47,-84.79"/>
<polygon fill="midnightblue" stroke="midnightblue" points="1469.81,-88.03 1477.83,-81.1 1467.24,-81.51 1469.81,-88.03"/>
</g>
<!-- Node16 -->
<g id="node16" class="node">
<title>Node16</title>
<g id="a_node16"><a xlink:href="app__config_8h.html" target="_top" xlink:title="Central configuration header for the STM32N6570&#45;DK pose estimation firmware application.">
<polygon fill="white" stroke="black" points="1538.5,-62 1538.5,-81 1616.5,-81 1616.5,-62 1538.5,-62"/>
<text text-anchor="middle" x="1577.5" y="-69" font-family="Helvetica,sans-Serif" font-size="10.00">app_config.h</text>
</a>
</g>
</g>
<!-- Node1&#45;&gt;Node16 -->
<g id="edge16" class="edge">
<title>Node1&#45;&gt;Node16</title>
<path fill="none" stroke="midnightblue" d="M1152.68,-130.77C1216.37,-127.33 1388.82,-115.87 1529.5,-87 1533.72,-86.13 1538.1,-85.06 1542.43,-83.89"/>
<polygon fill="midnightblue" stroke="midnightblue" points="1543.67,-87.18 1552.31,-81.05 1541.73,-80.45 1543.67,-87.18"/>
</g>
<!-- Node18 -->
<g id="node18" class="node">
<title>Node18</title>
<g id="a_node18"><a xlink:href="crop__img_8h.html" target="_top" xlink:title=" ">
<polygon fill="white" stroke="black" points="1635,-62 1635,-81 1706,-81 1706,-62 1635,-62"/>
<text text-anchor="middle" x="1670.5" y="-69" font-family="Helvetica,sans-Serif" font-size="10.00">crop_img.h</text>
</a>
</g>
</g>
<!-- Node1&#45;&gt;Node18 -->
<g id="edge18" class="edge">
<title>Node1&#45;&gt;Node18</title>
<path fill="none" stroke="midnightblue" d="M1152.66,-131.69C1226.19,-130.36 1446.86,-123.38 1625.5,-87 1629.46,-86.19 1633.56,-85.16 1637.6,-84.02"/>
<polygon fill="midnightblue" stroke="midnightblue" points="1638.86,-87.29 1647.41,-81.02 1636.82,-80.6 1638.86,-87.29"/>
</g>
<!-- Node19 -->
<g id="node19" class="node">
<title>Node19</title>
<g id="a_node19"><a xlink:title=" ">
<polygon fill="white" stroke="#bfbfbf" points="1724.5,-62 1724.5,-81 1780.5,-81 1780.5,-62 1724.5,-62"/>
<text text-anchor="middle" x="1752.5" y="-69" font-family="Helvetica,sans-Serif" font-size="10.00">stlogo.h</text>
</a>
</g>
</g>
<!-- Node1&#45;&gt;Node19 -->
<g id="edge20" class="edge">
<title>Node1&#45;&gt;Node19</title>
<path fill="none" stroke="midnightblue" d="M1152.55,-131.04C1250.13,-127.15 1604.79,-111.59 1714.5,-87 1717.5,-86.33 1720.59,-85.46 1723.63,-84.49"/>
<polygon fill="midnightblue" stroke="midnightblue" points="1724.86,-87.77 1733.11,-81.13 1722.52,-81.17 1724.86,-87.77"/>
</g>
<!-- Node20 -->
<g id="node20" class="node">
<title>Node20</title>
<g id="a_node20"><a xlink:href="utils_8h.html" target="_top" xlink:title=" ">
<polygon fill="white" stroke="black" points="1799,-62 1799,-81 1846,-81 1846,-62 1799,-62"/>
<text text-anchor="middle" x="1822.5" y="-69" font-family="Helvetica,sans-Serif" font-size="10.00">utils.h</text>
</a>
</g>
</g>
<!-- Node1&#45;&gt;Node20 -->
<g id="edge21" class="edge">
<title>Node1&#45;&gt;Node20</title>
<path fill="none" stroke="midnightblue" d="M1152.5,-131.45C1257.77,-128.97 1665.19,-117.54 1789.5,-87 1791.86,-86.42 1794.26,-85.68 1796.64,-84.85"/>
<polygon fill="midnightblue" stroke="midnightblue" points="1798.14,-88.02 1806.11,-81.04 1795.52,-81.53 1798.14,-88.02"/>
</g>
<!-- Node21 -->
<g id="node21" class="node">
<title>Node21</title>
<g id="a_node21"><a xlink:href="display__mpe_8h.html" target="_top" xlink:title=" ">
<polygon fill="white" stroke="black" points="1864.5,-62 1864.5,-81 1952.5,-81 1952.5,-62 1864.5,-62"/>
<text text-anchor="middle" x="1908.5" y="-69" font-family="Helvetica,sans-Serif" font-size="10.00">display_mpe.h</text>
</a>
</g>
</g>
<!-- Node1&#45;&gt;Node21 -->
<g id="edge22" class="edge">
<title>Node1&#45;&gt;Node21</title>
<path fill="none" stroke="midnightblue" d="M1152.54,-132.3C1245.96,-133.05 1582.86,-132.23 1855.5,-87 1860.72,-86.13 1866.16,-84.96 1871.49,-83.66"/>
<polygon fill="midnightblue" stroke="midnightblue" points="1872.72,-86.96 1881.5,-81.04 1870.94,-80.19 1872.72,-86.96"/>
</g>
<!-- Node13&#45;&gt;Node7 -->
<g id="edge14" class="edge">
<title>Node13&#45;&gt;Node7</title>
<path fill="none" stroke="midnightblue" d="M1409.3,-61.86C1403.98,-59.64 1398.1,-57.47 1392.5,-56 1278.85,-26.18 1140.39,-16.04 1068.71,-12.65"/>
<polygon fill="midnightblue" stroke="midnightblue" points="1068.77,-9.15 1058.63,-12.2 1068.46,-16.14 1068.77,-9.15"/>
</g>
<!-- Node14 -->
<g id="node14" class="node">
<title>Node14</title>
<g id="a_node14"><a xlink:title=" ">
<polygon fill="white" stroke="#bfbfbf" points="1377,-0.5 1377,-19.5 1478,-19.5 1478,-0.5 1377,-0.5"/>
<text text-anchor="middle" x="1427.5" y="-7.5" font-family="Helvetica,sans-Serif" font-size="10.00">stm32n6xx_hal.h</text>
</a>
</g>
</g>
<!-- Node13&#45;&gt;Node14 -->
<g id="edge13" class="edge">
<title>Node13&#45;&gt;Node14</title>
<path fill="none" stroke="midnightblue" d="M1427.5,-61.98C1427.5,-53.58 1427.5,-40.48 1427.5,-29.66"/>
<polygon fill="midnightblue" stroke="midnightblue" points="1431,-29.51 1427.5,-19.51 1424,-29.51 1431,-29.51"/>
</g>
<!-- Node17 -->
<g id="node17" class="node">
<title>Node17</title>
<g id="a_node17"><a xlink:title=" ">
<polygon fill="white" stroke="#bfbfbf" points="1585.5,-0.5 1585.5,-19.5 1661.5,-19.5 1661.5,-0.5 1585.5,-0.5"/>
<text text-anchor="middle" x="1623.5" y="-7.5" font-family="Helvetica,sans-Serif" font-size="10.00">arm_math.h</text>
</a>
</g>
</g>
<!-- Node16&#45;&gt;Node17 -->
<g id="edge17" class="edge">
<title>Node16&#45;&gt;Node17</title>
<path fill="none" stroke="midnightblue" d="M1584.09,-61.98C1590.99,-53.05 1602,-38.81 1610.63,-27.64"/>
<polygon fill="midnightblue" stroke="midnightblue" points="1613.57,-29.56 1616.92,-19.51 1608.04,-25.28 1613.57,-29.56"/>
</g>
<!-- Node18&#45;&gt;Node17 -->
<g id="edge19" class="edge">
<title>Node18&#45;&gt;Node17</title>
<path fill="none" stroke="midnightblue" d="M1663.77,-61.98C1656.72,-53.05 1645.47,-38.81 1636.65,-27.64"/>
<polygon fill="midnightblue" stroke="midnightblue" points="1639.17,-25.19 1630.22,-19.51 1633.67,-29.53 1639.17,-25.19"/>
</g>
<!-- Node22 -->
<g id="node22" class="node">
<title>Node22</title>
<g id="a_node22"><a xlink:title=" ">
<polygon fill="white" stroke="#bfbfbf" points="1785.5,-0.5 1785.5,-19.5 1899.5,-19.5 1899.5,-0.5 1785.5,-0.5"/>
<text text-anchor="middle" x="1842.5" y="-7.5" font-family="Helvetica,sans-Serif" font-size="10.00">mpe_yolov8_pp_if.h</text>
</a>
</g>
</g>
<!-- Node21&#45;&gt;Node22 -->
<g id="edge23" class="edge">
<title>Node21&#45;&gt;Node22</title>
<path fill="none" stroke="midnightblue" d="M1899.04,-61.98C1888.75,-52.7 1872.08,-37.67 1859.51,-26.33"/>
<polygon fill="midnightblue" stroke="midnightblue" points="1861.71,-23.61 1851.94,-19.51 1857.02,-28.8 1861.71,-23.61"/>
</g>
<!-- Node23 -->
<g id="node23" class="node">
<title>Node23</title>
<g id="a_node23"><a xlink:title=" ">
<polygon fill="white" stroke="#bfbfbf" points="1918,-0.5 1918,-19.5 2031,-19.5 2031,-0.5 1918,-0.5"/>
<text text-anchor="middle" x="1974.5" y="-7.5" font-family="Helvetica,sans-Serif" font-size="10.00">mpe_pp_output_if.h</text>
</a>
</g>
</g>
<!-- Node21&#45;&gt;Node23 -->
<g id="edge24" class="edge">
<title>Node21&#45;&gt;Node23</title>
<path fill="none" stroke="midnightblue" d="M1917.96,-61.98C1928.25,-52.7 1944.92,-37.67 1957.49,-26.33"/>
<polygon fill="midnightblue" stroke="midnightblue" points="1959.98,-28.8 1965.06,-19.51 1955.29,-23.61 1959.98,-28.8"/>
</g>
</g>
</svg>
