<?xml version="1.0" encoding="UTF-8" standalone="no"?>
<!DOCTYPE svg PUBLIC "-//W3C//DTD SVG 1.1//EN"
 "http://www.w3.org/Graphics/SVG/1.1/DTD/svg11.dtd">
<!-- Generated by graphviz version 2.43.0 (0)
 -->
<!-- Title: Hardware_init Pages: 1 -->
<svg width="245pt" height="218pt"
 viewBox="0.00 0.00 245.00 218.00" xmlns="http://www.w3.org/2000/svg" xmlns:xlink="http://www.w3.org/1999/xlink">
<g id="graph0" class="graph" transform="scale(1 1) rotate(0) translate(4 214)">
<title>Hardware_init</title>
<polygon fill="white" stroke="transparent" points="-4,4 -4,-214 241,-214 241,4 -4,4"/>
<!-- Node1 -->
<g id="node1" class="node">
<title>Node1</title>
<g id="a_node1"><a xlink:title="Initialize all hardware peripherals required for the application.">
<polygon fill="#bfbfbf" stroke="black" points="0,-95.5 0,-114.5 85,-114.5 85,-95.5 0,-95.5"/>
<text text-anchor="middle" x="42.5" y="-102.5" font-family="Helvetica,sans-Serif" font-size="10.00">Hardware_init</text>
</a>
</g>
</g>
<!-- Node2 -->
<g id="node2" class="node">
<title>Node2</title>
<g id="a_node2"><a xlink:href="main_8c.html#a887d55f5fa5284e320ee0efde4b56773" target="_top" xlink:title="Configure the Illegal Access Controller (IAC).">
<polygon fill="white" stroke="black" points="144.5,-190.5 144.5,-209.5 213.5,-209.5 213.5,-190.5 144.5,-190.5"/>
<text text-anchor="middle" x="179" y="-197.5" font-family="Helvetica,sans-Serif" font-size="10.00">IAC_Config</text>
</a>
</g>
</g>
<!-- Node1&#45;&gt;Node2 -->
<g id="edge1" class="edge">
<title>Node1&#45;&gt;Node2</title>
<path fill="none" stroke="midnightblue" d="M50.8,-114.58C63.44,-130.54 90.93,-162.62 121,-181 125.34,-183.65 130.09,-185.98 134.94,-188.02"/>
<polygon fill="midnightblue" stroke="midnightblue" points="133.72,-191.3 144.32,-191.58 136.21,-184.76 133.72,-191.3"/>
</g>
<!-- Node3 -->
<g id="node3" class="node">
<title>Node3</title>
<g id="a_node3"><a xlink:href="main_8c.html#ad288614c598f155c75b84f66ec54cb24" target="_top" xlink:title="Initialize and enable the NPU AXI cache.">
<polygon fill="white" stroke="black" points="128,-152.5 128,-171.5 230,-171.5 230,-152.5 128,-152.5"/>
<text text-anchor="middle" x="179" y="-159.5" font-family="Helvetica,sans-Serif" font-size="10.00">NPUCache_config</text>
</a>
</g>
</g>
<!-- Node1&#45;&gt;Node3 -->
<g id="edge2" class="edge">
<title>Node1&#45;&gt;Node3</title>
<path fill="none" stroke="midnightblue" d="M61.35,-114.6C76.86,-122.74 100.06,-134.42 121,-143 126.19,-145.13 131.71,-147.2 137.2,-149.14"/>
<polygon fill="midnightblue" stroke="midnightblue" points="136.36,-152.55 146.96,-152.49 138.64,-145.93 136.36,-152.55"/>
</g>
<!-- Node4 -->
<g id="node4" class="node">
<title>Node4</title>
<g id="a_node4"><a xlink:href="main_8c.html#af97a2122d6e97966d6079ca567e79539" target="_top" xlink:title="Enable the NPU clock and all four NPU SRAM banks.">
<polygon fill="white" stroke="black" points="130,-114.5 130,-133.5 228,-133.5 228,-114.5 130,-114.5"/>
<text text-anchor="middle" x="179" y="-121.5" font-family="Helvetica,sans-Serif" font-size="10.00">NPURam_enable</text>
</a>
</g>
</g>
<!-- Node1&#45;&gt;Node4 -->
<g id="edge3" class="edge">
<title>Node1&#45;&gt;Node4</title>
<path fill="none" stroke="midnightblue" d="M85.32,-110.91C96.17,-112.44 108.07,-114.12 119.6,-115.75"/>
<polygon fill="midnightblue" stroke="midnightblue" points="119.23,-119.23 129.62,-117.17 120.21,-112.3 119.23,-119.23"/>
</g>
<!-- Node5 -->
<g id="node5" class="node">
<title>Node5</title>
<g id="a_node5"><a xlink:href="main_8c.html#aec4d05c3579cfa27c2368b589115b9fe" target="_top" xlink:title="Configure TrustZone security attributes for hardware peripherals.">
<polygon fill="white" stroke="black" points="133,-76.5 133,-95.5 225,-95.5 225,-76.5 133,-76.5"/>
<text text-anchor="middle" x="179" y="-83.5" font-family="Helvetica,sans-Serif" font-size="10.00">Security_Config</text>
</a>
</g>
</g>
<!-- Node1&#45;&gt;Node5 -->
<g id="edge4" class="edge">
<title>Node1&#45;&gt;Node5</title>
<path fill="none" stroke="midnightblue" d="M85.32,-99.09C97.25,-97.41 110.42,-95.55 123.01,-93.77"/>
<polygon fill="midnightblue" stroke="midnightblue" points="123.53,-97.23 132.94,-92.37 122.55,-90.3 123.53,-97.23"/>
</g>
<!-- Node6 -->
<g id="node6" class="node">
<title>Node6</title>
<g id="a_node6"><a xlink:href="main_8c.html#a49b44219d58f7d21e7e71a4d2ef80323" target="_top" xlink:title="Configure peripheral clocks to remain active during CPU sleep.">
<polygon fill="white" stroke="black" points="121,-38.5 121,-57.5 237,-57.5 237,-38.5 121,-38.5"/>
<text text-anchor="middle" x="179" y="-45.5" font-family="Helvetica,sans-Serif" font-size="10.00">set_clk_sleep_mode</text>
</a>
</g>
</g>
<!-- Node1&#45;&gt;Node6 -->
<g id="edge5" class="edge">
<title>Node1&#45;&gt;Node6</title>
<path fill="none" stroke="midnightblue" d="M61.35,-95.4C76.86,-87.26 100.06,-75.58 121,-67 126.19,-64.87 131.71,-62.8 137.2,-60.86"/>
<polygon fill="midnightblue" stroke="midnightblue" points="138.64,-64.07 146.96,-57.51 136.36,-57.45 138.64,-64.07"/>
</g>
<!-- Node7 -->
<g id="node7" class="node">
<title>Node7</title>
<g id="a_node7"><a xlink:href="main_8c.html#ad554cbf06ce0fa6f92a0c4152b8a4c64" target="_top" xlink:title="Configure the system clock tree using four PLLs.">
<polygon fill="white" stroke="black" points="121,-0.5 121,-19.5 237,-19.5 237,-0.5 121,-0.5"/>
<text text-anchor="middle" x="179" y="-7.5" font-family="Helvetica,sans-Serif" font-size="10.00">SystemClock_Config</text>
</a>
</g>
</g>
<!-- Node1&#45;&gt;Node7 -->
<g id="edge6" class="edge">
<title>Node1&#45;&gt;Node7</title>
<path fill="none" stroke="midnightblue" d="M50.8,-95.42C63.44,-79.46 90.93,-47.38 121,-29 124.36,-26.95 127.97,-25.09 131.67,-23.41"/>
<polygon fill="midnightblue" stroke="midnightblue" points="133.08,-26.61 141.02,-19.59 130.44,-20.13 133.08,-26.61"/>
</g>
</g>
</svg>
