<?xml version="1.0" encoding="UTF-8" standalone="no"?>
<!DOCTYPE svg PUBLIC "-//W3C//DTD SVG 1.1//EN"
 "http://www.w3.org/Graphics/SVG/1.1/DTD/svg11.dtd">
<!-- Generated by graphviz version 2.43.0 (0)
 -->
<!-- Title: data_loader._get_train_val_ds Pages: 1 -->
<svg width="479pt" height="88pt"
 viewBox="0.00 0.00 479.00 88.00" xmlns="http://www.w3.org/2000/svg" xmlns:xlink="http://www.w3.org/1999/xlink">
<g id="graph0" class="graph" transform="scale(1 1) rotate(0) translate(4 84)">
<title>data_loader._get_train_val_ds</title>
<polygon fill="white" stroke="transparent" points="-4,4 -4,-84 475,-84 475,4 -4,4"/>
<!-- Node1 -->
<g id="node1" class="node">
<title>Node1</title>
<g id="a_node1"><a xlink:title=" ">
<polygon fill="#bfbfbf" stroke="black" points="0,-24.5 0,-54.5 125,-54.5 125,-24.5 0,-24.5"/>
<text text-anchor="start" x="8" y="-42.5" font-family="Helvetica,sans-Serif" font-size="10.00">data_loader._get_train</text>
<text text-anchor="middle" x="62.5" y="-31.5" font-family="Helvetica,sans-Serif" font-size="10.00">_val_ds</text>
</a>
</g>
</g>
<!-- Node2 -->
<g id="node2" class="node">
<title>Node2</title>
<g id="a_node2"><a xlink:href="namespacedata__loader.html#aacb518b38997abe818fa7d287629e786" target="_top" xlink:title=" ">
<polygon fill="white" stroke="black" points="166,-49.5 166,-79.5 291,-79.5 291,-49.5 166,-49.5"/>
<text text-anchor="start" x="174" y="-67.5" font-family="Helvetica,sans-Serif" font-size="10.00">data_loader._get_path</text>
<text text-anchor="middle" x="228.5" y="-56.5" font-family="Helvetica,sans-Serif" font-size="10.00">_dataset</text>
</a>
</g>
</g>
<!-- Node1&#45;&gt;Node2 -->
<g id="edge1" class="edge">
<title>Node1&#45;&gt;Node2</title>
<path fill="none" stroke="midnightblue" d="M125.03,-48.88C135.05,-50.41 145.51,-52 155.75,-53.56"/>
<polygon fill="midnightblue" stroke="midnightblue" points="155.48,-57.06 165.89,-55.11 156.54,-50.14 155.48,-57.06"/>
</g>
<!-- Node4 -->
<g id="node4" class="node">
<title>Node4</title>
<g id="a_node4"><a xlink:href="namespacedata__loader.html#afbe478e627ff1519131e19a93f18c1ed" target="_top" xlink:title=" ">
<polygon fill="white" stroke="black" points="161,-0.5 161,-30.5 296,-30.5 296,-0.5 161,-0.5"/>
<text text-anchor="start" x="169" y="-18.5" font-family="Helvetica,sans-Serif" font-size="10.00">data_loader._preprocess</text>
<text text-anchor="middle" x="228.5" y="-7.5" font-family="Helvetica,sans-Serif" font-size="10.00">_function</text>
</a>
</g>
</g>
<!-- Node1&#45;&gt;Node4 -->
<g id="edge3" class="edge">
<title>Node1&#45;&gt;Node4</title>
<path fill="none" stroke="midnightblue" d="M125.03,-30.5C133.46,-29.26 142.2,-27.98 150.85,-26.72"/>
<polygon fill="midnightblue" stroke="midnightblue" points="151.57,-30.15 160.95,-25.24 150.55,-23.22 151.57,-30.15"/>
</g>
<!-- Node3 -->
<g id="node3" class="node">
<title>Node3</title>
<g id="a_node3"><a xlink:href="namespacedata__loader.html#aabe60973e5e3bc958aa34fa142657963" target="_top" xlink:title=" ">
<polygon fill="white" stroke="black" points="336,-49.5 336,-79.5 467,-79.5 467,-49.5 336,-49.5"/>
<text text-anchor="start" x="344" y="-67.5" font-family="Helvetica,sans-Serif" font-size="10.00">data_loader._normalize</text>
<text text-anchor="middle" x="401.5" y="-56.5" font-family="Helvetica,sans-Serif" font-size="10.00">_labels</text>
</a>
</g>
</g>
<!-- Node2&#45;&gt;Node3 -->
<g id="edge2" class="edge">
<title>Node2&#45;&gt;Node3</title>
<path fill="none" stroke="midnightblue" d="M291.23,-64.5C302.48,-64.5 314.32,-64.5 325.9,-64.5"/>
<polygon fill="midnightblue" stroke="midnightblue" points="325.97,-68 335.97,-64.5 325.97,-61 325.97,-68"/>
</g>
<!-- Node5 -->
<g id="node5" class="node">
<title>Node5</title>
<g id="a_node5"><a xlink:href="namespacedata__loader.html#a941107b6390a29d4eced4383bbc4c144" target="_top" xlink:title=" ">
<polygon fill="white" stroke="black" points="332,-0.5 332,-30.5 471,-30.5 471,-0.5 332,-0.5"/>
<text text-anchor="start" x="340" y="-18.5" font-family="Helvetica,sans-Serif" font-size="10.00">data_loader._get_padded</text>
<text text-anchor="middle" x="401.5" y="-7.5" font-family="Helvetica,sans-Serif" font-size="10.00">_labels</text>
</a>
</g>
</g>
<!-- Node4&#45;&gt;Node5 -->
<g id="edge4" class="edge">
<title>Node4&#45;&gt;Node5</title>
<path fill="none" stroke="midnightblue" d="M296.1,-15.5C304.53,-15.5 313.21,-15.5 321.8,-15.5"/>
<polygon fill="midnightblue" stroke="midnightblue" points="321.82,-19 331.82,-15.5 321.82,-12 321.82,-19"/>
</g>
</g>
</svg>
