<?xml version="1.0" encoding="UTF-8" standalone="no"?>
<!DOCTYPE svg PUBLIC "-//W3C//DTD SVG 1.1//EN"
 "http://www.w3.org/Graphics/SVG/1.1/DTD/svg11.dtd">
<!-- Generated by graphviz version 2.43.0 (0)
 -->
<!-- Title: data_loader._get_ds Pages: 1 -->
<svg width="468pt" height="88pt"
 viewBox="0.00 0.00 468.00 88.00" xmlns="http://www.w3.org/2000/svg" xmlns:xlink="http://www.w3.org/1999/xlink">
<g id="graph0" class="graph" transform="scale(1 1) rotate(0) translate(4 84)">
<title>data_loader._get_ds</title>
<polygon fill="white" stroke="transparent" points="-4,4 -4,-84 464,-84 464,4 -4,4"/>
<!-- Node1 -->
<g id="node1" class="node">
<title>Node1</title>
<g id="a_node1"><a xlink:title=" ">
<polygon fill="#bfbfbf" stroke="black" points="0,-30 0,-49 114,-49 114,-30 0,-30"/>
<text text-anchor="middle" x="57" y="-37" font-family="Helvetica,sans-Serif" font-size="10.00">data_loader._get_ds</text>
</a>
</g>
</g>
<!-- Node2 -->
<g id="node2" class="node">
<title>Node2</title>
<g id="a_node2"><a xlink:href="namespacedata__loader.html#aacb518b38997abe818fa7d287629e786" target="_top" xlink:title=" ">
<polygon fill="white" stroke="black" points="155,-49.5 155,-79.5 280,-79.5 280,-49.5 155,-49.5"/>
<text text-anchor="start" x="163" y="-67.5" font-family="Helvetica,sans-Serif" font-size="10.00">data_loader._get_path</text>
<text text-anchor="middle" x="217.5" y="-56.5" font-family="Helvetica,sans-Serif" font-size="10.00">_dataset</text>
</a>
</g>
</g>
<!-- Node1&#45;&gt;Node2 -->
<g id="edge1" class="edge">
<title>Node1&#45;&gt;Node2</title>
<path fill="none" stroke="midnightblue" d="M114.33,-48.38C124.2,-49.94 134.6,-51.58 144.83,-53.2"/>
<polygon fill="midnightblue" stroke="midnightblue" points="144.55,-56.69 154.97,-54.8 145.64,-49.78 144.55,-56.69"/>
</g>
<!-- Node4 -->
<g id="node4" class="node">
<title>Node4</title>
<g id="a_node4"><a xlink:href="namespacedata__loader.html#afbe478e627ff1519131e19a93f18c1ed" target="_top" xlink:title=" ">
<polygon fill="white" stroke="black" points="150,-0.5 150,-30.5 285,-30.5 285,-0.5 150,-0.5"/>
<text text-anchor="start" x="158" y="-18.5" font-family="Helvetica,sans-Serif" font-size="10.00">data_loader._preprocess</text>
<text text-anchor="middle" x="217.5" y="-7.5" font-family="Helvetica,sans-Serif" font-size="10.00">_function</text>
</a>
</g>
</g>
<!-- Node1&#45;&gt;Node4 -->
<g id="edge3" class="edge">
<title>Node1&#45;&gt;Node4</title>
<path fill="none" stroke="midnightblue" d="M114.33,-30.97C122.58,-29.72 131.19,-28.42 139.76,-27.12"/>
<polygon fill="midnightblue" stroke="midnightblue" points="140.42,-30.56 149.79,-25.6 139.37,-23.64 140.42,-30.56"/>
</g>
<!-- Node3 -->
<g id="node3" class="node">
<title>Node3</title>
<g id="a_node3"><a xlink:href="namespacedata__loader.html#aabe60973e5e3bc958aa34fa142657963" target="_top" xlink:title=" ">
<polygon fill="white" stroke="black" points="325,-49.5 325,-79.5 456,-79.5 456,-49.5 325,-49.5"/>
<text text-anchor="start" x="333" y="-67.5" font-family="Helvetica,sans-Serif" font-size="10.00">data_loader._normalize</text>
<text text-anchor="middle" x="390.5" y="-56.5" font-family="Helvetica,sans-Serif" font-size="10.00">_labels</text>
</a>
</g>
</g>
<!-- Node2&#45;&gt;Node3 -->
<g id="edge2" class="edge">
<title>Node2&#45;&gt;Node3</title>
<path fill="none" stroke="midnightblue" d="M280.23,-64.5C291.48,-64.5 303.32,-64.5 314.9,-64.5"/>
<polygon fill="midnightblue" stroke="midnightblue" points="314.97,-68 324.97,-64.5 314.97,-61 314.97,-68"/>
</g>
<!-- Node5 -->
<g id="node5" class="node">
<title>Node5</title>
<g id="a_node5"><a xlink:href="namespacedata__loader.html#a941107b6390a29d4eced4383bbc4c144" target="_top" xlink:title=" ">
<polygon fill="white" stroke="black" points="321,-0.5 321,-30.5 460,-30.5 460,-0.5 321,-0.5"/>
<text text-anchor="start" x="329" y="-18.5" font-family="Helvetica,sans-Serif" font-size="10.00">data_loader._get_padded</text>
<text text-anchor="middle" x="390.5" y="-7.5" font-family="Helvetica,sans-Serif" font-size="10.00">_labels</text>
</a>
</g>
</g>
<!-- Node4&#45;&gt;Node5 -->
<g id="edge4" class="edge">
<title>Node4&#45;&gt;Node5</title>
<path fill="none" stroke="midnightblue" d="M285.1,-15.5C293.53,-15.5 302.21,-15.5 310.8,-15.5"/>
<polygon fill="midnightblue" stroke="midnightblue" points="310.82,-19 320.82,-15.5 310.82,-12 310.82,-19"/>
</g>
</g>
</svg>
