<?xml version="1.0" encoding="UTF-8" standalone="no"?>
<!DOCTYPE svg PUBLIC "-//W3C//DTD SVG 1.1//EN"
 "http://www.w3.org/Graphics/SVG/1.1/DTD/svg11.dtd">
<!-- Generated by graphviz version 2.43.0 (0)
 -->
<!-- Title: postprocess.heatmaps_spe_postprocess Pages: 1 -->
<svg width="285pt" height="78pt"
 viewBox="0.00 0.00 285.00 77.50" xmlns="http://www.w3.org/2000/svg" xmlns:xlink="http://www.w3.org/1999/xlink">
<g id="graph0" class="graph" transform="scale(1 1) rotate(0) translate(4 73.5)">
<title>postprocess.heatmaps_spe_postprocess</title>
<polygon fill="white" stroke="transparent" points="-4,4 -4,-73.5 281,-73.5 281,4 -4,4"/>
<!-- Node1 -->
<g id="node1" class="node">
<title>Node1</title>
<g id="a_node1"><a xlink:title=" ">
<polygon fill="#bfbfbf" stroke="black" points="150,-22.5 150,-52.5 277,-52.5 277,-22.5 150,-22.5"/>
<text text-anchor="start" x="158" y="-40.5" font-family="Helvetica,sans-Serif" font-size="10.00">postprocess.heatmaps</text>
<text text-anchor="middle" x="213.5" y="-29.5" font-family="Helvetica,sans-Serif" font-size="10.00">_spe_postprocess</text>
</a>
</g>
</g>
<!-- Node2 -->
<g id="node2" class="node">
<title>Node2</title>
<g id="a_node2"><a xlink:href="namespaceevaluate.html#a1acaf0ac9bb966c62b2f64b7bb382d11" target="_top" xlink:title=" ">
<polygon fill="white" stroke="black" points="4.5,-50 4.5,-69 109.5,-69 109.5,-50 4.5,-50"/>
<text text-anchor="middle" x="57" y="-57" font-family="Helvetica,sans-Serif" font-size="10.00">evaluate.evaluate</text>
</a>
</g>
</g>
<!-- Node1&#45;&gt;Node2 -->
<g id="edge1" class="edge">
<title>Node1&#45;&gt;Node2</title>
<path fill="none" stroke="midnightblue" d="M139.68,-47.87C129.63,-49.3 119.49,-50.74 109.93,-52.11"/>
<polygon fill="midnightblue" stroke="midnightblue" points="140.25,-51.32 149.66,-46.45 139.27,-44.39 140.25,-51.32"/>
</g>
<!-- Node3 -->
<g id="node3" class="node">
<title>Node3</title>
<g id="a_node3"><a xlink:href="namespacemetrics.html#a93f7195b029d432d947a4b63d23fd097" target="_top" xlink:title=" ">
<polygon fill="white" stroke="black" points="0,-0.5 0,-30.5 114,-30.5 114,-0.5 0,-0.5"/>
<text text-anchor="start" x="8" y="-18.5" font-family="Helvetica,sans-Serif" font-size="10.00">metrics.single_pose</text>
<text text-anchor="middle" x="57" y="-7.5" font-family="Helvetica,sans-Serif" font-size="10.00">_heatmaps_oks</text>
</a>
</g>
</g>
<!-- Node1&#45;&gt;Node3 -->
<g id="edge2" class="edge">
<title>Node1&#45;&gt;Node3</title>
<path fill="none" stroke="midnightblue" d="M139.71,-27.13C131.18,-25.92 122.58,-24.7 114.32,-23.52"/>
<polygon fill="midnightblue" stroke="midnightblue" points="139.27,-30.61 149.66,-28.55 140.25,-23.68 139.27,-30.61"/>
</g>
</g>
</svg>
