<?xml version="1.0" encoding="UTF-8" standalone="no"?>
<!DOCTYPE svg PUBLIC "-//W3C//DTD SVG 1.1//EN"
 "http://www.w3.org/Graphics/SVG/1.1/DTD/svg11.dtd">
<!-- Generated by graphviz version 2.43.0 (0)
 -->
<!-- Title: metrics._precision_recall Pages: 1 -->
<svg width="407pt" height="39pt"
 viewBox="0.00 0.00 407.00 39.00" xmlns="http://www.w3.org/2000/svg" xmlns:xlink="http://www.w3.org/1999/xlink">
<g id="graph0" class="graph" transform="scale(1 1) rotate(0) translate(4 35)">
<title>metrics._precision_recall</title>
<polygon fill="white" stroke="transparent" points="-4,4 -4,-35 403,-35 403,4 -4,4"/>
<!-- Node1 -->
<g id="node1" class="node">
<title>Node1</title>
<g id="a_node1"><a xlink:title=" ">
<polygon fill="#bfbfbf" stroke="black" points="293,-0.5 293,-30.5 399,-30.5 399,-0.5 293,-0.5"/>
<text text-anchor="start" x="301" y="-18.5" font-family="Helvetica,sans-Serif" font-size="10.00">metrics._precision</text>
<text text-anchor="middle" x="346" y="-7.5" font-family="Helvetica,sans-Serif" font-size="10.00">_recall</text>
</a>
</g>
</g>
<!-- Node2 -->
<g id="node2" class="node">
<title>Node2</title>
<g id="a_node2"><a xlink:href="namespacemetrics.html#a0872de6e6341f9b6a56b60831b70df98" target="_top" xlink:title=" ">
<polygon fill="white" stroke="black" points="141,-6 141,-25 257,-25 257,-6 141,-6"/>
<text text-anchor="middle" x="199" y="-13" font-family="Helvetica,sans-Serif" font-size="10.00">metrics.compute_ap</text>
</a>
</g>
</g>
<!-- Node1&#45;&gt;Node2 -->
<g id="edge1" class="edge">
<title>Node1&#45;&gt;Node2</title>
<path fill="none" stroke="midnightblue" d="M282.51,-15.5C274.09,-15.5 265.49,-15.5 257.18,-15.5"/>
<polygon fill="midnightblue" stroke="midnightblue" points="282.65,-19 292.65,-15.5 282.65,-12 282.65,-19"/>
</g>
<!-- Node3 -->
<g id="node3" class="node">
<title>Node3</title>
<g id="a_node3"><a xlink:href="namespaceevaluate.html#a1acaf0ac9bb966c62b2f64b7bb382d11" target="_top" xlink:title=" ">
<polygon fill="white" stroke="black" points="0,-6 0,-25 105,-25 105,-6 0,-6"/>
<text text-anchor="middle" x="52.5" y="-13" font-family="Helvetica,sans-Serif" font-size="10.00">evaluate.evaluate</text>
</a>
</g>
</g>
<!-- Node2&#45;&gt;Node3 -->
<g id="edge2" class="edge">
<title>Node2&#45;&gt;Node3</title>
<path fill="none" stroke="midnightblue" d="M130.8,-15.5C122.14,-15.5 113.39,-15.5 105.04,-15.5"/>
<polygon fill="midnightblue" stroke="midnightblue" points="130.89,-19 140.89,-15.5 130.89,-12 130.89,-19"/>
</g>
</g>
</svg>
