<?xml version="1.0" encoding="UTF-8" standalone="no"?>
<!DOCTYPE svg PUBLIC "-//W3C//DTD SVG 1.1//EN"
 "http://www.w3.org/Graphics/SVG/1.1/DTD/svg11.dtd">
<!-- Generated by graphviz version 2.43.0 (0)
 -->
<!-- Title: deploy.deploy_mpu Pages: 1 -->
<svg width="634pt" height="47pt"
 viewBox="0.00 0.00 634.00 47.00" xmlns="http://www.w3.org/2000/svg" xmlns:xlink="http://www.w3.org/1999/xlink">
<g id="graph0" class="graph" transform="scale(1 1) rotate(0) translate(4 43)">
<title>deploy.deploy_mpu</title>
<polygon fill="white" stroke="transparent" points="-4,4 -4,-43 630,-43 630,4 -4,4"/>
<!-- Node1 -->
<g id="node1" class="node">
<title>Node1</title>
<g id="a_node1"><a xlink:title=" ">
<polygon fill="#bfbfbf" stroke="black" points="515,-0.5 515,-19.5 626,-19.5 626,-0.5 515,-0.5"/>
<text text-anchor="middle" x="570.5" y="-7.5" font-family="Helvetica,sans-Serif" font-size="10.00">deploy.deploy_mpu</text>
</a>
</g>
</g>
<!-- Node2 -->
<g id="node2" class="node">
<title>Node2</title>
<g id="a_node2"><a xlink:href="namespacestm32ai__main.html#a1d087592b8cc565c0d7735ecbaabbf23" target="_top" xlink:title=" ">
<polygon fill="white" stroke="black" points="346,-19.5 346,-38.5 479,-38.5 479,-19.5 346,-19.5"/>
<text text-anchor="middle" x="412.5" y="-26.5" font-family="Helvetica,sans-Serif" font-size="10.00">stm32ai_main.chain_qd</text>
</a>
</g>
</g>
<!-- Node1&#45;&gt;Node2 -->
<g id="edge1" class="edge">
<title>Node1&#45;&gt;Node2</title>
<path fill="none" stroke="midnightblue" d="M505,-17.86C496.42,-18.9 487.62,-19.97 479.02,-21.02"/>
<polygon fill="midnightblue" stroke="midnightblue" points="505.44,-21.33 514.94,-16.65 504.59,-14.38 505.44,-21.33"/>
</g>
<!-- Node3 -->
<g id="node3" class="node">
<title>Node3</title>
<g id="a_node3"><a xlink:href="namespacestm32ai__main.html#a4cbaa9ff30732c1dd564db78f0f9b0b7" target="_top" xlink:title=" ">
<polygon fill="white" stroke="black" points="150,-0.5 150,-19.5 310,-19.5 310,-0.5 150,-0.5"/>
<text text-anchor="middle" x="230" y="-7.5" font-family="Helvetica,sans-Serif" font-size="10.00">stm32ai_main.process_mode</text>
</a>
</g>
</g>
<!-- Node1&#45;&gt;Node3 -->
<g id="edge4" class="edge">
<title>Node1&#45;&gt;Node3</title>
<path fill="none" stroke="midnightblue" d="M504.7,-10C449.33,-10 369.49,-10 310.32,-10"/>
<polygon fill="midnightblue" stroke="midnightblue" points="504.74,-13.5 514.74,-10 504.74,-6.5 504.74,-13.5"/>
</g>
<!-- Node2&#45;&gt;Node3 -->
<g id="edge2" class="edge">
<title>Node2&#45;&gt;Node3</title>
<path fill="none" stroke="midnightblue" d="M335.65,-21.02C327.21,-20.13 318.61,-19.22 310.14,-18.33"/>
<polygon fill="midnightblue" stroke="midnightblue" points="335.51,-24.52 345.82,-22.09 336.25,-17.56 335.51,-24.52"/>
</g>
<!-- Node4 -->
<g id="node4" class="node">
<title>Node4</title>
<g id="a_node4"><a xlink:href="namespacestm32ai__main.html#ae0e69d0e3fd0c4e2f3e05a0f2105c432" target="_top" xlink:title=" ">
<polygon fill="white" stroke="black" points="0,-0.5 0,-19.5 114,-19.5 114,-0.5 0,-0.5"/>
<text text-anchor="middle" x="57" y="-7.5" font-family="Helvetica,sans-Serif" font-size="10.00">stm32ai_main.main</text>
</a>
</g>
</g>
<!-- Node3&#45;&gt;Node4 -->
<g id="edge3" class="edge">
<title>Node3&#45;&gt;Node4</title>
<path fill="none" stroke="midnightblue" d="M139.48,-10C130.95,-10 122.46,-10 114.38,-10"/>
<polygon fill="midnightblue" stroke="midnightblue" points="139.51,-13.5 149.51,-10 139.51,-6.5 139.51,-13.5"/>
</g>
</g>
</svg>
