<?xml version="1.0" encoding="UTF-8" standalone="no"?>
<!DOCTYPE svg PUBLIC "-//W3C//DTD SVG 1.1//EN"
 "http://www.w3.org/Graphics/SVG/1.1/DTD/svg11.dtd">
<!-- Generated by graphviz version 2.43.0 (0)
 -->
<!-- Title: metrics._oks_matrix Pages: 1 -->
<svg width="447pt" height="83pt"
 viewBox="0.00 0.00 447.00 83.00" xmlns="http://www.w3.org/2000/svg" xmlns:xlink="http://www.w3.org/1999/xlink">
<g id="graph0" class="graph" transform="scale(1 1) rotate(0) translate(4 79)">
<title>metrics._oks_matrix</title>
<polygon fill="white" stroke="transparent" points="-4,4 -4,-79 443,-79 443,4 -4,4"/>
<!-- Node1 -->
<g id="node1" class="node">
<title>Node1</title>
<g id="a_node1"><a xlink:title=" ">
<polygon fill="#bfbfbf" stroke="black" points="323,-28 323,-47 439,-47 439,-28 323,-28"/>
<text text-anchor="middle" x="381" y="-35" font-family="Helvetica,sans-Serif" font-size="10.00">metrics._oks_matrix</text>
</a>
</g>
</g>
<!-- Node2 -->
<g id="node2" class="node">
<title>Node2</title>
<g id="a_node2"><a xlink:href="namespacemetrics.html#a6905112a93d68a0eaf83c34db9c39a59" target="_top" xlink:title=" ">
<polygon fill="white" stroke="black" points="163.5,-44.5 163.5,-74.5 273.5,-74.5 273.5,-44.5 163.5,-44.5"/>
<text text-anchor="start" x="171.5" y="-62.5" font-family="Helvetica,sans-Serif" font-size="10.00">metrics.multi_pose</text>
<text text-anchor="middle" x="218.5" y="-51.5" font-family="Helvetica,sans-Serif" font-size="10.00">_oks_mAP</text>
</a>
</g>
</g>
<!-- Node1&#45;&gt;Node2 -->
<g id="edge1" class="edge">
<title>Node1&#45;&gt;Node2</title>
<path fill="none" stroke="midnightblue" d="M313.05,-46.68C299.92,-48.48 286.31,-50.34 273.67,-52.08"/>
<polygon fill="midnightblue" stroke="midnightblue" points="313.53,-50.14 322.96,-45.32 312.58,-43.21 313.53,-50.14"/>
</g>
<!-- Node4 -->
<g id="node4" class="node">
<title>Node4</title>
<g id="a_node4"><a xlink:href="namespacemetrics.html#ae800bb6958465b58ae78008edc212cb0" target="_top" xlink:title=" ">
<polygon fill="white" stroke="black" points="150,-6 150,-25 287,-25 287,-6 150,-6"/>
<text text-anchor="middle" x="218.5" y="-13" font-family="Helvetica,sans-Serif" font-size="10.00">metrics.single_pose_oks</text>
</a>
</g>
</g>
<!-- Node1&#45;&gt;Node4 -->
<g id="edge3" class="edge">
<title>Node1&#45;&gt;Node4</title>
<path fill="none" stroke="midnightblue" d="M313.01,-28.32C304.43,-27.14 295.64,-25.94 287.06,-24.76"/>
<polygon fill="midnightblue" stroke="midnightblue" points="312.58,-31.79 322.96,-29.68 313.53,-24.86 312.58,-31.79"/>
</g>
<!-- Node3 -->
<g id="node3" class="node">
<title>Node3</title>
<g id="a_node3"><a xlink:href="namespaceevaluate.html#a1acaf0ac9bb966c62b2f64b7bb382d11" target="_top" xlink:title=" ">
<polygon fill="white" stroke="black" points="4.5,-50 4.5,-69 109.5,-69 109.5,-50 4.5,-50"/>
<text text-anchor="middle" x="57" y="-57" font-family="Helvetica,sans-Serif" font-size="10.00">evaluate.evaluate</text>
</a>
</g>
</g>
<!-- Node2&#45;&gt;Node3 -->
<g id="edge2" class="edge">
<title>Node2&#45;&gt;Node3</title>
<path fill="none" stroke="midnightblue" d="M152.73,-59.5C138.34,-59.5 123.28,-59.5 109.51,-59.5"/>
<polygon fill="midnightblue" stroke="midnightblue" points="153.06,-63 163.06,-59.5 153.06,-56 153.06,-63"/>
</g>
<!-- Node4&#45;&gt;Node3 -->
<g id="edge4" class="edge">
<title>Node4&#45;&gt;Node3</title>
<path fill="none" stroke="midnightblue" d="M173.1,-27.75C147.64,-34.77 116.14,-43.46 92.54,-49.97"/>
<polygon fill="midnightblue" stroke="midnightblue" points="174.18,-31.08 182.89,-25.05 172.32,-24.33 174.18,-31.08"/>
</g>
<!-- Node5 -->
<g id="node5" class="node">
<title>Node5</title>
<g id="a_node5"><a xlink:href="namespacemetrics.html#a93f7195b029d432d947a4b63d23fd097" target="_top" xlink:title=" ">
<polygon fill="white" stroke="black" points="0,-0.5 0,-30.5 114,-30.5 114,-0.5 0,-0.5"/>
<text text-anchor="start" x="8" y="-18.5" font-family="Helvetica,sans-Serif" font-size="10.00">metrics.single_pose</text>
<text text-anchor="middle" x="57" y="-7.5" font-family="Helvetica,sans-Serif" font-size="10.00">_heatmaps_oks</text>
</a>
</g>
</g>
<!-- Node4&#45;&gt;Node5 -->
<g id="edge5" class="edge">
<title>Node4&#45;&gt;Node5</title>
<path fill="none" stroke="midnightblue" d="M139.77,-15.5C131.13,-15.5 122.47,-15.5 114.18,-15.5"/>
<polygon fill="midnightblue" stroke="midnightblue" points="139.86,-19 149.86,-15.5 139.86,-12 139.86,-19"/>
</g>
</g>
</svg>
