<?xml version="1.0" encoding="UTF-8" standalone="no"?>
<!DOCTYPE svg PUBLIC "-//W3C//DTD SVG 1.1//EN"
 "http://www.w3.org/Graphics/SVG/1.1/DTD/svg11.dtd">
<!-- Generated by graphviz version 2.43.0 (0)
 -->
<!-- Title: data_loader.load_dataset Pages: 1 -->
<svg width="655pt" height="88pt"
 viewBox="0.00 0.00 655.00 88.00" xmlns="http://www.w3.org/2000/svg" xmlns:xlink="http://www.w3.org/1999/xlink">
<g id="graph0" class="graph" transform="scale(1 1) rotate(0) translate(4 84)">
<title>data_loader.load_dataset</title>
<polygon fill="white" stroke="transparent" points="-4,4 -4,-84 651,-84 651,4 -4,4"/>
<!-- Node1 -->
<g id="node1" class="node">
<title>Node1</title>
<g id="a_node1"><a xlink:title=" ">
<polygon fill="#bfbfbf" stroke="black" points="0,-30 0,-49 140,-49 140,-30 0,-30"/>
<text text-anchor="middle" x="70" y="-37" font-family="Helvetica,sans-Serif" font-size="10.00">data_loader.load_dataset</text>
</a>
</g>
</g>
<!-- Node2 -->
<g id="node2" class="node">
<title>Node2</title>
<g id="a_node2"><a xlink:href="namespacedata__loader.html#aa5abe0ecef3ff61a0625128c84452a5d" target="_top" xlink:title=" ">
<polygon fill="white" stroke="black" points="181.5,-52 181.5,-71 295.5,-71 295.5,-52 181.5,-52"/>
<text text-anchor="middle" x="238.5" y="-59" font-family="Helvetica,sans-Serif" font-size="10.00">data_loader._get_ds</text>
</a>
</g>
</g>
<!-- Node1&#45;&gt;Node2 -->
<g id="edge1" class="edge">
<title>Node1&#45;&gt;Node2</title>
<path fill="none" stroke="midnightblue" d="M140.16,-48.64C150.48,-50 161.1,-51.41 171.36,-52.76"/>
<polygon fill="midnightblue" stroke="midnightblue" points="171.09,-56.26 181.47,-54.1 172.01,-49.32 171.09,-56.26"/>
</g>
<!-- Node7 -->
<g id="node7" class="node">
<title>Node7</title>
<g id="a_node7"><a xlink:href="namespacedata__loader.html#a9aacd5ef04c40893225f36a5088e7c0e" target="_top" xlink:title=" ">
<polygon fill="white" stroke="black" points="176,-2.5 176,-32.5 301,-32.5 301,-2.5 176,-2.5"/>
<text text-anchor="start" x="184" y="-20.5" font-family="Helvetica,sans-Serif" font-size="10.00">data_loader._get_train</text>
<text text-anchor="middle" x="238.5" y="-9.5" font-family="Helvetica,sans-Serif" font-size="10.00">_val_ds</text>
</a>
</g>
</g>
<!-- Node1&#45;&gt;Node7 -->
<g id="edge6" class="edge">
<title>Node1&#45;&gt;Node7</title>
<path fill="none" stroke="midnightblue" d="M140.16,-30.36C148.71,-29.23 157.45,-28.08 166.02,-26.94"/>
<polygon fill="midnightblue" stroke="midnightblue" points="166.53,-30.41 175.99,-25.63 165.62,-23.47 166.53,-30.41"/>
</g>
<!-- Node3 -->
<g id="node3" class="node">
<title>Node3</title>
<g id="a_node3"><a xlink:href="namespacedata__loader.html#aacb518b38997abe818fa7d287629e786" target="_top" xlink:title=" ">
<polygon fill="white" stroke="black" points="342,-49.5 342,-79.5 467,-79.5 467,-49.5 342,-49.5"/>
<text text-anchor="start" x="350" y="-67.5" font-family="Helvetica,sans-Serif" font-size="10.00">data_loader._get_path</text>
<text text-anchor="middle" x="404.5" y="-56.5" font-family="Helvetica,sans-Serif" font-size="10.00">_dataset</text>
</a>
</g>
</g>
<!-- Node2&#45;&gt;Node3 -->
<g id="edge2" class="edge">
<title>Node2&#45;&gt;Node3</title>
<path fill="none" stroke="midnightblue" d="M295.94,-62.53C307.52,-62.74 319.86,-62.97 331.89,-63.19"/>
<polygon fill="midnightblue" stroke="midnightblue" points="331.85,-66.69 341.91,-63.37 331.97,-59.69 331.85,-66.69"/>
</g>
<!-- Node5 -->
<g id="node5" class="node">
<title>Node5</title>
<g id="a_node5"><a xlink:href="namespacedata__loader.html#afbe478e627ff1519131e19a93f18c1ed" target="_top" xlink:title=" ">
<polygon fill="white" stroke="black" points="337,-0.5 337,-30.5 472,-30.5 472,-0.5 337,-0.5"/>
<text text-anchor="start" x="345" y="-18.5" font-family="Helvetica,sans-Serif" font-size="10.00">data_loader._preprocess</text>
<text text-anchor="middle" x="404.5" y="-7.5" font-family="Helvetica,sans-Serif" font-size="10.00">_function</text>
</a>
</g>
</g>
<!-- Node2&#45;&gt;Node5 -->
<g id="edge4" class="edge">
<title>Node2&#45;&gt;Node5</title>
<path fill="none" stroke="midnightblue" d="M273.48,-51.97C292.69,-46.58 317.32,-39.67 339.97,-33.32"/>
<polygon fill="midnightblue" stroke="midnightblue" points="341.19,-36.61 349.87,-30.54 339.3,-29.87 341.19,-36.61"/>
</g>
<!-- Node4 -->
<g id="node4" class="node">
<title>Node4</title>
<g id="a_node4"><a xlink:href="namespacedata__loader.html#aabe60973e5e3bc958aa34fa142657963" target="_top" xlink:title=" ">
<polygon fill="white" stroke="black" points="512,-49.5 512,-79.5 643,-79.5 643,-49.5 512,-49.5"/>
<text text-anchor="start" x="520" y="-67.5" font-family="Helvetica,sans-Serif" font-size="10.00">data_loader._normalize</text>
<text text-anchor="middle" x="577.5" y="-56.5" font-family="Helvetica,sans-Serif" font-size="10.00">_labels</text>
</a>
</g>
</g>
<!-- Node3&#45;&gt;Node4 -->
<g id="edge3" class="edge">
<title>Node3&#45;&gt;Node4</title>
<path fill="none" stroke="midnightblue" d="M467.23,-64.5C478.48,-64.5 490.32,-64.5 501.9,-64.5"/>
<polygon fill="midnightblue" stroke="midnightblue" points="501.97,-68 511.97,-64.5 501.97,-61 501.97,-68"/>
</g>
<!-- Node6 -->
<g id="node6" class="node">
<title>Node6</title>
<g id="a_node6"><a xlink:href="namespacedata__loader.html#a941107b6390a29d4eced4383bbc4c144" target="_top" xlink:title=" ">
<polygon fill="white" stroke="black" points="508,-0.5 508,-30.5 647,-30.5 647,-0.5 508,-0.5"/>
<text text-anchor="start" x="516" y="-18.5" font-family="Helvetica,sans-Serif" font-size="10.00">data_loader._get_padded</text>
<text text-anchor="middle" x="577.5" y="-7.5" font-family="Helvetica,sans-Serif" font-size="10.00">_labels</text>
</a>
</g>
</g>
<!-- Node5&#45;&gt;Node6 -->
<g id="edge5" class="edge">
<title>Node5&#45;&gt;Node6</title>
<path fill="none" stroke="midnightblue" d="M472.1,-15.5C480.53,-15.5 489.21,-15.5 497.8,-15.5"/>
<polygon fill="midnightblue" stroke="midnightblue" points="497.82,-19 507.82,-15.5 497.82,-12 497.82,-19"/>
</g>
<!-- Node7&#45;&gt;Node3 -->
<g id="edge7" class="edge">
<title>Node7&#45;&gt;Node3</title>
<path fill="none" stroke="midnightblue" d="M291.84,-32.5C307.52,-36.99 324.88,-41.97 341.14,-46.63"/>
<polygon fill="midnightblue" stroke="midnightblue" points="340.52,-50.09 351.09,-49.48 342.44,-43.36 340.52,-50.09"/>
</g>
<!-- Node7&#45;&gt;Node5 -->
<g id="edge8" class="edge">
<title>Node7&#45;&gt;Node5</title>
<path fill="none" stroke="midnightblue" d="M301.03,-16.75C309.46,-16.65 318.2,-16.54 326.85,-16.43"/>
<polygon fill="midnightblue" stroke="midnightblue" points="327,-19.93 336.95,-16.31 326.91,-12.93 327,-19.93"/>
</g>
</g>
</svg>
