<?xml version="1.0" encoding="UTF-8" standalone="no"?>
<!DOCTYPE svg PUBLIC "-//W3C//DTD SVG 1.1//EN"
 "http://www.w3.org/Graphics/SVG/1.1/DTD/svg11.dtd">
<!-- Generated by graphviz version 2.43.0 (0)
 -->
<!-- Title: display_mpe.c Pages: 1 -->
<svg width="813pt" height="196pt"
 viewBox="0.00 0.00 812.50 196.00" xmlns="http://www.w3.org/2000/svg" xmlns:xlink="http://www.w3.org/1999/xlink">
<g id="graph0" class="graph" transform="scale(1 1) rotate(0) translate(4 192)">
<title>display_mpe.c</title>
<polygon fill="white" stroke="transparent" points="-4,4 -4,-192 808.5,-192 808.5,4 -4,4"/>
<!-- Node1 -->
<g id="node1" class="node">
<title>Node1</title>
<g id="a_node1"><a xlink:title=" ">
<polygon fill="#bfbfbf" stroke="black" points="466.5,-168.5 466.5,-187.5 553.5,-187.5 553.5,-168.5 466.5,-168.5"/>
<text text-anchor="middle" x="510" y="-175.5" font-family="Helvetica,sans-Serif" font-size="10.00">display_mpe.c</text>
</a>
</g>
</g>
<!-- Node2 -->
<g id="node2" class="node">
<title>Node2</title>
<g id="a_node2"><a xlink:href="display__mpe_8h.html" target="_top" xlink:title=" ">
<polygon fill="white" stroke="black" points="145,-112.5 145,-131.5 233,-131.5 233,-112.5 145,-112.5"/>
<text text-anchor="middle" x="189" y="-119.5" font-family="Helvetica,sans-Serif" font-size="10.00">display_mpe.h</text>
</a>
</g>
</g>
<!-- Node1&#45;&gt;Node2 -->
<g id="edge1" class="edge">
<title>Node1&#45;&gt;Node2</title>
<path fill="none" stroke="midnightblue" d="M466.37,-169.66C408.4,-159.91 306.01,-142.68 243.16,-132.11"/>
<polygon fill="midnightblue" stroke="midnightblue" points="243.49,-128.62 233.05,-130.41 242.33,-135.52 243.49,-128.62"/>
</g>
<!-- Node5 -->
<g id="node5" class="node">
<title>Node5</title>
<g id="a_node5"><a xlink:href="app__config_8h.html" target="_top" xlink:title="Central configuration header for the STM32N6570&#45;DK pose estimation firmware application.">
<polygon fill="white" stroke="black" points="257,-112.5 257,-131.5 335,-131.5 335,-112.5 257,-112.5"/>
<text text-anchor="middle" x="296" y="-119.5" font-family="Helvetica,sans-Serif" font-size="10.00">app_config.h</text>
</a>
</g>
</g>
<!-- Node1&#45;&gt;Node5 -->
<g id="edge4" class="edge">
<title>Node1&#45;&gt;Node5</title>
<path fill="none" stroke="midnightblue" d="M476.09,-168.44C439.15,-159.12 379.95,-144.18 339.58,-134"/>
<polygon fill="midnightblue" stroke="midnightblue" points="340.3,-130.57 329.75,-131.52 338.59,-137.36 340.3,-130.57"/>
</g>
<!-- Node7 -->
<g id="node7" class="node">
<title>Node7</title>
<g id="a_node7"><a xlink:href="main_8h.html" target="_top" xlink:title=" ">
<polygon fill="white" stroke="black" points="371,-56.5 371,-75.5 421,-75.5 421,-56.5 371,-56.5"/>
<text text-anchor="middle" x="396" y="-63.5" font-family="Helvetica,sans-Serif" font-size="10.00">main.h</text>
</a>
</g>
</g>
<!-- Node1&#45;&gt;Node7 -->
<g id="edge6" class="edge">
<title>Node1&#45;&gt;Node7</title>
<path fill="none" stroke="midnightblue" d="M466.4,-174.18C437.3,-169.77 401,-158.81 382,-132 372.23,-118.21 378.22,-98.92 385.13,-84.94"/>
<polygon fill="midnightblue" stroke="midnightblue" points="388.38,-86.31 390.12,-75.86 382.24,-82.94 388.38,-86.31"/>
</g>
<!-- Node10 -->
<g id="node10" class="node">
<title>Node10</title>
<g id="a_node10"><a xlink:href="display__keypoints__17_8h.html" target="_top" xlink:title=" ">
<polygon fill="white" stroke="black" points="391.5,-112.5 391.5,-131.5 522.5,-131.5 522.5,-112.5 391.5,-112.5"/>
<text text-anchor="middle" x="457" y="-119.5" font-family="Helvetica,sans-Serif" font-size="10.00">display_keypoints_17.h</text>
</a>
</g>
</g>
<!-- Node1&#45;&gt;Node10 -->
<g id="edge9" class="edge">
<title>Node1&#45;&gt;Node10</title>
<path fill="none" stroke="midnightblue" d="M501.25,-168.08C493.53,-160.22 482.1,-148.57 472.78,-139.08"/>
<polygon fill="midnightblue" stroke="midnightblue" points="475.09,-136.44 465.59,-131.75 470.1,-141.34 475.09,-136.44"/>
</g>
<!-- Node11 -->
<g id="node11" class="node">
<title>Node11</title>
<g id="a_node11"><a xlink:href="utils_8h.html" target="_top" xlink:title=" ">
<polygon fill="white" stroke="black" points="540.5,-112.5 540.5,-131.5 587.5,-131.5 587.5,-112.5 540.5,-112.5"/>
<text text-anchor="middle" x="564" y="-119.5" font-family="Helvetica,sans-Serif" font-size="10.00">utils.h</text>
</a>
</g>
</g>
<!-- Node1&#45;&gt;Node11 -->
<g id="edge12" class="edge">
<title>Node1&#45;&gt;Node11</title>
<path fill="none" stroke="midnightblue" d="M518.92,-168.08C526.78,-160.22 538.43,-148.57 547.92,-139.08"/>
<polygon fill="midnightblue" stroke="midnightblue" points="550.65,-141.3 555.25,-131.75 545.7,-136.35 550.65,-141.3"/>
</g>
<!-- Node12 -->
<g id="node12" class="node">
<title>Node12</title>
<g id="a_node12"><a xlink:title=" ">
<polygon fill="white" stroke="#bfbfbf" points="606,-112.5 606,-131.5 662,-131.5 662,-112.5 606,-112.5"/>
<text text-anchor="middle" x="634" y="-119.5" font-family="Helvetica,sans-Serif" font-size="10.00">assert.h</text>
</a>
</g>
</g>
<!-- Node1&#45;&gt;Node12 -->
<g id="edge13" class="edge">
<title>Node1&#45;&gt;Node12</title>
<path fill="none" stroke="midnightblue" d="M529.65,-168.44C549.96,-159.6 581.9,-145.69 605.1,-135.59"/>
<polygon fill="midnightblue" stroke="midnightblue" points="606.67,-138.72 614.44,-131.52 603.88,-132.3 606.67,-138.72"/>
</g>
<!-- Node13 -->
<g id="node13" class="node">
<title>Node13</title>
<g id="a_node13"><a xlink:title=" ">
<polygon fill="white" stroke="#bfbfbf" points="680.5,-112.5 680.5,-131.5 733.5,-131.5 733.5,-112.5 680.5,-112.5"/>
<text text-anchor="middle" x="707" y="-119.5" font-family="Helvetica,sans-Serif" font-size="10.00">stdlib.h</text>
</a>
</g>
</g>
<!-- Node1&#45;&gt;Node13 -->
<g id="edge14" class="edge">
<title>Node1&#45;&gt;Node13</title>
<path fill="none" stroke="midnightblue" d="M541.22,-168.44C576.32,-158.82 633.27,-143.21 670.43,-133.02"/>
<polygon fill="midnightblue" stroke="midnightblue" points="671.63,-136.32 680.35,-130.3 669.78,-129.57 671.63,-136.32"/>
</g>
<!-- Node14 -->
<g id="node14" class="node">
<title>Node14</title>
<g id="a_node14"><a xlink:title=" ">
<polygon fill="white" stroke="#bfbfbf" points="751.5,-112.5 751.5,-131.5 804.5,-131.5 804.5,-112.5 751.5,-112.5"/>
<text text-anchor="middle" x="778" y="-119.5" font-family="Helvetica,sans-Serif" font-size="10.00">stdint.h</text>
</a>
</g>
</g>
<!-- Node1&#45;&gt;Node14 -->
<g id="edge15" class="edge">
<title>Node1&#45;&gt;Node14</title>
<path fill="none" stroke="midnightblue" d="M553.54,-169.41C598.36,-161.41 670.44,-148.05 741.3,-132.29"/>
<polygon fill="midnightblue" stroke="midnightblue" points="742.3,-135.65 751.29,-130.05 740.76,-128.82 742.3,-135.65"/>
</g>
<!-- Node3 -->
<g id="node3" class="node">
<title>Node3</title>
<g id="a_node3"><a xlink:title=" ">
<polygon fill="white" stroke="#bfbfbf" points="0,-56.5 0,-75.5 114,-75.5 114,-56.5 0,-56.5"/>
<text text-anchor="middle" x="57" y="-63.5" font-family="Helvetica,sans-Serif" font-size="10.00">mpe_yolov8_pp_if.h</text>
</a>
</g>
</g>
<!-- Node2&#45;&gt;Node3 -->
<g id="edge2" class="edge">
<title>Node2&#45;&gt;Node3</title>
<path fill="none" stroke="midnightblue" d="M168.08,-112.44C146.26,-103.52 111.85,-89.44 87.11,-79.32"/>
<polygon fill="midnightblue" stroke="midnightblue" points="88.4,-76.06 77.82,-75.52 85.75,-82.54 88.4,-76.06"/>
</g>
<!-- Node4 -->
<g id="node4" class="node">
<title>Node4</title>
<g id="a_node4"><a xlink:title=" ">
<polygon fill="white" stroke="#bfbfbf" points="132.5,-56.5 132.5,-75.5 245.5,-75.5 245.5,-56.5 132.5,-56.5"/>
<text text-anchor="middle" x="189" y="-63.5" font-family="Helvetica,sans-Serif" font-size="10.00">mpe_pp_output_if.h</text>
</a>
</g>
</g>
<!-- Node2&#45;&gt;Node4 -->
<g id="edge3" class="edge">
<title>Node2&#45;&gt;Node4</title>
<path fill="none" stroke="midnightblue" d="M189,-112.08C189,-105.01 189,-94.86 189,-85.99"/>
<polygon fill="midnightblue" stroke="midnightblue" points="192.5,-85.75 189,-75.75 185.5,-85.75 192.5,-85.75"/>
</g>
<!-- Node6 -->
<g id="node6" class="node">
<title>Node6</title>
<g id="a_node6"><a xlink:title=" ">
<polygon fill="white" stroke="#bfbfbf" points="264,-56.5 264,-75.5 340,-75.5 340,-56.5 264,-56.5"/>
<text text-anchor="middle" x="302" y="-63.5" font-family="Helvetica,sans-Serif" font-size="10.00">arm_math.h</text>
</a>
</g>
</g>
<!-- Node5&#45;&gt;Node6 -->
<g id="edge5" class="edge">
<title>Node5&#45;&gt;Node6</title>
<path fill="none" stroke="midnightblue" d="M296.99,-112.08C297.79,-104.93 298.93,-94.64 299.92,-85.69"/>
<polygon fill="midnightblue" stroke="midnightblue" points="303.4,-86.08 301.03,-75.75 296.44,-85.3 303.4,-86.08"/>
</g>
<!-- Node8 -->
<g id="node8" class="node">
<title>Node8</title>
<g id="a_node8"><a xlink:title=" ">
<polygon fill="white" stroke="#bfbfbf" points="299.5,-0.5 299.5,-19.5 400.5,-19.5 400.5,-0.5 299.5,-0.5"/>
<text text-anchor="middle" x="350" y="-7.5" font-family="Helvetica,sans-Serif" font-size="10.00">stm32n6xx_hal.h</text>
</a>
</g>
</g>
<!-- Node7&#45;&gt;Node8 -->
<g id="edge7" class="edge">
<title>Node7&#45;&gt;Node8</title>
<path fill="none" stroke="midnightblue" d="M388.4,-56.08C381.77,-48.3 371.98,-36.8 363.94,-27.37"/>
<polygon fill="midnightblue" stroke="midnightblue" points="366.6,-25.09 357.45,-19.75 361.27,-29.63 366.6,-25.09"/>
</g>
<!-- Node9 -->
<g id="node9" class="node">
<title>Node9</title>
<g id="a_node9"><a xlink:title=" ">
<polygon fill="white" stroke="#bfbfbf" points="419,-0.5 419,-19.5 495,-19.5 495,-0.5 419,-0.5"/>
<text text-anchor="middle" x="457" y="-7.5" font-family="Helvetica,sans-Serif" font-size="10.00">stm32_lcd.h</text>
</a>
</g>
</g>
<!-- Node7&#45;&gt;Node9 -->
<g id="edge8" class="edge">
<title>Node7&#45;&gt;Node9</title>
<path fill="none" stroke="midnightblue" d="M405.8,-56.32C414.82,-48.34 428.41,-36.31 439.32,-26.65"/>
<polygon fill="midnightblue" stroke="midnightblue" points="441.85,-29.08 447.02,-19.83 437.21,-23.84 441.85,-29.08"/>
</g>
<!-- Node10&#45;&gt;Node7 -->
<g id="edge10" class="edge">
<title>Node10&#45;&gt;Node7</title>
<path fill="none" stroke="midnightblue" d="M447.2,-112.32C438.18,-104.34 424.59,-92.31 413.68,-82.65"/>
<polygon fill="midnightblue" stroke="midnightblue" points="415.79,-79.84 405.98,-75.83 411.15,-85.08 415.79,-79.84"/>
</g>
<!-- Node10&#45;&gt;Node9 -->
<g id="edge11" class="edge">
<title>Node10&#45;&gt;Node9</title>
<path fill="none" stroke="midnightblue" d="M457,-112.37C457,-94.62 457,-53.67 457,-29.6"/>
<polygon fill="midnightblue" stroke="midnightblue" points="460.5,-29.59 457,-19.59 453.5,-29.59 460.5,-29.59"/>
</g>
</g>
</svg>
