<?xml version="1.0" encoding="UTF-8" standalone="no"?>
<!DOCTYPE svg PUBLIC "-//W3C//DTD SVG 1.1//EN"
 "http://www.w3.org/Graphics/SVG/1.1/DTD/svg11.dtd">
<!-- Generated by graphviz version 2.43.0 (0)
 -->
<!-- Title: evaluate.evaluate Pages: 1 -->
<svg width="511pt" height="340pt"
 viewBox="0.00 0.00 511.00 340.00" xmlns="http://www.w3.org/2000/svg" xmlns:xlink="http://www.w3.org/1999/xlink">
<g id="graph0" class="graph" transform="scale(1 1) rotate(0) translate(4 336)">
<title>evaluate.evaluate</title>
<polygon fill="white" stroke="transparent" points="-4,4 -4,-336 507,-336 507,4 -4,4"/>
<!-- Node1 -->
<g id="node1" class="node">
<title>Node1</title>
<g id="a_node1"><a xlink:title=" ">
<polygon fill="#bfbfbf" stroke="black" points="0,-156 0,-175 105,-175 105,-156 0,-156"/>
<text text-anchor="middle" x="52.5" y="-163" font-family="Helvetica,sans-Serif" font-size="10.00">evaluate.evaluate</text>
</a>
</g>
</g>
<!-- Node2 -->
<g id="node2" class="node">
<title>Node2</title>
<g id="a_node2"><a xlink:href="namespacemodels__mgt.html#a23b2d6b3743ba2c428005b7d2714a8f1" target="_top" xlink:title=" ">
<polygon fill="white" stroke="black" points="157.5,-301.5 157.5,-331.5 283.5,-331.5 283.5,-301.5 157.5,-301.5"/>
<text text-anchor="start" x="165.5" y="-319.5" font-family="Helvetica,sans-Serif" font-size="10.00">models_mgt.ai_runner</text>
<text text-anchor="middle" x="220.5" y="-308.5" font-family="Helvetica,sans-Serif" font-size="10.00">_invoke</text>
</a>
</g>
</g>
<!-- Node1&#45;&gt;Node2 -->
<g id="edge1" class="edge">
<title>Node1&#45;&gt;Node2</title>
<path fill="none" stroke="midnightblue" d="M57.61,-175.34C67.97,-198.97 97.51,-259.38 141,-291.5 143.51,-293.35 146.16,-295.07 148.91,-296.66"/>
<polygon fill="midnightblue" stroke="midnightblue" points="147.48,-299.87 157.98,-301.34 150.69,-293.64 147.48,-299.87"/>
</g>
<!-- Node3 -->
<g id="node3" class="node">
<title>Node3</title>
<g id="a_node3"><a xlink:href="namespacepreprocess.html#af03c5fb6530b8d1d64891dbe4e62f3dd" target="_top" xlink:title=" ">
<polygon fill="white" stroke="black" points="146,-263 146,-282 295,-282 295,-263 146,-263"/>
<text text-anchor="middle" x="220.5" y="-270" font-family="Helvetica,sans-Serif" font-size="10.00">preprocess.apply_rescaling</text>
</a>
</g>
</g>
<!-- Node1&#45;&gt;Node3 -->
<g id="edge2" class="edge">
<title>Node1&#45;&gt;Node3</title>
<path fill="none" stroke="midnightblue" d="M60.21,-175.16C73.43,-193.44 104.77,-233.1 141,-253.5 144.96,-255.73 149.17,-257.7 153.5,-259.43"/>
<polygon fill="midnightblue" stroke="midnightblue" points="152.56,-262.81 163.15,-262.88 154.92,-256.22 152.56,-262.81"/>
</g>
<!-- Node4 -->
<g id="node4" class="node">
<title>Node4</title>
<g id="a_node4"><a xlink:href="namespacemetrics.html#a0872de6e6341f9b6a56b60831b70df98" target="_top" xlink:title=" ">
<polygon fill="white" stroke="black" points="162.5,-225 162.5,-244 278.5,-244 278.5,-225 162.5,-225"/>
<text text-anchor="middle" x="220.5" y="-232" font-family="Helvetica,sans-Serif" font-size="10.00">metrics.compute_ap</text>
</a>
</g>
</g>
<!-- Node1&#45;&gt;Node4 -->
<g id="edge3" class="edge">
<title>Node1&#45;&gt;Node4</title>
<path fill="none" stroke="midnightblue" d="M67.43,-175.12C84.19,-186.29 113.52,-204.58 141,-215.5 147.3,-218.01 154.03,-220.24 160.79,-222.22"/>
<polygon fill="midnightblue" stroke="midnightblue" points="160.11,-225.66 170.68,-224.94 161.96,-218.92 160.11,-225.66"/>
</g>
<!-- Node7 -->
<g id="node7" class="node">
<title>Node7</title>
<g id="a_node7"><a xlink:href="namespacepostprocess.html#a0742b962e1b9fbe56a8fd36ce06deb7f" target="_top" xlink:title=" ">
<polygon fill="white" stroke="black" points="157,-175.5 157,-205.5 284,-205.5 284,-175.5 157,-175.5"/>
<text text-anchor="start" x="165" y="-193.5" font-family="Helvetica,sans-Serif" font-size="10.00">postprocess.heatmaps</text>
<text text-anchor="middle" x="220.5" y="-182.5" font-family="Helvetica,sans-Serif" font-size="10.00">_spe_postprocess</text>
</a>
</g>
</g>
<!-- Node1&#45;&gt;Node7 -->
<g id="edge6" class="edge">
<title>Node1&#45;&gt;Node7</title>
<path fill="none" stroke="midnightblue" d="M105.11,-173.27C118.29,-175.26 132.7,-177.43 146.71,-179.54"/>
<polygon fill="midnightblue" stroke="midnightblue" points="146.41,-183.03 156.82,-181.06 147.46,-176.11 146.41,-183.03"/>
</g>
<!-- Node8 -->
<g id="node8" class="node">
<title>Node8</title>
<g id="a_node8"><a xlink:href="namespacemetrics.html#a6905112a93d68a0eaf83c34db9c39a59" target="_top" xlink:title=" ">
<polygon fill="white" stroke="black" points="165.5,-126.5 165.5,-156.5 275.5,-156.5 275.5,-126.5 165.5,-126.5"/>
<text text-anchor="start" x="173.5" y="-144.5" font-family="Helvetica,sans-Serif" font-size="10.00">metrics.multi_pose</text>
<text text-anchor="middle" x="220.5" y="-133.5" font-family="Helvetica,sans-Serif" font-size="10.00">_oks_mAP</text>
</a>
</g>
</g>
<!-- Node1&#45;&gt;Node8 -->
<g id="edge7" class="edge">
<title>Node1&#45;&gt;Node8</title>
<path fill="none" stroke="midnightblue" d="M105.11,-158.04C120.96,-155.75 138.59,-153.2 155.17,-150.8"/>
<polygon fill="midnightblue" stroke="midnightblue" points="155.94,-154.23 165.33,-149.33 154.94,-147.3 155.94,-154.23"/>
</g>
<!-- Node12 -->
<g id="node12" class="node">
<title>Node12</title>
<g id="a_node12"><a xlink:href="namespacemetrics.html#ae800bb6958465b58ae78008edc212cb0" target="_top" xlink:title=" ">
<polygon fill="white" stroke="black" points="152,-88 152,-107 289,-107 289,-88 152,-88"/>
<text text-anchor="middle" x="220.5" y="-95" font-family="Helvetica,sans-Serif" font-size="10.00">metrics.single_pose_oks</text>
</a>
</g>
</g>
<!-- Node1&#45;&gt;Node12 -->
<g id="edge11" class="edge">
<title>Node1&#45;&gt;Node12</title>
<path fill="none" stroke="midnightblue" d="M68.11,-155.98C85.05,-145.31 114.08,-128.11 141,-117.5 148.36,-114.6 156.27,-112.01 164.15,-109.73"/>
<polygon fill="midnightblue" stroke="midnightblue" points="165.33,-113.03 174.05,-107.01 163.48,-106.28 165.33,-113.03"/>
</g>
<!-- Node13 -->
<g id="node13" class="node">
<title>Node13</title>
<g id="a_node13"><a xlink:href="namespacepostprocess.html#aee4084fd736dcdeaaa52b97477a9702b" target="_top" xlink:title=" ">
<polygon fill="white" stroke="black" points="141,-50 141,-69 300,-69 300,-50 141,-50"/>
<text text-anchor="middle" x="220.5" y="-57" font-family="Helvetica,sans-Serif" font-size="10.00">postprocess.spe_postprocess</text>
</a>
</g>
</g>
<!-- Node1&#45;&gt;Node13 -->
<g id="edge14" class="edge">
<title>Node1&#45;&gt;Node13</title>
<path fill="none" stroke="midnightblue" d="M60.23,-155.95C73.51,-137.88 104.92,-98.68 141,-78.5 145.14,-76.18 149.56,-74.15 154.11,-72.36"/>
<polygon fill="midnightblue" stroke="midnightblue" points="155.32,-75.64 163.59,-69.02 152.99,-69.04 155.32,-75.64"/>
</g>
<!-- Node14 -->
<g id="node14" class="node">
<title>Node14</title>
<g id="a_node14"><a xlink:href="namespacepostprocess.html#a2fd132e0f455e9655f075c1a68c1806d" target="_top" xlink:title=" ">
<polygon fill="white" stroke="black" points="157.5,-0.5 157.5,-30.5 283.5,-30.5 283.5,-0.5 157.5,-0.5"/>
<text text-anchor="start" x="165.5" y="-18.5" font-family="Helvetica,sans-Serif" font-size="10.00">postprocess.yolo_mpe</text>
<text text-anchor="middle" x="220.5" y="-7.5" font-family="Helvetica,sans-Serif" font-size="10.00">_postprocess</text>
</a>
</g>
</g>
<!-- Node1&#45;&gt;Node14 -->
<g id="edge15" class="edge">
<title>Node1&#45;&gt;Node14</title>
<path fill="none" stroke="midnightblue" d="M57.63,-155.74C68.04,-132.29 97.68,-72.36 141,-40.5 143.51,-38.65 146.16,-36.94 148.92,-35.35"/>
<polygon fill="midnightblue" stroke="midnightblue" points="150.7,-38.37 157.99,-30.68 147.5,-32.14 150.7,-38.37"/>
</g>
<!-- Node5 -->
<g id="node5" class="node">
<title>Node5</title>
<g id="a_node5"><a xlink:href="namespacemetrics.html#a0002c28329df988e37ffc0785b6952b5" target="_top" xlink:title=" ">
<polygon fill="white" stroke="black" points="380,-263 380,-282 459,-282 459,-263 380,-263"/>
<text text-anchor="middle" x="419.5" y="-270" font-family="Helvetica,sans-Serif" font-size="10.00">metrics._auc</text>
</a>
</g>
</g>
<!-- Node4&#45;&gt;Node5 -->
<g id="edge4" class="edge">
<title>Node4&#45;&gt;Node5</title>
<path fill="none" stroke="midnightblue" d="M270.96,-244.04C301.27,-249.89 339.9,-257.34 370.02,-263.15"/>
<polygon fill="midnightblue" stroke="midnightblue" points="369.41,-266.6 379.89,-265.05 370.74,-259.72 369.41,-266.6"/>
</g>
<!-- Node6 -->
<g id="node6" class="node">
<title>Node6</title>
<g id="a_node6"><a xlink:href="namespacemetrics.html#a2dd587d9f052b3a91188ed532308ecd0" target="_top" xlink:title=" ">
<polygon fill="white" stroke="black" points="366.5,-213.5 366.5,-243.5 472.5,-243.5 472.5,-213.5 366.5,-213.5"/>
<text text-anchor="start" x="374.5" y="-231.5" font-family="Helvetica,sans-Serif" font-size="10.00">metrics._precision</text>
<text text-anchor="middle" x="419.5" y="-220.5" font-family="Helvetica,sans-Serif" font-size="10.00">_recall</text>
</a>
</g>
</g>
<!-- Node4&#45;&gt;Node6 -->
<g id="edge5" class="edge">
<title>Node4&#45;&gt;Node6</title>
<path fill="none" stroke="midnightblue" d="M278.75,-232.76C303.11,-232.01 331.58,-231.15 356.45,-230.39"/>
<polygon fill="midnightblue" stroke="midnightblue" points="356.61,-233.89 366.5,-230.08 356.4,-226.89 356.61,-233.89"/>
</g>
<!-- Node9 -->
<g id="node9" class="node">
<title>Node9</title>
<g id="a_node9"><a xlink:href="namespacemetrics.html#afcee9efd052c77e4f53877b2a912e8b5" target="_top" xlink:title=" ">
<polygon fill="white" stroke="black" points="336,-170 336,-189 503,-189 503,-170 336,-170"/>
<text text-anchor="middle" x="419.5" y="-177" font-family="Helvetica,sans-Serif" font-size="10.00">metrics._matching_predictions</text>
</a>
</g>
</g>
<!-- Node8&#45;&gt;Node9 -->
<g id="edge8" class="edge">
<title>Node8&#45;&gt;Node9</title>
<path fill="none" stroke="midnightblue" d="M275.59,-151.93C301.55,-156.94 332.71,-162.95 359.3,-168.08"/>
<polygon fill="midnightblue" stroke="midnightblue" points="358.77,-171.54 369.25,-170 360.09,-164.67 358.77,-171.54"/>
</g>
<!-- Node10 -->
<g id="node10" class="node">
<title>Node10</title>
<g id="a_node10"><a xlink:href="namespacemetrics.html#ac634edf984073c1f09a574c6fa217738" target="_top" xlink:title=" ">
<polygon fill="white" stroke="black" points="361.5,-132 361.5,-151 477.5,-151 477.5,-132 361.5,-132"/>
<text text-anchor="middle" x="419.5" y="-139" font-family="Helvetica,sans-Serif" font-size="10.00">metrics._oks_matrix</text>
</a>
</g>
</g>
<!-- Node8&#45;&gt;Node10 -->
<g id="edge9" class="edge">
<title>Node8&#45;&gt;Node10</title>
<path fill="none" stroke="midnightblue" d="M275.59,-141.5C299.02,-141.5 326.68,-141.5 351.4,-141.5"/>
<polygon fill="midnightblue" stroke="midnightblue" points="351.43,-145 361.43,-141.5 351.43,-138 351.43,-145"/>
</g>
<!-- Node11 -->
<g id="node11" class="node">
<title>Node11</title>
<g id="a_node11"><a xlink:href="namespacemetrics.html#a9aba1f16408cadc45e4fdfe24e44b7af" target="_top" xlink:title=" ">
<polygon fill="white" stroke="black" points="363.5,-82.5 363.5,-112.5 475.5,-112.5 475.5,-82.5 363.5,-82.5"/>
<text text-anchor="start" x="371.5" y="-100.5" font-family="Helvetica,sans-Serif" font-size="10.00">metrics._pose_area</text>
<text text-anchor="middle" x="419.5" y="-89.5" font-family="Helvetica,sans-Serif" font-size="10.00">_calculation</text>
</a>
</g>
</g>
<!-- Node8&#45;&gt;Node11 -->
<g id="edge10" class="edge">
<title>Node8&#45;&gt;Node11</title>
<path fill="none" stroke="midnightblue" d="M275.59,-129.42C299.62,-124.05 328.12,-117.69 353.32,-112.06"/>
<polygon fill="midnightblue" stroke="midnightblue" points="354.16,-115.46 363.16,-109.86 352.64,-108.62 354.16,-115.46"/>
</g>
<!-- Node12&#45;&gt;Node10 -->
<g id="edge12" class="edge">
<title>Node12&#45;&gt;Node10</title>
<path fill="none" stroke="midnightblue" d="M264.25,-107.05C294.06,-113.71 334.04,-122.64 365.83,-129.74"/>
<polygon fill="midnightblue" stroke="midnightblue" points="365.31,-133.21 375.84,-131.97 366.84,-126.38 365.31,-133.21"/>
</g>
<!-- Node12&#45;&gt;Node11 -->
<g id="edge13" class="edge">
<title>Node12&#45;&gt;Node11</title>
<path fill="none" stroke="midnightblue" d="M289.02,-97.5C309.79,-97.5 332.61,-97.5 353.23,-97.5"/>
<polygon fill="midnightblue" stroke="midnightblue" points="353.47,-101 363.47,-97.5 353.47,-94 353.47,-101"/>
</g>
<!-- Node15 -->
<g id="node15" class="node">
<title>Node15</title>
<g id="a_node15"><a xlink:href="namespacepostprocess.html#a3860665aaa506ef9e446635044d1ccba" target="_top" xlink:title=" ">
<polygon fill="white" stroke="black" points="346.5,-6 346.5,-25 492.5,-25 492.5,-6 346.5,-6"/>
<text text-anchor="middle" x="419.5" y="-13" font-family="Helvetica,sans-Serif" font-size="10.00">postprocess._padded_nms</text>
</a>
</g>
</g>
<!-- Node14&#45;&gt;Node15 -->
<g id="edge16" class="edge">
<title>Node14&#45;&gt;Node15</title>
<path fill="none" stroke="midnightblue" d="M283.56,-15.5C300.25,-15.5 318.56,-15.5 336.16,-15.5"/>
<polygon fill="midnightblue" stroke="midnightblue" points="336.43,-19 346.43,-15.5 336.43,-12 336.43,-19"/>
</g>
</g>
</svg>
