<?xml version="1.0" encoding="UTF-8" standalone="no"?>
<!DOCTYPE svg PUBLIC "-//W3C//DTD SVG 1.1//EN"
 "http://www.w3.org/Graphics/SVG/1.1/DTD/svg11.dtd">
<!-- Generated by graphviz version 2.43.0 (0)
 -->
<!-- Title: data_loader._get_ds Pages: 1 -->
<svg width="460pt" height="28pt"
 viewBox="0.00 0.00 460.00 28.00" xmlns="http://www.w3.org/2000/svg" xmlns:xlink="http://www.w3.org/1999/xlink">
<g id="graph0" class="graph" transform="scale(1 1) rotate(0) translate(4 24)">
<title>data_loader._get_ds</title>
<polygon fill="white" stroke="transparent" points="-4,4 -4,-24 456,-24 456,4 -4,4"/>
<!-- Node1 -->
<g id="node1" class="node">
<title>Node1</title>
<g id="a_node1"><a xlink:title=" ">
<polygon fill="#bfbfbf" stroke="black" points="338,-0.5 338,-19.5 452,-19.5 452,-0.5 338,-0.5"/>
<text text-anchor="middle" x="395" y="-7.5" font-family="Helvetica,sans-Serif" font-size="10.00">data_loader._get_ds</text>
</a>
</g>
</g>
<!-- Node2 -->
<g id="node2" class="node">
<title>Node2</title>
<g id="a_node2"><a xlink:href="namespacedata__loader.html#a2a79d830a8a311a7c7946d45c3d834a3" target="_top" xlink:title=" ">
<polygon fill="white" stroke="black" points="162,-0.5 162,-19.5 302,-19.5 302,-0.5 162,-0.5"/>
<text text-anchor="middle" x="232" y="-7.5" font-family="Helvetica,sans-Serif" font-size="10.00">data_loader.load_dataset</text>
</a>
</g>
</g>
<!-- Node1&#45;&gt;Node2 -->
<g id="edge1" class="edge">
<title>Node1&#45;&gt;Node2</title>
<path fill="none" stroke="midnightblue" d="M327.55,-10C319.12,-10 310.49,-10 302.03,-10"/>
<polygon fill="midnightblue" stroke="midnightblue" points="327.69,-13.5 337.69,-10 327.69,-6.5 327.69,-13.5"/>
</g>
<!-- Node3 -->
<g id="node3" class="node">
<title>Node3</title>
<g id="a_node3"><a xlink:href="namespacepreprocess.html#a64f651cc0d35bc20aadcef1c3a184a2a" target="_top" xlink:title=" ">
<polygon fill="white" stroke="black" points="0,-0.5 0,-19.5 126,-19.5 126,-0.5 0,-0.5"/>
<text text-anchor="middle" x="63" y="-7.5" font-family="Helvetica,sans-Serif" font-size="10.00">preprocess.preprocess</text>
</a>
</g>
</g>
<!-- Node2&#45;&gt;Node3 -->
<g id="edge2" class="edge">
<title>Node2&#45;&gt;Node3</title>
<path fill="none" stroke="midnightblue" d="M151.37,-10C142.93,-10 134.43,-10 126.22,-10"/>
<polygon fill="midnightblue" stroke="midnightblue" points="151.63,-13.5 161.63,-10 151.63,-6.5 151.63,-13.5"/>
</g>
</g>
</svg>
