<?xml version="1.0" encoding="UTF-8" standalone="no"?>
<!DOCTYPE svg PUBLIC "-//W3C//DTD SVG 1.1//EN"
 "http://www.w3.org/Graphics/SVG/1.1/DTD/svg11.dtd">
<!-- Generated by graphviz version 2.43.0 (0)
 -->
<!-- Title: metrics.single_pose_heatmaps_oks Pages: 1 -->
<svg width="447pt" height="105pt"
 viewBox="0.00 0.00 447.00 105.00" xmlns="http://www.w3.org/2000/svg" xmlns:xlink="http://www.w3.org/1999/xlink">
<g id="graph0" class="graph" transform="scale(1 1) rotate(0) translate(4 101)">
<title>metrics.single_pose_heatmaps_oks</title>
<polygon fill="white" stroke="transparent" points="-4,4 -4,-101 443,-101 443,4 -4,4"/>
<!-- Node1 -->
<g id="node1" class="node">
<title>Node1</title>
<g id="a_node1"><a xlink:title=" ">
<polygon fill="#bfbfbf" stroke="black" points="0,-44.5 0,-74.5 114,-74.5 114,-44.5 0,-44.5"/>
<text text-anchor="start" x="8" y="-62.5" font-family="Helvetica,sans-Serif" font-size="10.00">metrics.single_pose</text>
<text text-anchor="middle" x="57" y="-51.5" font-family="Helvetica,sans-Serif" font-size="10.00">_heatmaps_oks</text>
</a>
</g>
</g>
<!-- Node2 -->
<g id="node2" class="node">
<title>Node2</title>
<g id="a_node2"><a xlink:href="namespacepostprocess.html#a0742b962e1b9fbe56a8fd36ce06deb7f" target="_top" xlink:title=" ">
<polygon fill="white" stroke="black" points="155,-66.5 155,-96.5 282,-96.5 282,-66.5 155,-66.5"/>
<text text-anchor="start" x="163" y="-84.5" font-family="Helvetica,sans-Serif" font-size="10.00">postprocess.heatmaps</text>
<text text-anchor="middle" x="218.5" y="-73.5" font-family="Helvetica,sans-Serif" font-size="10.00">_spe_postprocess</text>
</a>
</g>
</g>
<!-- Node1&#45;&gt;Node2 -->
<g id="edge1" class="edge">
<title>Node1&#45;&gt;Node2</title>
<path fill="none" stroke="midnightblue" d="M114.23,-67.26C124.12,-68.62 134.54,-70.06 144.8,-71.47"/>
<polygon fill="midnightblue" stroke="midnightblue" points="144.6,-74.98 154.98,-72.88 145.56,-68.04 144.6,-74.98"/>
</g>
<!-- Node3 -->
<g id="node3" class="node">
<title>Node3</title>
<g id="a_node3"><a xlink:href="namespacemetrics.html#ae800bb6958465b58ae78008edc212cb0" target="_top" xlink:title=" ">
<polygon fill="white" stroke="black" points="150,-28 150,-47 287,-47 287,-28 150,-28"/>
<text text-anchor="middle" x="218.5" y="-35" font-family="Helvetica,sans-Serif" font-size="10.00">metrics.single_pose_oks</text>
</a>
</g>
</g>
<!-- Node1&#45;&gt;Node3 -->
<g id="edge2" class="edge">
<title>Node1&#45;&gt;Node3</title>
<path fill="none" stroke="midnightblue" d="M114.23,-51.74C122.49,-50.61 131.11,-49.42 139.7,-48.23"/>
<polygon fill="midnightblue" stroke="midnightblue" points="140.31,-51.68 149.74,-46.85 139.36,-44.75 140.31,-51.68"/>
</g>
<!-- Node4 -->
<g id="node4" class="node">
<title>Node4</title>
<g id="a_node4"><a xlink:href="namespacemetrics.html#ac634edf984073c1f09a574c6fa217738" target="_top" xlink:title=" ">
<polygon fill="white" stroke="black" points="323,-50 323,-69 439,-69 439,-50 323,-50"/>
<text text-anchor="middle" x="381" y="-57" font-family="Helvetica,sans-Serif" font-size="10.00">metrics._oks_matrix</text>
</a>
</g>
</g>
<!-- Node3&#45;&gt;Node4 -->
<g id="edge3" class="edge">
<title>Node3&#45;&gt;Node4</title>
<path fill="none" stroke="midnightblue" d="M287.1,-46.77C295.66,-47.94 304.42,-49.14 312.97,-50.31"/>
<polygon fill="midnightblue" stroke="midnightblue" points="312.5,-53.78 322.88,-51.67 313.45,-46.85 312.5,-53.78"/>
</g>
<!-- Node5 -->
<g id="node5" class="node">
<title>Node5</title>
<g id="a_node5"><a xlink:href="namespacemetrics.html#a9aba1f16408cadc45e4fdfe24e44b7af" target="_top" xlink:title=" ">
<polygon fill="white" stroke="black" points="325,-0.5 325,-30.5 437,-30.5 437,-0.5 325,-0.5"/>
<text text-anchor="start" x="333" y="-18.5" font-family="Helvetica,sans-Serif" font-size="10.00">metrics._pose_area</text>
<text text-anchor="middle" x="381" y="-7.5" font-family="Helvetica,sans-Serif" font-size="10.00">_calculation</text>
</a>
</g>
</g>
<!-- Node3&#45;&gt;Node5 -->
<g id="edge4" class="edge">
<title>Node3&#45;&gt;Node5</title>
<path fill="none" stroke="midnightblue" d="M287.1,-28.23C296.19,-26.99 305.5,-25.71 314.55,-24.47"/>
<polygon fill="midnightblue" stroke="midnightblue" points="315.2,-27.92 324.63,-23.09 314.25,-20.98 315.2,-27.92"/>
</g>
</g>
</svg>
