<?xml version="1.0" encoding="UTF-8" standalone="no"?>
<!DOCTYPE svg PUBLIC "-//W3C//DTD SVG 1.1//EN"
 "http://www.w3.org/Graphics/SVG/1.1/DTD/svg11.dtd">
<!-- Generated by graphviz version 2.43.0 (0)
 -->
<!-- Title: common_deploy.stm32ai_deploy Pages: 1 -->
<svg width="348pt" height="137pt"
 viewBox="0.00 0.00 348.00 137.00" xmlns="http://www.w3.org/2000/svg" xmlns:xlink="http://www.w3.org/1999/xlink">
<g id="graph0" class="graph" transform="scale(1 1) rotate(0) translate(4 133)">
<title>common_deploy.stm32ai_deploy</title>
<polygon fill="white" stroke="transparent" points="-4,4 -4,-133 344,-133 344,4 -4,4"/>
<!-- Node1 -->
<g id="node1" class="node">
<title>Node1</title>
<g id="a_node1"><a xlink:title=" ">
<polygon fill="#bfbfbf" stroke="black" points="0,-49.5 0,-79.5 139,-79.5 139,-49.5 0,-49.5"/>
<text text-anchor="start" x="8" y="-67.5" font-family="Helvetica,sans-Serif" font-size="10.00">common_deploy.stm32ai</text>
<text text-anchor="middle" x="69.5" y="-56.5" font-family="Helvetica,sans-Serif" font-size="10.00">_deploy</text>
</a>
</g>
</g>
<!-- Node2 -->
<g id="node2" class="node">
<title>Node2</title>
<g id="a_node2"><a xlink:href="namespacecommon__deploy.html#aa0f3bf8d5702d2cfa058d2319101d875" target="_top" xlink:title=" ">
<polygon fill="white" stroke="black" points="184.5,-98.5 184.5,-128.5 330.5,-128.5 330.5,-98.5 184.5,-98.5"/>
<text text-anchor="start" x="192.5" y="-116.5" font-family="Helvetica,sans-Serif" font-size="10.00">common_deploy._dispatch</text>
<text text-anchor="middle" x="257.5" y="-105.5" font-family="Helvetica,sans-Serif" font-size="10.00">_weights</text>
</a>
</g>
</g>
<!-- Node1&#45;&gt;Node2 -->
<g id="edge1" class="edge">
<title>Node1&#45;&gt;Node2</title>
<path fill="none" stroke="midnightblue" d="M127.57,-79.53C147.21,-84.71 169.37,-90.55 189.72,-95.91"/>
<polygon fill="midnightblue" stroke="midnightblue" points="188.98,-99.33 199.54,-98.49 190.76,-92.56 188.98,-99.33"/>
</g>
<!-- Node3 -->
<g id="node3" class="node">
<title>Node3</title>
<g id="a_node3"><a xlink:href="namespacecommon__deploy.html#a9c7419b88732f624fce0c24df0ecbdc5" target="_top" xlink:title=" ">
<polygon fill="white" stroke="black" points="193.5,-49.5 193.5,-79.5 321.5,-79.5 321.5,-49.5 193.5,-49.5"/>
<text text-anchor="start" x="201.5" y="-67.5" font-family="Helvetica,sans-Serif" font-size="10.00">common_deploy._keep</text>
<text text-anchor="middle" x="257.5" y="-56.5" font-family="Helvetica,sans-Serif" font-size="10.00">_internal_weights</text>
</a>
</g>
</g>
<!-- Node1&#45;&gt;Node3 -->
<g id="edge2" class="edge">
<title>Node1&#45;&gt;Node3</title>
<path fill="none" stroke="midnightblue" d="M139.23,-64.5C153.47,-64.5 168.53,-64.5 182.93,-64.5"/>
<polygon fill="midnightblue" stroke="midnightblue" points="183.28,-68 193.28,-64.5 183.28,-61 183.28,-68"/>
</g>
<!-- Node4 -->
<g id="node4" class="node">
<title>Node4</title>
<g id="a_node4"><a xlink:href="namespaceexternal__memory__mgt.html#a366a086f782e430f6ef6c8446e2aa01d" target="_top" xlink:title=" ">
<polygon fill="white" stroke="black" points="175,-0.5 175,-30.5 340,-30.5 340,-0.5 175,-0.5"/>
<text text-anchor="start" x="183" y="-18.5" font-family="Helvetica,sans-Serif" font-size="10.00">external_memory_mgt.update</text>
<text text-anchor="middle" x="257.5" y="-7.5" font-family="Helvetica,sans-Serif" font-size="10.00">_activation_c_code</text>
</a>
</g>
</g>
<!-- Node1&#45;&gt;Node4 -->
<g id="edge3" class="edge">
<title>Node1&#45;&gt;Node4</title>
<path fill="none" stroke="midnightblue" d="M127.57,-49.47C147.21,-44.29 169.37,-38.45 189.72,-33.09"/>
<polygon fill="midnightblue" stroke="midnightblue" points="190.76,-36.44 199.54,-30.51 188.98,-29.67 190.76,-36.44"/>
</g>
</g>
</svg>
