<?xml version="1.0" encoding="UTF-8" standalone="no"?>
<!DOCTYPE svg PUBLIC "-//W3C//DTD SVG 1.1//EN"
 "http://www.w3.org/Graphics/SVG/1.1/DTD/svg11.dtd">
<!-- Generated by graphviz version 2.43.0 (0)
 -->
<!-- Title: stm32ai_main.main Pages: 1 -->
<svg width="834pt" height="453pt"
 viewBox="0.00 0.00 834.00 452.50" xmlns="http://www.w3.org/2000/svg" xmlns:xlink="http://www.w3.org/1999/xlink">
<g id="graph0" class="graph" transform="scale(1 1) rotate(0) translate(4 448.5)">
<title>stm32ai_main.main</title>
<polygon fill="white" stroke="transparent" points="-4,4 -4,-448.5 830,-448.5 830,4 -4,4"/>
<!-- Node1 -->
<g id="node1" class="node">
<title>Node1</title>
<g id="a_node1"><a xlink:title=" ">
<polygon fill="#bfbfbf" stroke="black" points="0,-217.5 0,-236.5 114,-236.5 114,-217.5 0,-217.5"/>
<text text-anchor="middle" x="57" y="-224.5" font-family="Helvetica,sans-Serif" font-size="10.00">stm32ai_main.main</text>
</a>
</g>
</g>
<!-- Node2 -->
<g id="node2" class="node">
<title>Node2</title>
<g id="a_node2"><a xlink:href="namespaceparse__config.html#abfe1966ebc2c0cc7cde6ac7932db5e9f" target="_top" xlink:title=" ">
<polygon fill="white" stroke="black" points="164.5,-321.5 164.5,-340.5 295.5,-340.5 295.5,-321.5 164.5,-321.5"/>
<text text-anchor="middle" x="230" y="-328.5" font-family="Helvetica,sans-Serif" font-size="10.00">parse_config.get_config</text>
</a>
</g>
</g>
<!-- Node1&#45;&gt;Node2 -->
<g id="edge1" class="edge">
<title>Node1&#45;&gt;Node2</title>
<path fill="none" stroke="midnightblue" d="M73.78,-236.6C103.68,-254.78 168.8,-294.38 204.45,-316.07"/>
<polygon fill="midnightblue" stroke="midnightblue" points="202.89,-319.22 213.26,-321.43 206.53,-313.24 202.89,-319.22"/>
</g>
<!-- Node7 -->
<g id="node7" class="node">
<title>Node7</title>
<g id="a_node7"><a xlink:href="namespacestm32ai__main.html#a4cbaa9ff30732c1dd564db78f0f9b0b7" target="_top" xlink:title=" ">
<polygon fill="white" stroke="black" points="150,-133.5 150,-152.5 310,-152.5 310,-133.5 150,-133.5"/>
<text text-anchor="middle" x="230" y="-140.5" font-family="Helvetica,sans-Serif" font-size="10.00">stm32ai_main.process_mode</text>
</a>
</g>
</g>
<!-- Node1&#45;&gt;Node7 -->
<g id="edge6" class="edge">
<title>Node1&#45;&gt;Node7</title>
<path fill="none" stroke="midnightblue" d="M77.62,-217.36C107.77,-202.55 165.65,-174.12 200.45,-157.02"/>
<polygon fill="midnightblue" stroke="midnightblue" points="202.18,-160.07 209.61,-152.52 199.09,-153.79 202.18,-160.07"/>
</g>
<!-- Node3 -->
<g id="node3" class="node">
<title>Node3</title>
<g id="a_node3"><a xlink:href="namespaceparse__config.html#a0bf66e5ac1f69032cfcf8106c8510ee0" target="_top" xlink:title=" ">
<polygon fill="white" stroke="black" points="346,-414 346,-444 504,-444 504,-414 346,-414"/>
<text text-anchor="start" x="354" y="-432" font-family="Helvetica,sans-Serif" font-size="10.00">parse_config._parse</text>
<text text-anchor="middle" x="425" y="-421" font-family="Helvetica,sans-Serif" font-size="10.00">_data_augmentation_section</text>
</a>
</g>
</g>
<!-- Node2&#45;&gt;Node3 -->
<g id="edge2" class="edge">
<title>Node2&#45;&gt;Node3</title>
<path fill="none" stroke="midnightblue" d="M243.44,-340.65C263.85,-356.08 306.17,-386.49 346,-405 350.09,-406.9 354.36,-408.7 358.71,-410.39"/>
<polygon fill="midnightblue" stroke="midnightblue" points="357.73,-413.76 368.32,-413.92 360.14,-407.19 357.73,-413.76"/>
</g>
<!-- Node4 -->
<g id="node4" class="node">
<title>Node4</title>
<g id="a_node4"><a xlink:href="namespaceparse__config.html#acfc49e2bf58b3c6c8d2fafc1c4df1b2b" target="_top" xlink:title=" ">
<polygon fill="white" stroke="black" points="368.5,-365 368.5,-395 481.5,-395 481.5,-365 368.5,-365"/>
<text text-anchor="start" x="376.5" y="-383" font-family="Helvetica,sans-Serif" font-size="10.00">parse_config._parse</text>
<text text-anchor="middle" x="425" y="-372" font-family="Helvetica,sans-Serif" font-size="10.00">_dataset_section</text>
</a>
</g>
</g>
<!-- Node2&#45;&gt;Node4 -->
<g id="edge3" class="edge">
<title>Node2&#45;&gt;Node4</title>
<path fill="none" stroke="midnightblue" d="M268.67,-340.56C294.1,-347.02 328.34,-355.71 358.2,-363.29"/>
<polygon fill="midnightblue" stroke="midnightblue" points="357.59,-366.75 368.14,-365.82 359.31,-359.97 357.59,-366.75"/>
</g>
<!-- Node5 -->
<g id="node5" class="node">
<title>Node5</title>
<g id="a_node5"><a xlink:href="namespaceparse__config.html#a55a94c086e5761879b9c86432ab7df7c" target="_top" xlink:title=" ">
<polygon fill="white" stroke="black" points="357,-316 357,-346 493,-346 493,-316 357,-316"/>
<text text-anchor="start" x="365" y="-334" font-family="Helvetica,sans-Serif" font-size="10.00">parse_config._parse</text>
<text text-anchor="middle" x="425" y="-323" font-family="Helvetica,sans-Serif" font-size="10.00">_postprocessing_section</text>
</a>
</g>
</g>
<!-- Node2&#45;&gt;Node5 -->
<g id="edge4" class="edge">
<title>Node2&#45;&gt;Node5</title>
<path fill="none" stroke="midnightblue" d="M295.53,-331C311.87,-331 329.58,-331 346.48,-331"/>
<polygon fill="midnightblue" stroke="midnightblue" points="346.89,-334.5 356.89,-331 346.89,-327.5 346.89,-334.5"/>
</g>
<!-- Node6 -->
<g id="node6" class="node">
<title>Node6</title>
<g id="a_node6"><a xlink:href="namespaceparse__config.html#aab9263c54d21f9e1feddd2bce27427b8" target="_top" xlink:title=" ">
<polygon fill="white" stroke="black" points="359.5,-267 359.5,-297 490.5,-297 490.5,-267 359.5,-267"/>
<text text-anchor="start" x="367.5" y="-285" font-family="Helvetica,sans-Serif" font-size="10.00">parse_config._parse</text>
<text text-anchor="middle" x="425" y="-274" font-family="Helvetica,sans-Serif" font-size="10.00">_preprocessing_section</text>
</a>
</g>
</g>
<!-- Node2&#45;&gt;Node6 -->
<g id="edge5" class="edge">
<title>Node2&#45;&gt;Node6</title>
<path fill="none" stroke="midnightblue" d="M268.67,-321.44C293.21,-315.21 325.96,-306.89 355.06,-299.5"/>
<polygon fill="midnightblue" stroke="midnightblue" points="355.94,-302.89 364.77,-297.04 354.22,-296.11 355.94,-302.89"/>
</g>
<!-- Node8 -->
<g id="node8" class="node">
<title>Node8</title>
<g id="a_node8"><a xlink:href="namespacestm32ai__main.html#abbfd761001c5e75ee1f94db798898a14" target="_top" xlink:title=" ">
<polygon fill="white" stroke="black" points="355.5,-228.5 355.5,-247.5 494.5,-247.5 494.5,-228.5 355.5,-228.5"/>
<text text-anchor="middle" x="425" y="-235.5" font-family="Helvetica,sans-Serif" font-size="10.00">stm32ai_main.chain_eqe</text>
</a>
</g>
</g>
<!-- Node7&#45;&gt;Node8 -->
<g id="edge7" class="edge">
<title>Node7&#45;&gt;Node8</title>
<path fill="none" stroke="midnightblue" d="M242.62,-152.69C262.53,-168.8 304.98,-201.1 346,-219 351.7,-221.49 357.78,-223.69 363.94,-225.62"/>
<polygon fill="midnightblue" stroke="midnightblue" points="363.06,-229.01 373.64,-228.44 365.02,-222.29 363.06,-229.01"/>
</g>
<!-- Node9 -->
<g id="node9" class="node">
<title>Node9</title>
<g id="a_node9"><a xlink:href="namespacestm32ai__main.html#a38bbc61827d08e317cbfe48366d5e041" target="_top" xlink:title=" ">
<polygon fill="white" stroke="black" points="352.5,-190.5 352.5,-209.5 497.5,-209.5 497.5,-190.5 352.5,-190.5"/>
<text text-anchor="middle" x="425" y="-197.5" font-family="Helvetica,sans-Serif" font-size="10.00">stm32ai_main.chain_eqeb</text>
</a>
</g>
</g>
<!-- Node7&#45;&gt;Node9 -->
<g id="edge8" class="edge">
<title>Node7&#45;&gt;Node9</title>
<path fill="none" stroke="midnightblue" d="M257.76,-152.52C280.95,-160.61 315.48,-172.25 346,-181 354.47,-183.43 363.51,-185.81 372.33,-188.03"/>
<polygon fill="midnightblue" stroke="midnightblue" points="371.6,-191.46 382.14,-190.46 373.28,-184.66 371.6,-191.46"/>
</g>
<!-- Node10 -->
<g id="node10" class="node">
<title>Node10</title>
<g id="a_node10"><a xlink:href="namespacestm32ai__main.html#a34011c12ffc5885a2d9a0737461a6d83" target="_top" xlink:title=" ">
<polygon fill="white" stroke="black" points="358.5,-152.5 358.5,-171.5 491.5,-171.5 491.5,-152.5 358.5,-152.5"/>
<text text-anchor="middle" x="425" y="-159.5" font-family="Helvetica,sans-Serif" font-size="10.00">stm32ai_main.chain_qb</text>
</a>
</g>
</g>
<!-- Node7&#45;&gt;Node10 -->
<g id="edge9" class="edge">
<title>Node7&#45;&gt;Node10</title>
<path fill="none" stroke="midnightblue" d="M310.06,-150.78C322.71,-152.03 335.77,-153.31 348.34,-154.55"/>
<polygon fill="midnightblue" stroke="midnightblue" points="348,-158.03 358.29,-155.53 348.69,-151.07 348,-158.03"/>
</g>
<!-- Node11 -->
<g id="node11" class="node">
<title>Node11</title>
<g id="a_node11"><a xlink:href="namespacestm32ai__main.html#a1d087592b8cc565c0d7735ecbaabbf23" target="_top" xlink:title=" ">
<polygon fill="white" stroke="black" points="358.5,-114.5 358.5,-133.5 491.5,-133.5 491.5,-114.5 358.5,-114.5"/>
<text text-anchor="middle" x="425" y="-121.5" font-family="Helvetica,sans-Serif" font-size="10.00">stm32ai_main.chain_qd</text>
</a>
</g>
</g>
<!-- Node7&#45;&gt;Node11 -->
<g id="edge10" class="edge">
<title>Node7&#45;&gt;Node11</title>
<path fill="none" stroke="midnightblue" d="M310.06,-135.22C322.71,-133.97 335.77,-132.69 348.34,-131.45"/>
<polygon fill="midnightblue" stroke="midnightblue" points="348.69,-134.93 358.29,-130.47 348,-127.97 348.69,-134.93"/>
</g>
<!-- Node12 -->
<g id="node12" class="node">
<title>Node12</title>
<g id="a_node12"><a xlink:href="namespacedeploy.html#ade035e1e35eba041fb59e073ff2d91cb" target="_top" xlink:title=" ">
<polygon fill="white" stroke="black" points="540,-95.5 540,-114.5 651,-114.5 651,-95.5 540,-95.5"/>
<text text-anchor="middle" x="595.5" y="-102.5" font-family="Helvetica,sans-Serif" font-size="10.00">deploy.deploy_mpu</text>
</a>
</g>
</g>
<!-- Node7&#45;&gt;Node12 -->
<g id="edge15" class="edge">
<title>Node7&#45;&gt;Node12</title>
<path fill="none" stroke="midnightblue" d="M252.95,-133.41C275.71,-124.02 312.58,-110.38 346,-105 407.77,-95.06 479.29,-96.38 529.7,-99.39"/>
<polygon fill="midnightblue" stroke="midnightblue" points="529.61,-102.9 539.81,-100.04 530.05,-95.91 529.61,-102.9"/>
</g>
<!-- Node14 -->
<g id="node14" class="node">
<title>Node14</title>
<g id="a_node14"><a xlink:href="namespacestm32ai__main.html#abb40f28bff527fd696b9a8c0c649c4c2" target="_top" xlink:title=" ">
<polygon fill="white" stroke="black" points="356.5,-38.5 356.5,-57.5 493.5,-57.5 493.5,-38.5 356.5,-38.5"/>
<text text-anchor="middle" x="425" y="-45.5" font-family="Helvetica,sans-Serif" font-size="10.00">stm32ai_main.chain_tqe</text>
</a>
</g>
</g>
<!-- Node7&#45;&gt;Node14 -->
<g id="edge13" class="edge">
<title>Node7&#45;&gt;Node14</title>
<path fill="none" stroke="midnightblue" d="M244.18,-133.3C264.93,-118.4 306.9,-89.74 346,-72 355.58,-67.65 366.17,-63.81 376.37,-60.54"/>
<polygon fill="midnightblue" stroke="midnightblue" points="377.46,-63.87 385.99,-57.59 375.4,-57.18 377.46,-63.87"/>
</g>
<!-- Node15 -->
<g id="node15" class="node">
<title>Node15</title>
<g id="a_node15"><a xlink:href="namespacestm32ai__main.html#a44079280c9c0dc10f849c526d702da14" target="_top" xlink:title=" ">
<polygon fill="white" stroke="black" points="353.5,-0.5 353.5,-19.5 496.5,-19.5 496.5,-0.5 353.5,-0.5"/>
<text text-anchor="middle" x="425" y="-7.5" font-family="Helvetica,sans-Serif" font-size="10.00">stm32ai_main.chain_tqeb</text>
</a>
</g>
</g>
<!-- Node7&#45;&gt;Node15 -->
<g id="edge14" class="edge">
<title>Node7&#45;&gt;Node15</title>
<path fill="none" stroke="midnightblue" d="M237.81,-133.29C253.92,-111.13 296.68,-56.58 346,-29 350.01,-26.76 354.28,-24.78 358.67,-23.03"/>
<polygon fill="midnightblue" stroke="midnightblue" points="360.19,-26.21 368.45,-19.56 357.85,-19.61 360.19,-26.21"/>
</g>
<!-- Node11&#45;&gt;Node12 -->
<g id="edge11" class="edge">
<title>Node11&#45;&gt;Node12</title>
<path fill="none" stroke="midnightblue" d="M491.63,-116.6C504.12,-115.19 517.18,-113.72 529.65,-112.31"/>
<polygon fill="midnightblue" stroke="midnightblue" points="530.41,-115.75 539.95,-111.15 529.62,-108.79 530.41,-115.75"/>
</g>
<!-- Node13 -->
<g id="node13" class="node">
<title>Node13</title>
<g id="a_node13"><a xlink:href="namespacecommon__deploy.html#a98d1d351c899bfbf088bc3ee23f3b2a5" target="_top" xlink:title=" ">
<polygon fill="white" stroke="black" points="687,-90 687,-120 826,-120 826,-90 687,-90"/>
<text text-anchor="start" x="695" y="-108" font-family="Helvetica,sans-Serif" font-size="10.00">common_deploy.stm32ai</text>
<text text-anchor="middle" x="756.5" y="-97" font-family="Helvetica,sans-Serif" font-size="10.00">_deploy_mpu</text>
</a>
</g>
</g>
<!-- Node12&#45;&gt;Node13 -->
<g id="edge12" class="edge">
<title>Node12&#45;&gt;Node13</title>
<path fill="none" stroke="midnightblue" d="M651.22,-105C659.48,-105 668.14,-105 676.79,-105"/>
<polygon fill="midnightblue" stroke="midnightblue" points="676.92,-108.5 686.92,-105 676.92,-101.5 676.92,-108.5"/>
</g>
</g>
</svg>
