<?xml version="1.0" encoding="UTF-8" standalone="no"?>
<!DOCTYPE svg PUBLIC "-//W3C//DTD SVG 1.1//EN"
 "http://www.w3.org/Graphics/SVG/1.1/DTD/svg11.dtd">
<!-- Generated by graphviz version 2.43.0 (0)
 -->
<!-- Title: utils.h Pages: 1 -->
<svg width="265pt" height="84pt"
 viewBox="0.00 0.00 264.50 84.00" xmlns="http://www.w3.org/2000/svg" xmlns:xlink="http://www.w3.org/1999/xlink">
<g id="graph0" class="graph" transform="scale(1 1) rotate(0) translate(4 80)">
<title>utils.h</title>
<polygon fill="white" stroke="transparent" points="-4,4 -4,-80 260.5,-80 260.5,4 -4,4"/>
<!-- Node1 -->
<g id="node1" class="node">
<title>Node1</title>
<g id="a_node1"><a xlink:title=" ">
<polygon fill="#bfbfbf" stroke="black" points="123,-56.5 123,-75.5 170,-75.5 170,-56.5 123,-56.5"/>
<text text-anchor="middle" x="146.5" y="-63.5" font-family="Helvetica,sans-Serif" font-size="10.00">utils.h</text>
</a>
</g>
</g>
<!-- Node2 -->
<g id="node2" class="node">
<title>Node2</title>
<g id="a_node2"><a xlink:href="display__mpe_8c.html" target="_top" xlink:title=" ">
<polygon fill="white" stroke="black" points="0,-0.5 0,-19.5 87,-19.5 87,-0.5 0,-0.5"/>
<text text-anchor="middle" x="43.5" y="-7.5" font-family="Helvetica,sans-Serif" font-size="10.00">display_mpe.c</text>
</a>
</g>
</g>
<!-- Node1&#45;&gt;Node2 -->
<g id="edge1" class="edge">
<title>Node1&#45;&gt;Node2</title>
<path fill="none" stroke="midnightblue" d="M120.92,-51.59C101.88,-41.61 76.44,-28.27 60.01,-19.65"/>
<polygon fill="midnightblue" stroke="midnightblue" points="119.47,-54.78 129.95,-56.32 122.72,-48.58 119.47,-54.78"/>
</g>
<!-- Node3 -->
<g id="node3" class="node">
<title>Node3</title>
<g id="a_node3"><a xlink:href="display__spe_8c.html" target="_top" xlink:title=" ">
<polygon fill="white" stroke="black" points="105,-0.5 105,-19.5 188,-19.5 188,-0.5 105,-0.5"/>
<text text-anchor="middle" x="146.5" y="-7.5" font-family="Helvetica,sans-Serif" font-size="10.00">display_spe.c</text>
</a>
</g>
</g>
<!-- Node1&#45;&gt;Node3 -->
<g id="edge2" class="edge">
<title>Node1&#45;&gt;Node3</title>
<path fill="none" stroke="midnightblue" d="M146.5,-45.8C146.5,-36.91 146.5,-26.78 146.5,-19.75"/>
<polygon fill="midnightblue" stroke="midnightblue" points="143,-46.08 146.5,-56.08 150,-46.08 143,-46.08"/>
</g>
<!-- Node4 -->
<g id="node4" class="node">
<title>Node4</title>
<g id="a_node4"><a xlink:href="main_8c.html" target="_top" xlink:title="Main firmware entry point for the STM32N6570&#45;DK pose estimation application running on the Neural&#45;ART...">
<polygon fill="white" stroke="black" points="206.5,-0.5 206.5,-19.5 256.5,-19.5 256.5,-0.5 206.5,-0.5"/>
<text text-anchor="middle" x="231.5" y="-7.5" font-family="Helvetica,sans-Serif" font-size="10.00">main.c</text>
</a>
</g>
</g>
<!-- Node1&#45;&gt;Node4 -->
<g id="edge3" class="edge">
<title>Node1&#45;&gt;Node4</title>
<path fill="none" stroke="midnightblue" d="M168.69,-50.9C184.28,-41 204.63,-28.07 217.88,-19.65"/>
<polygon fill="midnightblue" stroke="midnightblue" points="166.72,-48.01 160.16,-56.32 170.47,-53.92 166.72,-48.01"/>
</g>
</g>
</svg>
