<?xml version="1.0" encoding="UTF-8" standalone="no"?>
<!DOCTYPE svg PUBLIC "-//W3C//DTD SVG 1.1//EN"
 "http://www.w3.org/Graphics/SVG/1.1/DTD/svg11.dtd">
<!-- Generated by graphviz version 2.43.0 (0)
 -->
<!-- Title: DCMIPP_PipeInitDisplay Pages: 1 -->
<svg width="409pt" height="28pt"
 viewBox="0.00 0.00 409.00 28.00" xmlns="http://www.w3.org/2000/svg" xmlns:xlink="http://www.w3.org/1999/xlink">
<g id="graph0" class="graph" transform="scale(1 1) rotate(0) translate(4 24)">
<title>DCMIPP_PipeInitDisplay</title>
<polygon fill="white" stroke="transparent" points="-4,4 -4,-24 405,-24 405,4 -4,4"/>
<!-- Node1 -->
<g id="node1" class="node">
<title>Node1</title>
<g id="a_node1"><a xlink:title=" ">
<polygon fill="#bfbfbf" stroke="black" points="267,-0.5 267,-19.5 401,-19.5 401,-0.5 267,-0.5"/>
<text text-anchor="middle" x="334" y="-7.5" font-family="Helvetica,sans-Serif" font-size="10.00">DCMIPP_PipeInitDisplay</text>
</a>
</g>
</g>
<!-- Node2 -->
<g id="node2" class="node">
<title>Node2</title>
<g id="a_node2"><a xlink:href="../app__camerapipeline_8c.html#a2aba01c49b040a1b4d2dbe9d83aeaf0a" target="_top" xlink:title="Init the camera and the 2 DCMIPP pipes.">
<polygon fill="white" stroke="black" points="116,-0.5 116,-19.5 231,-19.5 231,-0.5 116,-0.5"/>
<text text-anchor="middle" x="173.5" y="-7.5" font-family="Helvetica,sans-Serif" font-size="10.00">CameraPipeline_Init</text>
</a>
</g>
</g>
<!-- Node1&#45;&gt;Node2 -->
<g id="edge1" class="edge">
<title>Node1&#45;&gt;Node2</title>
<path fill="none" stroke="midnightblue" d="M256.48,-10C248.06,-10 239.6,-10 231.48,-10"/>
<polygon fill="midnightblue" stroke="midnightblue" points="256.7,-13.5 266.7,-10 256.7,-6.5 256.7,-13.5"/>
</g>
<!-- Node3 -->
<g id="node3" class="node">
<title>Node3</title>
<g id="a_node3"><a xlink:href="../main_8c.html#a69d29ef3499c0b385325c4225e6085a5" target="_top" xlink:title="LCD background framebuffer — camera preview.">
<polygon fill="white" stroke="black" points="0,-0.5 0,-19.5 80,-19.5 80,-0.5 0,-0.5"/>
<text text-anchor="middle" x="40" y="-7.5" font-family="Helvetica,sans-Serif" font-size="10.00">__attribute__</text>
</a>
</g>
</g>
<!-- Node2&#45;&gt;Node3 -->
<g id="edge2" class="edge">
<title>Node2&#45;&gt;Node3</title>
<path fill="none" stroke="midnightblue" d="M105.69,-10C96.9,-10 88.15,-10 80.04,-10"/>
<polygon fill="midnightblue" stroke="midnightblue" points="105.97,-13.5 115.97,-10 105.97,-6.5 105.97,-13.5"/>
</g>
</g>
</svg>
