<?xml version="1.0" encoding="UTF-8" standalone="no"?>
<!DOCTYPE svg PUBLIC "-//W3C//DTD SVG 1.1//EN"
 "http://www.w3.org/Graphics/SVG/1.1/DTD/svg11.dtd">
<!-- Generated by graphviz version 2.43.0 (0)
 -->
<!-- Title: app_config.h Pages: 1 -->
<svg width="407pt" height="84pt"
 viewBox="0.00 0.00 407.00 84.00" xmlns="http://www.w3.org/2000/svg" xmlns:xlink="http://www.w3.org/1999/xlink">
<g id="graph0" class="graph" transform="scale(1 1) rotate(0) translate(4 80)">
<title>app_config.h</title>
<polygon fill="white" stroke="transparent" points="-4,4 -4,-80 403,-80 403,4 -4,4"/>
<!-- Node1 -->
<g id="node1" class="node">
<title>Node1</title>
<g id="a_node1"><a xlink:title="Central configuration header for the STM32N6570&#45;DK pose estimation firmware application.">
<polygon fill="#bfbfbf" stroke="black" points="198,-56.5 198,-75.5 276,-75.5 276,-56.5 198,-56.5"/>
<text text-anchor="middle" x="237" y="-63.5" font-family="Helvetica,sans-Serif" font-size="10.00">app_config.h</text>
</a>
</g>
</g>
<!-- Node2 -->
<g id="node2" class="node">
<title>Node2</title>
<g id="a_node2"><a xlink:href="../app__camerapipeline_8c.html" target="_top" xlink:title=" ">
<polygon fill="white" stroke="black" points="0,-0.5 0,-19.5 124,-19.5 124,-0.5 0,-0.5"/>
<text text-anchor="middle" x="62" y="-7.5" font-family="Helvetica,sans-Serif" font-size="10.00">app_camerapipeline.c</text>
</a>
</g>
</g>
<!-- Node1&#45;&gt;Node2 -->
<g id="edge1" class="edge">
<title>Node1&#45;&gt;Node2</title>
<path fill="none" stroke="midnightblue" d="M199.53,-53.44C166.53,-43.26 119.24,-28.66 89.6,-19.52"/>
<polygon fill="midnightblue" stroke="midnightblue" points="198.68,-56.84 209.27,-56.44 200.75,-50.15 198.68,-56.84"/>
</g>
<!-- Node3 -->
<g id="node3" class="node">
<title>Node3</title>
<g id="a_node3"><a xlink:href="../display__mpe_8c.html" target="_top" xlink:title=" ">
<polygon fill="white" stroke="black" points="142.5,-0.5 142.5,-19.5 229.5,-19.5 229.5,-0.5 142.5,-0.5"/>
<text text-anchor="middle" x="186" y="-7.5" font-family="Helvetica,sans-Serif" font-size="10.00">display_mpe.c</text>
</a>
</g>
</g>
<!-- Node1&#45;&gt;Node3 -->
<g id="edge2" class="edge">
<title>Node1&#45;&gt;Node3</title>
<path fill="none" stroke="midnightblue" d="M221.62,-48.72C212.63,-39.2 201.64,-27.56 194.26,-19.75"/>
<polygon fill="midnightblue" stroke="midnightblue" points="219.17,-51.22 228.58,-56.08 224.26,-46.41 219.17,-51.22"/>
</g>
<!-- Node4 -->
<g id="node4" class="node">
<title>Node4</title>
<g id="a_node4"><a xlink:href="../display__spe_8c.html" target="_top" xlink:title=" ">
<polygon fill="white" stroke="black" points="247.5,-0.5 247.5,-19.5 330.5,-19.5 330.5,-0.5 247.5,-0.5"/>
<text text-anchor="middle" x="289" y="-7.5" font-family="Helvetica,sans-Serif" font-size="10.00">display_spe.c</text>
</a>
</g>
</g>
<!-- Node1&#45;&gt;Node4 -->
<g id="edge3" class="edge">
<title>Node1&#45;&gt;Node4</title>
<path fill="none" stroke="midnightblue" d="M252.68,-48.72C261.84,-39.2 273.05,-27.56 280.57,-19.75"/>
<polygon fill="midnightblue" stroke="midnightblue" points="250,-46.45 245.59,-56.08 255.04,-51.31 250,-46.45"/>
</g>
<!-- Node5 -->
<g id="node5" class="node">
<title>Node5</title>
<g id="a_node5"><a xlink:href="../main_8c.html" target="_top" xlink:title="Main firmware entry point for the STM32N6570&#45;DK pose estimation application running on the Neural&#45;ART...">
<polygon fill="white" stroke="black" points="349,-0.5 349,-19.5 399,-19.5 399,-0.5 349,-0.5"/>
<text text-anchor="middle" x="374" y="-7.5" font-family="Helvetica,sans-Serif" font-size="10.00">main.c</text>
</a>
</g>
</g>
<!-- Node1&#45;&gt;Node5 -->
<g id="edge4" class="edge">
<title>Node1&#45;&gt;Node5</title>
<path fill="none" stroke="midnightblue" d="M268.02,-52.77C293.76,-42.63 329.69,-28.47 352.39,-19.52"/>
<polygon fill="midnightblue" stroke="midnightblue" points="266.73,-49.52 258.71,-56.44 269.29,-56.03 266.73,-49.52"/>
</g>
</g>
</svg>
