<?xml version="1.0" encoding="UTF-8" standalone="no"?>
<!DOCTYPE svg PUBLIC "-//W3C//DTD SVG 1.1//EN"
 "http://www.w3.org/Graphics/SVG/1.1/DTD/svg11.dtd">
<!-- Generated by graphviz version 2.43.0 (0)
 -->
<!-- Title: display_spe.c Pages: 1 -->
<svg width="814pt" height="196pt"
 viewBox="0.00 0.00 813.50 196.00" xmlns="http://www.w3.org/2000/svg" xmlns:xlink="http://www.w3.org/1999/xlink">
<g id="graph0" class="graph" transform="scale(1 1) rotate(0) translate(4 192)">
<title>display_spe.c</title>
<polygon fill="white" stroke="transparent" points="-4,4 -4,-192 809.5,-192 809.5,4 -4,4"/>
<!-- Node1 -->
<g id="node1" class="node">
<title>Node1</title>
<g id="a_node1"><a xlink:title=" ">
<polygon fill="#bfbfbf" stroke="black" points="469.5,-168.5 469.5,-187.5 552.5,-187.5 552.5,-168.5 469.5,-168.5"/>
<text text-anchor="middle" x="511" y="-175.5" font-family="Helvetica,sans-Serif" font-size="10.00">display_spe.c</text>
</a>
</g>
</g>
<!-- Node2 -->
<g id="node2" class="node">
<title>Node2</title>
<g id="a_node2"><a xlink:href="../display__spe_8h.html" target="_top" xlink:title=" ">
<polygon fill="white" stroke="black" points="150.5,-112.5 150.5,-131.5 233.5,-131.5 233.5,-112.5 150.5,-112.5"/>
<text text-anchor="middle" x="192" y="-119.5" font-family="Helvetica,sans-Serif" font-size="10.00">display_spe.h</text>
</a>
</g>
</g>
<!-- Node1&#45;&gt;Node2 -->
<g id="edge1" class="edge">
<title>Node1&#45;&gt;Node2</title>
<path fill="none" stroke="midnightblue" d="M469.3,-169.94C411.38,-160.14 306.66,-142.41 243.81,-131.77"/>
<polygon fill="midnightblue" stroke="midnightblue" points="244.16,-128.28 233.71,-130.06 242.99,-135.18 244.16,-128.28"/>
</g>
<!-- Node5 -->
<g id="node5" class="node">
<title>Node5</title>
<g id="a_node5"><a xlink:href="../app__config_8h.html" target="_top" xlink:title="Central configuration header for the STM32N6570&#45;DK pose estimation firmware application.">
<polygon fill="white" stroke="black" points="258,-112.5 258,-131.5 336,-131.5 336,-112.5 258,-112.5"/>
<text text-anchor="middle" x="297" y="-119.5" font-family="Helvetica,sans-Serif" font-size="10.00">app_config.h</text>
</a>
</g>
</g>
<!-- Node1&#45;&gt;Node5 -->
<g id="edge4" class="edge">
<title>Node1&#45;&gt;Node5</title>
<path fill="none" stroke="midnightblue" d="M477.09,-168.44C440.15,-159.12 380.95,-144.18 340.58,-134"/>
<polygon fill="midnightblue" stroke="midnightblue" points="341.3,-130.57 330.75,-131.52 339.59,-137.36 341.3,-130.57"/>
</g>
<!-- Node7 -->
<g id="node7" class="node">
<title>Node7</title>
<g id="a_node7"><a xlink:href="../main_8h.html" target="_top" xlink:title=" ">
<polygon fill="white" stroke="black" points="371,-56.5 371,-75.5 421,-75.5 421,-56.5 371,-56.5"/>
<text text-anchor="middle" x="396" y="-63.5" font-family="Helvetica,sans-Serif" font-size="10.00">main.h</text>
</a>
</g>
</g>
<!-- Node1&#45;&gt;Node7 -->
<g id="edge6" class="edge">
<title>Node1&#45;&gt;Node7</title>
<path fill="none" stroke="midnightblue" d="M469.27,-174.46C439.87,-170.23 402.4,-159.39 383,-132 373.26,-118.25 378.92,-98.96 385.54,-84.97"/>
<polygon fill="midnightblue" stroke="midnightblue" points="388.77,-86.35 390.33,-75.87 382.58,-83.09 388.77,-86.35"/>
</g>
<!-- Node10 -->
<g id="node10" class="node">
<title>Node10</title>
<g id="a_node10"><a xlink:href="../display__keypoints__13_8h.html" target="_top" xlink:title=" ">
<polygon fill="white" stroke="black" points="392.5,-112.5 392.5,-131.5 523.5,-131.5 523.5,-112.5 392.5,-112.5"/>
<text text-anchor="middle" x="458" y="-119.5" font-family="Helvetica,sans-Serif" font-size="10.00">display_keypoints_13.h</text>
</a>
</g>
</g>
<!-- Node1&#45;&gt;Node10 -->
<g id="edge9" class="edge">
<title>Node1&#45;&gt;Node10</title>
<path fill="none" stroke="midnightblue" d="M502.25,-168.08C494.53,-160.22 483.1,-148.57 473.78,-139.08"/>
<polygon fill="midnightblue" stroke="midnightblue" points="476.09,-136.44 466.59,-131.75 471.1,-141.34 476.09,-136.44"/>
</g>
<!-- Node11 -->
<g id="node11" class="node">
<title>Node11</title>
<g id="a_node11"><a xlink:href="../utils_8h.html" target="_top" xlink:title=" ">
<polygon fill="white" stroke="black" points="541.5,-112.5 541.5,-131.5 588.5,-131.5 588.5,-112.5 541.5,-112.5"/>
<text text-anchor="middle" x="565" y="-119.5" font-family="Helvetica,sans-Serif" font-size="10.00">utils.h</text>
</a>
</g>
</g>
<!-- Node1&#45;&gt;Node11 -->
<g id="edge12" class="edge">
<title>Node1&#45;&gt;Node11</title>
<path fill="none" stroke="midnightblue" d="M519.92,-168.08C527.78,-160.22 539.43,-148.57 548.92,-139.08"/>
<polygon fill="midnightblue" stroke="midnightblue" points="551.65,-141.3 556.25,-131.75 546.7,-136.35 551.65,-141.3"/>
</g>
<!-- Node12 -->
<g id="node12" class="node">
<title>Node12</title>
<g id="a_node12"><a xlink:title=" ">
<polygon fill="white" stroke="#bfbfbf" points="607,-112.5 607,-131.5 663,-131.5 663,-112.5 607,-112.5"/>
<text text-anchor="middle" x="635" y="-119.5" font-family="Helvetica,sans-Serif" font-size="10.00">assert.h</text>
</a>
</g>
</g>
<!-- Node1&#45;&gt;Node12 -->
<g id="edge13" class="edge">
<title>Node1&#45;&gt;Node12</title>
<path fill="none" stroke="midnightblue" d="M530.65,-168.44C550.96,-159.6 582.9,-145.69 606.1,-135.59"/>
<polygon fill="midnightblue" stroke="midnightblue" points="607.67,-138.72 615.44,-131.52 604.88,-132.3 607.67,-138.72"/>
</g>
<!-- Node13 -->
<g id="node13" class="node">
<title>Node13</title>
<g id="a_node13"><a xlink:title=" ">
<polygon fill="white" stroke="#bfbfbf" points="681.5,-112.5 681.5,-131.5 734.5,-131.5 734.5,-112.5 681.5,-112.5"/>
<text text-anchor="middle" x="708" y="-119.5" font-family="Helvetica,sans-Serif" font-size="10.00">stdlib.h</text>
</a>
</g>
</g>
<!-- Node1&#45;&gt;Node13 -->
<g id="edge14" class="edge">
<title>Node1&#45;&gt;Node13</title>
<path fill="none" stroke="midnightblue" d="M542.22,-168.44C577.32,-158.82 634.27,-143.21 671.43,-133.02"/>
<polygon fill="midnightblue" stroke="midnightblue" points="672.63,-136.32 681.35,-130.3 670.78,-129.57 672.63,-136.32"/>
</g>
<!-- Node14 -->
<g id="node14" class="node">
<title>Node14</title>
<g id="a_node14"><a xlink:title=" ">
<polygon fill="white" stroke="#bfbfbf" points="752.5,-112.5 752.5,-131.5 805.5,-131.5 805.5,-112.5 752.5,-112.5"/>
<text text-anchor="middle" x="779" y="-119.5" font-family="Helvetica,sans-Serif" font-size="10.00">stdint.h</text>
</a>
</g>
</g>
<!-- Node1&#45;&gt;Node14 -->
<g id="edge15" class="edge">
<title>Node1&#45;&gt;Node14</title>
<path fill="none" stroke="midnightblue" d="M552.83,-169.71C597.49,-161.76 670.54,-148.25 742.19,-132.31"/>
<polygon fill="midnightblue" stroke="midnightblue" points="743.3,-135.65 752.29,-130.05 741.76,-128.82 743.3,-135.65"/>
</g>
<!-- Node3 -->
<g id="node3" class="node">
<title>Node3</title>
<g id="a_node3"><a xlink:title=" ">
<polygon fill="white" stroke="#bfbfbf" points="0,-56.5 0,-75.5 120,-75.5 120,-56.5 0,-56.5"/>
<text text-anchor="middle" x="60" y="-63.5" font-family="Helvetica,sans-Serif" font-size="10.00">spe_movenet_pp_if.h</text>
</a>
</g>
</g>
<!-- Node2&#45;&gt;Node3 -->
<g id="edge2" class="edge">
<title>Node2&#45;&gt;Node3</title>
<path fill="none" stroke="midnightblue" d="M171.08,-112.44C149.26,-103.52 114.85,-89.44 90.11,-79.32"/>
<polygon fill="midnightblue" stroke="midnightblue" points="91.4,-76.06 80.82,-75.52 88.75,-82.54 91.4,-76.06"/>
</g>
<!-- Node4 -->
<g id="node4" class="node">
<title>Node4</title>
<g id="a_node4"><a xlink:title=" ">
<polygon fill="white" stroke="#bfbfbf" points="138,-56.5 138,-75.5 246,-75.5 246,-56.5 138,-56.5"/>
<text text-anchor="middle" x="192" y="-63.5" font-family="Helvetica,sans-Serif" font-size="10.00">spe_pp_output_if.h</text>
</a>
</g>
</g>
<!-- Node2&#45;&gt;Node4 -->
<g id="edge3" class="edge">
<title>Node2&#45;&gt;Node4</title>
<path fill="none" stroke="midnightblue" d="M192,-112.08C192,-105.01 192,-94.86 192,-85.99"/>
<polygon fill="midnightblue" stroke="midnightblue" points="195.5,-85.75 192,-75.75 188.5,-85.75 195.5,-85.75"/>
</g>
<!-- Node6 -->
<g id="node6" class="node">
<title>Node6</title>
<g id="a_node6"><a xlink:title=" ">
<polygon fill="white" stroke="#bfbfbf" points="264,-56.5 264,-75.5 340,-75.5 340,-56.5 264,-56.5"/>
<text text-anchor="middle" x="302" y="-63.5" font-family="Helvetica,sans-Serif" font-size="10.00">arm_math.h</text>
</a>
</g>
</g>
<!-- Node5&#45;&gt;Node6 -->
<g id="edge5" class="edge">
<title>Node5&#45;&gt;Node6</title>
<path fill="none" stroke="midnightblue" d="M297.83,-112.08C298.48,-105.01 299.42,-94.86 300.24,-85.99"/>
<polygon fill="midnightblue" stroke="midnightblue" points="303.75,-86.03 301.19,-75.75 296.78,-85.39 303.75,-86.03"/>
</g>
<!-- Node8 -->
<g id="node8" class="node">
<title>Node8</title>
<g id="a_node8"><a xlink:title=" ">
<polygon fill="white" stroke="#bfbfbf" points="300.5,-0.5 300.5,-19.5 401.5,-19.5 401.5,-0.5 300.5,-0.5"/>
<text text-anchor="middle" x="351" y="-7.5" font-family="Helvetica,sans-Serif" font-size="10.00">stm32n6xx_hal.h</text>
</a>
</g>
</g>
<!-- Node7&#45;&gt;Node8 -->
<g id="edge7" class="edge">
<title>Node7&#45;&gt;Node8</title>
<path fill="none" stroke="midnightblue" d="M388.57,-56.08C382.15,-48.38 372.69,-37.03 364.88,-27.65"/>
<polygon fill="midnightblue" stroke="midnightblue" points="367.38,-25.19 358.29,-19.75 362.01,-29.67 367.38,-25.19"/>
</g>
<!-- Node9 -->
<g id="node9" class="node">
<title>Node9</title>
<g id="a_node9"><a xlink:title=" ">
<polygon fill="white" stroke="#bfbfbf" points="420,-0.5 420,-19.5 496,-19.5 496,-0.5 420,-0.5"/>
<text text-anchor="middle" x="458" y="-7.5" font-family="Helvetica,sans-Serif" font-size="10.00">stm32_lcd.h</text>
</a>
</g>
</g>
<!-- Node7&#45;&gt;Node9 -->
<g id="edge8" class="edge">
<title>Node7&#45;&gt;Node9</title>
<path fill="none" stroke="midnightblue" d="M405.96,-56.32C415.13,-48.34 428.94,-36.31 440.03,-26.65"/>
<polygon fill="midnightblue" stroke="midnightblue" points="442.62,-29.04 447.86,-19.83 438.02,-23.76 442.62,-29.04"/>
</g>
<!-- Node10&#45;&gt;Node7 -->
<g id="edge10" class="edge">
<title>Node10&#45;&gt;Node7</title>
<path fill="none" stroke="midnightblue" d="M448.04,-112.32C438.87,-104.34 425.06,-92.31 413.97,-82.65"/>
<polygon fill="midnightblue" stroke="midnightblue" points="415.98,-79.76 406.14,-75.83 411.38,-85.04 415.98,-79.76"/>
</g>
<!-- Node10&#45;&gt;Node9 -->
<g id="edge11" class="edge">
<title>Node10&#45;&gt;Node9</title>
<path fill="none" stroke="midnightblue" d="M458,-112.37C458,-94.62 458,-53.67 458,-29.6"/>
<polygon fill="midnightblue" stroke="midnightblue" points="461.5,-29.59 458,-19.59 454.5,-29.59 461.5,-29.59"/>
</g>
</g>
</svg>
