<?xml version="1.0" encoding="UTF-8" standalone="no"?>
<!DOCTYPE svg PUBLIC "-//W3C//DTD SVG 1.1//EN"
 "http://www.w3.org/Graphics/SVG/1.1/DTD/svg11.dtd">
<!-- Generated by graphviz version 2.43.0 (0)
 -->
<!-- Title: Application Configuration Pages: 1 -->
<svg width="319pt" height="76pt"
 viewBox="0.00 0.00 319.00 75.50" xmlns="http://www.w3.org/2000/svg" xmlns:xlink="http://www.w3.org/1999/xlink">
<g id="graph0" class="graph" transform="scale(1 1) rotate(0) translate(4 71.5)">
<title>Application Configuration</title>
<polygon fill="white" stroke="transparent" points="-4,4 -4,-71.5 315,-71.5 315,4 -4,4"/>
<!-- Node1 -->
<g id="node1" class="node">
<title>Node1</title>
<g id="a_node1"><a xlink:title="Central configuration macros for the STM32N6570&#45;DK pose estimation firmware.">
<polygon fill="#bfbfbf" stroke="black" points="140,-40 0,-40 0,-21 140,-21 140,-40"/>
<text text-anchor="middle" x="70" y="-28" font-family="Helvetica,sans-Serif" font-size="10.00">Application Configuration</text>
</a>
</g>
</g>
<!-- Node2 -->
<g id="node2" class="node">
<title>Node2</title>
<g id="a_node2"><a xlink:href="../group__AspectRatioModes.html" target="_top" xlink:title="Defines how the camera image is resized/cropped to match the NN input.">
<polygon fill="white" stroke="black" points="306,-67.5 181,-67.5 181,-37.5 306,-37.5 306,-67.5"/>
<text text-anchor="start" x="189" y="-55.5" font-family="Helvetica,sans-Serif" font-size="10.00">Aspect Ratio Handling</text>
<text text-anchor="middle" x="243.5" y="-44.5" font-family="Helvetica,sans-Serif" font-size="10.00"> Modes</text>
</a>
</g>
</g>
<!-- Node1&#45;&gt;Node2 -->
<g id="edge1" class="edge">
<title>Node1&#45;&gt;Node2</title>
<path fill="none" stroke="black" d="M150.46,-40.69C160.71,-42.01 171.09,-43.34 180.99,-44.61"/>
<polygon fill="black" stroke="black" points="150.63,-37.19 140.26,-39.38 149.73,-44.13 150.63,-37.19"/>
</g>
<!-- Node3 -->
<g id="node3" class="node">
<title>Node3</title>
<g id="a_node3"><a xlink:href="../group__ColorModes.html" target="_top" xlink:title=" ">
<polygon fill="white" stroke="black" points="311,-19 176,-19 176,0 311,0 311,-19"/>
<text text-anchor="middle" x="243.5" y="-7" font-family="Helvetica,sans-Serif" font-size="10.00">Color Format Definitions</text>
</a>
</g>
</g>
<!-- Node1&#45;&gt;Node3 -->
<g id="edge2" class="edge">
<title>Node1&#45;&gt;Node3</title>
<path fill="none" stroke="black" d="M150.23,-20.8C158.76,-19.75 167.39,-18.7 175.76,-17.67"/>
<polygon fill="black" stroke="black" points="149.76,-17.33 140.26,-22.02 150.61,-24.28 149.76,-17.33"/>
</g>
</g>
</svg>
