<?xml version="1.0" encoding="UTF-8" standalone="no"?>
<!DOCTYPE svg PUBLIC "-//W3C//DTD SVG 1.1//EN"
 "http://www.w3.org/Graphics/SVG/1.1/DTD/svg11.dtd">
<!-- Generated by graphviz version 2.43.0 (0)
 -->
<!-- Title: __attribute__ Pages: 1 -->
<svg width="602pt" height="648pt"
 viewBox="0.00 0.00 602.00 647.50" xmlns="http://www.w3.org/2000/svg" xmlns:xlink="http://www.w3.org/1999/xlink">
<g id="graph0" class="graph" transform="scale(1 1) rotate(0) translate(4 643.5)">
<title>__attribute__</title>
<polygon fill="white" stroke="transparent" points="-4,4 -4,-643.5 598,-643.5 598,4 -4,4"/>
<!-- Node1 -->
<g id="node1" class="node">
<title>Node1</title>
<g id="a_node1"><a xlink:title="LCD background framebuffer — camera preview.">
<polygon fill="#bfbfbf" stroke="black" points="0,-444.5 0,-463.5 80,-463.5 80,-444.5 0,-444.5"/>
<text text-anchor="middle" x="40" y="-451.5" font-family="Helvetica,sans-Serif" font-size="10.00">__attribute__</text>
</a>
</g>
</g>
<!-- Node2 -->
<g id="node2" class="node">
<title>Node2</title>
<g id="a_node2"><a xlink:href="../app__camerapipeline_8c.html#af03b9ea321db3555b9f2e88eb472bf2d" target="_top" xlink:title=" ">
<polygon fill="white" stroke="black" points="116,-609 116,-639 273,-639 273,-609 116,-609"/>
<text text-anchor="start" x="124" y="-627" font-family="Helvetica,sans-Serif" font-size="10.00">CameraPipeline_DisplayPipe</text>
<text text-anchor="middle" x="194.5" y="-616" font-family="Helvetica,sans-Serif" font-size="10.00">_Start</text>
</a>
</g>
</g>
<!-- Node1&#45;&gt;Node2 -->
<g id="edge1" class="edge">
<title>Node1&#45;&gt;Node2</title>
<path fill="none" stroke="midnightblue" d="M43.27,-463.74C49.83,-489.68 71.23,-561.08 116,-599 117.98,-600.68 120.08,-602.25 122.26,-603.71"/>
<polygon fill="midnightblue" stroke="midnightblue" points="120.67,-606.83 131.07,-608.84 124.2,-600.78 120.67,-606.83"/>
</g>
<!-- Node3 -->
<g id="node3" class="node">
<title>Node3</title>
<g id="a_node3"><a xlink:href="../app__camerapipeline_8c.html#a2aba01c49b040a1b4d2dbe9d83aeaf0a" target="_top" xlink:title="Init the camera and the 2 DCMIPP pipes.">
<polygon fill="white" stroke="black" points="137,-570.5 137,-589.5 252,-589.5 252,-570.5 137,-570.5"/>
<text text-anchor="middle" x="194.5" y="-577.5" font-family="Helvetica,sans-Serif" font-size="10.00">CameraPipeline_Init</text>
</a>
</g>
</g>
<!-- Node1&#45;&gt;Node3 -->
<g id="edge2" class="edge">
<title>Node1&#45;&gt;Node3</title>
<path fill="none" stroke="midnightblue" d="M44.96,-463.76C54.09,-484.99 78.74,-535.51 116,-561 119.54,-563.42 123.35,-565.53 127.32,-567.38"/>
<polygon fill="midnightblue" stroke="midnightblue" points="126.24,-570.71 136.83,-571.21 128.86,-564.22 126.24,-570.71"/>
</g>
<!-- Node6 -->
<g id="node6" class="node">
<title>Node6</title>
<g id="a_node6"><a xlink:href="../app__camerapipeline_8c.html#aa4b66b5c5649fbe4b0cd0804a14f13ea" target="_top" xlink:title=" ">
<polygon fill="white" stroke="black" points="120,-532.5 120,-551.5 269,-551.5 269,-532.5 120,-532.5"/>
<text text-anchor="middle" x="194.5" y="-539.5" font-family="Helvetica,sans-Serif" font-size="10.00">CameraPipeline_IspUpdate</text>
</a>
</g>
</g>
<!-- Node1&#45;&gt;Node6 -->
<g id="edge5" class="edge">
<title>Node1&#45;&gt;Node6</title>
<path fill="none" stroke="midnightblue" d="M48.65,-463.65C61.12,-478.7 87.31,-507.62 116,-523 120.28,-525.29 124.83,-527.31 129.52,-529.09"/>
<polygon fill="midnightblue" stroke="midnightblue" points="128.65,-532.5 139.25,-532.42 130.92,-525.88 128.65,-532.5"/>
</g>
<!-- Node7 -->
<g id="node7" class="node">
<title>Node7</title>
<g id="a_node7"><a xlink:href="../app__camerapipeline_8c.html#a6604aab86443a19b0ea52e2819196880" target="_top" xlink:title=" ">
<polygon fill="white" stroke="black" points="127,-483 127,-513 262,-513 262,-483 127,-483"/>
<text text-anchor="start" x="135" y="-501" font-family="Helvetica,sans-Serif" font-size="10.00">CameraPipeline_NNPipe</text>
<text text-anchor="middle" x="194.5" y="-490" font-family="Helvetica,sans-Serif" font-size="10.00">_Start</text>
</a>
</g>
</g>
<!-- Node1&#45;&gt;Node7 -->
<g id="edge6" class="edge">
<title>Node1&#45;&gt;Node7</title>
<path fill="none" stroke="midnightblue" d="M74.09,-463.55C90.88,-468.39 111.82,-474.43 131.47,-480.1"/>
<polygon fill="midnightblue" stroke="midnightblue" points="130.71,-483.53 141.28,-482.93 132.65,-476.8 130.71,-483.53"/>
</g>
<!-- Node8 -->
<g id="node8" class="node">
<title>Node8</title>
<g id="a_node8"><a xlink:href="../main_8c.html#ad3d97f9133c8867eb9ad3084a51c46b1" target="_top" xlink:title="Render inference results on the LCD foreground overlay layer.">
<polygon fill="white" stroke="black" points="128,-444.5 128,-463.5 261,-463.5 261,-444.5 128,-444.5"/>
<text text-anchor="middle" x="194.5" y="-451.5" font-family="Helvetica,sans-Serif" font-size="10.00">Display_NetworkOutput</text>
</a>
</g>
</g>
<!-- Node1&#45;&gt;Node8 -->
<g id="edge7" class="edge">
<title>Node1&#45;&gt;Node8</title>
<path fill="none" stroke="midnightblue" d="M80.27,-454C91.69,-454 104.57,-454 117.45,-454"/>
<polygon fill="midnightblue" stroke="midnightblue" points="117.74,-457.5 127.74,-454 117.74,-450.5 117.74,-457.5"/>
</g>
<!-- Node16 -->
<g id="node16" class="node">
<title>Node16</title>
<g id="a_node16"><a xlink:href="../main_8c.html#a1696a94f558858d8375527b1cdad1511" target="_top" xlink:title="Initialize all hardware peripherals required for the application.">
<polygon fill="white" stroke="black" points="152,-361.5 152,-380.5 237,-380.5 237,-361.5 152,-361.5"/>
<text text-anchor="middle" x="194.5" y="-368.5" font-family="Helvetica,sans-Serif" font-size="10.00">Hardware_init</text>
</a>
</g>
</g>
<!-- Node1&#45;&gt;Node16 -->
<g id="edge15" class="edge">
<title>Node1&#45;&gt;Node16</title>
<path fill="none" stroke="midnightblue" d="M58.49,-444.48C85.01,-430.05 135.58,-402.52 166.74,-385.56"/>
<polygon fill="midnightblue" stroke="midnightblue" points="168.63,-388.52 175.74,-380.67 165.28,-382.37 168.63,-388.52"/>
</g>
<!-- Node23 -->
<g id="node23" class="node">
<title>Node23</title>
<g id="a_node23"><a xlink:href="../crop__img_8c.html#af3014051229e2ae9f0d4073800b6b93f" target="_top" xlink:title=" ">
<polygon fill="white" stroke="black" points="163.5,-323.5 163.5,-342.5 225.5,-342.5 225.5,-323.5 163.5,-323.5"/>
<text text-anchor="middle" x="194.5" y="-330.5" font-family="Helvetica,sans-Serif" font-size="10.00">img_crop</text>
</a>
</g>
</g>
<!-- Node1&#45;&gt;Node23 -->
<g id="edge22" class="edge">
<title>Node1&#45;&gt;Node23</title>
<path fill="none" stroke="midnightblue" d="M45.23,-444.39C54.73,-423.97 79.8,-376.16 116,-352 127,-344.66 140.58,-340.15 153.28,-337.38"/>
<polygon fill="midnightblue" stroke="midnightblue" points="154.02,-340.8 163.21,-335.51 152.73,-333.92 154.02,-340.8"/>
</g>
<!-- Node24 -->
<g id="node24" class="node">
<title>Node24</title>
<g id="a_node24"><a xlink:href="../main_8c.html#a2364be520d87157dbabbceee436bf5b7" target="_top" xlink:title="Initialize the LCD display with dual&#45;layer configuration.">
<polygon fill="white" stroke="black" points="166,-133.5 166,-152.5 223,-152.5 223,-133.5 166,-133.5"/>
<text text-anchor="middle" x="194.5" y="-140.5" font-family="Helvetica,sans-Serif" font-size="10.00">LCD_init</text>
</a>
</g>
</g>
<!-- Node1&#45;&gt;Node24 -->
<g id="edge23" class="edge">
<title>Node1&#45;&gt;Node24</title>
<path fill="none" stroke="midnightblue" d="M45.73,-444.35C67.17,-400.63 155.39,-220.72 184.29,-161.79"/>
<polygon fill="midnightblue" stroke="midnightblue" points="187.56,-163.06 188.82,-152.54 181.28,-159.97 187.56,-163.06"/>
</g>
<!-- Node31 -->
<g id="node31" class="node">
<title>Node31</title>
<g id="a_node31"><a xlink:href="../main_8c.html#ac1f1cfce64f9317b0379b64c56878950" target="_top" xlink:title="Initialize the Neural Network input/output buffer pointers.">
<polygon fill="white" stroke="black" points="139,-95.5 139,-114.5 250,-114.5 250,-95.5 139,-95.5"/>
<text text-anchor="middle" x="194.5" y="-102.5" font-family="Helvetica,sans-Serif" font-size="10.00">NeuralNetwork_init</text>
</a>
</g>
</g>
<!-- Node1&#45;&gt;Node31 -->
<g id="edge31" class="edge">
<title>Node1&#45;&gt;Node31</title>
<path fill="none" stroke="midnightblue" d="M41.84,-444.41C46.34,-395.22 69.15,-171.66 116,-124 119.95,-119.99 124.59,-116.77 129.61,-114.2"/>
<polygon fill="midnightblue" stroke="midnightblue" points="131.15,-117.35 138.99,-110.22 128.42,-110.9 131.15,-117.35"/>
</g>
<!-- Node4 -->
<g id="node4" class="node">
<title>Node4</title>
<g id="a_node4"><a xlink:href="../app__camerapipeline_8c.html#aedc9ebb49775f70f6090d97da59f84bf" target="_top" xlink:title=" ">
<polygon fill="white" stroke="black" points="316,-608.5 316,-627.5 450,-627.5 450,-608.5 316,-608.5"/>
<text text-anchor="middle" x="383" y="-615.5" font-family="Helvetica,sans-Serif" font-size="10.00">DCMIPP_PipeInitDisplay</text>
</a>
</g>
</g>
<!-- Node3&#45;&gt;Node4 -->
<g id="edge3" class="edge">
<title>Node3&#45;&gt;Node4</title>
<path fill="none" stroke="midnightblue" d="M242.56,-589.59C267.73,-594.72 298.9,-601.07 325.38,-606.46"/>
<polygon fill="midnightblue" stroke="midnightblue" points="324.78,-609.91 335.28,-608.48 326.18,-603.05 324.78,-609.91"/>
</g>
<!-- Node5 -->
<g id="node5" class="node">
<title>Node5</title>
<g id="a_node5"><a xlink:href="../app__camerapipeline_8c.html#ae278283c26c312efa04dbdcd26a69664" target="_top" xlink:title=" ">
<polygon fill="white" stroke="black" points="328,-570.5 328,-589.5 438,-589.5 438,-570.5 328,-570.5"/>
<text text-anchor="middle" x="383" y="-577.5" font-family="Helvetica,sans-Serif" font-size="10.00">DCMIPP_PipeInitNn</text>
</a>
</g>
</g>
<!-- Node3&#45;&gt;Node5 -->
<g id="edge4" class="edge">
<title>Node3&#45;&gt;Node5</title>
<path fill="none" stroke="midnightblue" d="M252.22,-580C272.85,-580 296.31,-580 317.56,-580"/>
<polygon fill="midnightblue" stroke="midnightblue" points="317.79,-583.5 327.79,-580 317.79,-576.5 317.79,-583.5"/>
</g>
<!-- Node9 -->
<g id="node9" class="node">
<title>Node9</title>
<g id="a_node9"><a xlink:href="../display__mpe_8c.html#ad1fe7138bda00f1de29e05121ed85cee" target="_top" xlink:title=" ">
<polygon fill="white" stroke="black" points="316.5,-532.5 316.5,-551.5 449.5,-551.5 449.5,-532.5 316.5,-532.5"/>
<text text-anchor="middle" x="383" y="-539.5" font-family="Helvetica,sans-Serif" font-size="10.00">Display_mpe_Detection</text>
</a>
</g>
</g>
<!-- Node8&#45;&gt;Node9 -->
<g id="edge8" class="edge">
<title>Node8&#45;&gt;Node9</title>
<path fill="none" stroke="midnightblue" d="M251.7,-463.56C259.22,-466.23 266.56,-469.64 273,-474 295.38,-489.14 286.63,-507.83 309,-523 312.05,-525.07 315.32,-526.91 318.71,-528.56"/>
<polygon fill="midnightblue" stroke="midnightblue" points="317.35,-531.78 327.93,-532.45 320.08,-525.34 317.35,-531.78"/>
</g>
<!-- Node12 -->
<g id="node12" class="node">
<title>Node12</title>
<g id="a_node12"><a xlink:href="../display__spe_8c.html#a49c33466ffd28bd79079f74627ae7e07" target="_top" xlink:title=" ">
<polygon fill="white" stroke="black" points="319,-494.5 319,-513.5 447,-513.5 447,-494.5 319,-494.5"/>
<text text-anchor="middle" x="383" y="-501.5" font-family="Helvetica,sans-Serif" font-size="10.00">Display_spe_Detection</text>
</a>
</g>
</g>
<!-- Node8&#45;&gt;Node12 -->
<g id="edge11" class="edge">
<title>Node8&#45;&gt;Node12</title>
<path fill="none" stroke="midnightblue" d="M233.83,-463.53C246.35,-466.74 260.29,-470.42 273,-474 289.1,-478.54 292.9,-480.45 309,-485 317.15,-487.31 325.84,-489.66 334.29,-491.89"/>
<polygon fill="midnightblue" stroke="midnightblue" points="333.47,-495.29 344.03,-494.44 335.24,-488.52 333.47,-495.29"/>
</g>
<!-- Node15 -->
<g id="node15" class="node">
<title>Node15</title>
<g id="a_node15"><a xlink:href="../main_8c.html#a848d8421fb3b66fb8f98c5c33a83748f" target="_top" xlink:title="Display the welcome screen for the first 4 seconds after boot.">
<polygon fill="white" stroke="black" points="314.5,-456.5 314.5,-475.5 451.5,-475.5 451.5,-456.5 314.5,-456.5"/>
<text text-anchor="middle" x="383" y="-463.5" font-family="Helvetica,sans-Serif" font-size="10.00">Display_WelcomeScreen</text>
</a>
</g>
</g>
<!-- Node8&#45;&gt;Node15 -->
<g id="edge14" class="edge">
<title>Node8&#45;&gt;Node15</title>
<path fill="none" stroke="midnightblue" d="M261.25,-458.23C275.09,-459.12 289.82,-460.07 304.06,-460.98"/>
<polygon fill="midnightblue" stroke="midnightblue" points="304.11,-464.5 314.32,-461.65 304.56,-457.51 304.11,-464.5"/>
</g>
<!-- Node10 -->
<g id="node10" class="node">
<title>Node10</title>
<g id="a_node10"><a xlink:href="../display__mpe_8c.html#a0c3681e4be0208d983ee84706172d7a8" target="_top" xlink:title=" ">
<polygon fill="white" stroke="black" points="496,-570.5 496,-589.5 591,-589.5 591,-570.5 496,-570.5"/>
<text text-anchor="middle" x="543.5" y="-577.5" font-family="Helvetica,sans-Serif" font-size="10.00">Display_binding</text>
</a>
</g>
</g>
<!-- Node9&#45;&gt;Node10 -->
<g id="edge9" class="edge">
<title>Node9&#45;&gt;Node10</title>
<path fill="none" stroke="midnightblue" d="M424,-551.59C444.91,-556.6 470.71,-562.79 492.89,-568.11"/>
<polygon fill="midnightblue" stroke="midnightblue" points="492.25,-571.55 502.79,-570.48 493.88,-564.74 492.25,-571.55"/>
</g>
<!-- Node11 -->
<g id="node11" class="node">
<title>Node11</title>
<g id="a_node11"><a xlink:href="../display__mpe_8c.html#af6788281922831b4982dd40ac181c346" target="_top" xlink:title=" ">
<polygon fill="white" stroke="black" points="493,-532.5 493,-551.5 594,-551.5 594,-532.5 493,-532.5"/>
<text text-anchor="middle" x="543.5" y="-539.5" font-family="Helvetica,sans-Serif" font-size="10.00">Display_keypoint</text>
</a>
</g>
</g>
<!-- Node9&#45;&gt;Node11 -->
<g id="edge10" class="edge">
<title>Node9&#45;&gt;Node11</title>
<path fill="none" stroke="midnightblue" d="M449.84,-542C460.67,-542 471.84,-542 482.52,-542"/>
<polygon fill="midnightblue" stroke="midnightblue" points="482.57,-545.5 492.57,-542 482.57,-538.5 482.57,-545.5"/>
</g>
<!-- Node13 -->
<g id="node13" class="node">
<title>Node13</title>
<g id="a_node13"><a xlink:href="../display__spe_8c.html#a787aab0ae8f912bd380294e7db222ccf" target="_top" xlink:title=" ">
<polygon fill="white" stroke="black" points="496,-494.5 496,-513.5 591,-513.5 591,-494.5 496,-494.5"/>
<text text-anchor="middle" x="543.5" y="-501.5" font-family="Helvetica,sans-Serif" font-size="10.00">Display_binding</text>
</a>
</g>
</g>
<!-- Node12&#45;&gt;Node13 -->
<g id="edge12" class="edge">
<title>Node12&#45;&gt;Node13</title>
<path fill="none" stroke="midnightblue" d="M447.1,-504C459.78,-504 473.03,-504 485.49,-504"/>
<polygon fill="midnightblue" stroke="midnightblue" points="485.74,-507.5 495.74,-504 485.74,-500.5 485.74,-507.5"/>
</g>
<!-- Node14 -->
<g id="node14" class="node">
<title>Node14</title>
<g id="a_node14"><a xlink:href="../display__spe_8c.html#a9c802acdd128f147549c3fd6c03fedd9" target="_top" xlink:title=" ">
<polygon fill="white" stroke="black" points="493,-456.5 493,-475.5 594,-475.5 594,-456.5 493,-456.5"/>
<text text-anchor="middle" x="543.5" y="-463.5" font-family="Helvetica,sans-Serif" font-size="10.00">Display_keypoint</text>
</a>
</g>
</g>
<!-- Node12&#45;&gt;Node14 -->
<g id="edge13" class="edge">
<title>Node12&#45;&gt;Node14</title>
<path fill="none" stroke="midnightblue" d="M424,-494.41C444.91,-489.4 470.71,-483.21 492.89,-477.89"/>
<polygon fill="midnightblue" stroke="midnightblue" points="493.88,-481.26 502.79,-475.52 492.25,-474.45 493.88,-481.26"/>
</g>
<!-- Node17 -->
<g id="node17" class="node">
<title>Node17</title>
<g id="a_node17"><a xlink:href="../main_8c.html#a887d55f5fa5284e320ee0efde4b56773" target="_top" xlink:title="Configure the Illegal Access Controller (IAC).">
<polygon fill="white" stroke="black" points="348.5,-418.5 348.5,-437.5 417.5,-437.5 417.5,-418.5 348.5,-418.5"/>
<text text-anchor="middle" x="383" y="-425.5" font-family="Helvetica,sans-Serif" font-size="10.00">IAC_Config</text>
</a>
</g>
</g>
<!-- Node16&#45;&gt;Node17 -->
<g id="edge16" class="edge">
<title>Node16&#45;&gt;Node17</title>
<path fill="none" stroke="midnightblue" d="M222.4,-380.58C245.29,-388.6 279.12,-400.12 309,-409 318.5,-411.82 328.77,-414.64 338.52,-417.2"/>
<polygon fill="midnightblue" stroke="midnightblue" points="337.87,-420.65 348.43,-419.78 339.63,-413.88 337.87,-420.65"/>
</g>
<!-- Node18 -->
<g id="node18" class="node">
<title>Node18</title>
<g id="a_node18"><a xlink:href="../main_8c.html#ad288614c598f155c75b84f66ec54cb24" target="_top" xlink:title="Initialize and enable the NPU AXI cache.">
<polygon fill="white" stroke="black" points="332,-380.5 332,-399.5 434,-399.5 434,-380.5 332,-380.5"/>
<text text-anchor="middle" x="383" y="-387.5" font-family="Helvetica,sans-Serif" font-size="10.00">NPUCache_config</text>
</a>
</g>
</g>
<!-- Node16&#45;&gt;Node18 -->
<g id="edge17" class="edge">
<title>Node16&#45;&gt;Node18</title>
<path fill="none" stroke="midnightblue" d="M237.35,-375.26C262.11,-377.79 293.9,-381.03 321.37,-383.82"/>
<polygon fill="midnightblue" stroke="midnightblue" points="321.36,-387.34 331.66,-384.87 322.07,-380.38 321.36,-387.34"/>
</g>
<!-- Node19 -->
<g id="node19" class="node">
<title>Node19</title>
<g id="a_node19"><a xlink:href="../main_8c.html#af97a2122d6e97966d6079ca567e79539" target="_top" xlink:title="Enable the NPU clock and all four NPU SRAM banks.">
<polygon fill="white" stroke="black" points="334,-342.5 334,-361.5 432,-361.5 432,-342.5 334,-342.5"/>
<text text-anchor="middle" x="383" y="-349.5" font-family="Helvetica,sans-Serif" font-size="10.00">NPURam_enable</text>
</a>
</g>
</g>
<!-- Node16&#45;&gt;Node19 -->
<g id="edge18" class="edge">
<title>Node16&#45;&gt;Node19</title>
<path fill="none" stroke="midnightblue" d="M237.35,-366.74C262.8,-364.14 295.66,-360.8 323.64,-357.95"/>
<polygon fill="midnightblue" stroke="midnightblue" points="324.1,-361.42 333.7,-356.92 323.39,-354.45 324.1,-361.42"/>
</g>
<!-- Node20 -->
<g id="node20" class="node">
<title>Node20</title>
<g id="a_node20"><a xlink:href="../main_8c.html#aec4d05c3579cfa27c2368b589115b9fe" target="_top" xlink:title="Configure TrustZone security attributes for hardware peripherals.">
<polygon fill="white" stroke="black" points="337,-304.5 337,-323.5 429,-323.5 429,-304.5 337,-304.5"/>
<text text-anchor="middle" x="383" y="-311.5" font-family="Helvetica,sans-Serif" font-size="10.00">Security_Config</text>
</a>
</g>
</g>
<!-- Node16&#45;&gt;Node20 -->
<g id="edge19" class="edge">
<title>Node16&#45;&gt;Node20</title>
<path fill="none" stroke="midnightblue" d="M237.1,-362.78C248.88,-359.93 261.6,-356.33 273,-352 289.91,-345.58 292.13,-339.54 309,-333 315.32,-330.55 322.06,-328.31 328.8,-326.3"/>
<polygon fill="midnightblue" stroke="midnightblue" points="329.96,-329.62 338.63,-323.53 328.05,-322.88 329.96,-329.62"/>
</g>
<!-- Node21 -->
<g id="node21" class="node">
<title>Node21</title>
<g id="a_node21"><a xlink:href="../main_8c.html#a49b44219d58f7d21e7e71a4d2ef80323" target="_top" xlink:title="Configure peripheral clocks to remain active during CPU sleep.">
<polygon fill="white" stroke="black" points="325,-266.5 325,-285.5 441,-285.5 441,-266.5 325,-266.5"/>
<text text-anchor="middle" x="383" y="-273.5" font-family="Helvetica,sans-Serif" font-size="10.00">set_clk_sleep_mode</text>
</a>
</g>
</g>
<!-- Node16&#45;&gt;Node21 -->
<g id="edge20" class="edge">
<title>Node16&#45;&gt;Node21</title>
<path fill="none" stroke="midnightblue" d="M237.03,-366.86C249.46,-364.09 262.54,-359.53 273,-352 297.32,-334.49 284.81,-312.68 309,-295 311.64,-293.07 314.47,-291.33 317.41,-289.77"/>
<polygon fill="midnightblue" stroke="midnightblue" points="318.89,-292.94 326.54,-285.6 315.99,-286.58 318.89,-292.94"/>
</g>
<!-- Node22 -->
<g id="node22" class="node">
<title>Node22</title>
<g id="a_node22"><a xlink:href="../main_8c.html#ad554cbf06ce0fa6f92a0c4152b8a4c64" target="_top" xlink:title="Configure the system clock tree using four PLLs.">
<polygon fill="white" stroke="black" points="325,-228.5 325,-247.5 441,-247.5 441,-228.5 325,-228.5"/>
<text text-anchor="middle" x="383" y="-235.5" font-family="Helvetica,sans-Serif" font-size="10.00">SystemClock_Config</text>
</a>
</g>
</g>
<!-- Node16&#45;&gt;Node22 -->
<g id="edge21" class="edge">
<title>Node16&#45;&gt;Node22</title>
<path fill="none" stroke="midnightblue" d="M237.21,-368.26C249.93,-365.59 263.14,-360.72 273,-352 306.81,-322.08 275.4,-287.16 309,-257 311,-255.2 313.16,-253.57 315.42,-252.09"/>
<polygon fill="midnightblue" stroke="midnightblue" points="317.51,-254.93 324.64,-247.09 314.18,-248.78 317.51,-254.93"/>
</g>
<!-- Node25 -->
<g id="node25" class="node">
<title>Node25</title>
<g id="a_node25"><a xlink:href="../main_8c.html#a4f87d4368bb5a302894eaaf57211b5b9" target="_top" xlink:title="Clamp a point to the LCD background area boundaries.">
<polygon fill="white" stroke="black" points="505,-133.5 505,-152.5 582,-152.5 582,-133.5 505,-133.5"/>
<text text-anchor="middle" x="543.5" y="-140.5" font-family="Helvetica,sans-Serif" font-size="10.00">clamp_point</text>
</a>
</g>
</g>
<!-- Node24&#45;&gt;Node25 -->
<g id="edge24" class="edge">
<title>Node24&#45;&gt;Node25</title>
<path fill="none" stroke="midnightblue" d="M217.15,-152.59C239.6,-161.98 275.98,-175.62 309,-181 373.92,-191.58 392.66,-194.65 457,-181 478.39,-176.46 500.92,-166.19 517.48,-157.47"/>
<polygon fill="midnightblue" stroke="midnightblue" points="519.37,-160.43 526.48,-152.57 516.03,-154.28 519.37,-160.43"/>
</g>
<!-- Node26 -->
<g id="node26" class="node">
<title>Node26</title>
<g id="a_node26"><a xlink:href="../main_8c.html#a07fb501dfddc6efffc69a2097633c5a9" target="_top" xlink:title="Convert normalized [0,1] dimensions to LCD pixel dimensions.">
<polygon fill="white" stroke="black" points="338.5,-152.5 338.5,-171.5 427.5,-171.5 427.5,-152.5 338.5,-152.5"/>
<text text-anchor="middle" x="383" y="-159.5" font-family="Helvetica,sans-Serif" font-size="10.00">convert_length</text>
</a>
</g>
</g>
<!-- Node24&#45;&gt;Node26 -->
<g id="edge25" class="edge">
<title>Node24&#45;&gt;Node26</title>
<path fill="none" stroke="midnightblue" d="M223.02,-145.8C250.57,-148.61 293.69,-153 328.07,-156.51"/>
<polygon fill="midnightblue" stroke="midnightblue" points="328.13,-160.03 338.44,-157.56 328.84,-153.07 328.13,-160.03"/>
</g>
<!-- Node27 -->
<g id="node27" class="node">
<title>Node27</title>
<g id="a_node27"><a xlink:href="../main_8c.html#a3eec05468c9b3239dd9a2a3d0a662989" target="_top" xlink:title="Convert normalized [0,1] coordinates to LCD pixel coordinates.">
<polygon fill="white" stroke="black" points="341.5,-114.5 341.5,-133.5 424.5,-133.5 424.5,-114.5 341.5,-114.5"/>
<text text-anchor="middle" x="383" y="-121.5" font-family="Helvetica,sans-Serif" font-size="10.00">convert_point</text>
</a>
</g>
</g>
<!-- Node24&#45;&gt;Node27 -->
<g id="edge26" class="edge">
<title>Node24&#45;&gt;Node27</title>
<path fill="none" stroke="midnightblue" d="M223.02,-140.2C251.42,-137.3 296.38,-132.72 331.25,-129.17"/>
<polygon fill="midnightblue" stroke="midnightblue" points="331.67,-132.65 341.26,-128.15 330.96,-125.68 331.67,-132.65"/>
</g>
<!-- Node28 -->
<g id="node28" class="node">
<title>Node28</title>
<g id="a_node28"><a xlink:href="../main_8c.html#a208e4f5220b9e5a2167264f042399457" target="_top" xlink:title="Draw a skeleton connection line between two keypoints on the LCD.">
<polygon fill="white" stroke="black" points="324,-76.5 324,-95.5 442,-95.5 442,-76.5 324,-76.5"/>
<text text-anchor="middle" x="383" y="-83.5" font-family="Helvetica,sans-Serif" font-size="10.00">Display_binding_line</text>
</a>
</g>
</g>
<!-- Node24&#45;&gt;Node28 -->
<g id="edge27" class="edge">
<title>Node24&#45;&gt;Node28</title>
<path fill="none" stroke="midnightblue" d="M223.26,-137.92C238.26,-134.75 256.94,-130.1 273,-124 289.91,-117.58 292.13,-111.54 309,-105 315.32,-102.55 322.06,-100.31 328.8,-98.3"/>
<polygon fill="midnightblue" stroke="midnightblue" points="329.96,-101.62 338.63,-95.53 328.05,-94.88 329.96,-101.62"/>
</g>
<!-- Node29 -->
<g id="node29" class="node">
<title>Node29</title>
<g id="a_node29"><a xlink:href="../display__mpe_8c.html#ada7df60aafb7c69c4d21d4432de36077" target="_top" xlink:title=" ">
<polygon fill="white" stroke="black" points="309,-38.5 309,-57.5 457,-57.5 457,-38.5 309,-38.5"/>
<text text-anchor="middle" x="383" y="-45.5" font-family="Helvetica,sans-Serif" font-size="10.00">Display_mpe_InitFunctions</text>
</a>
</g>
</g>
<!-- Node24&#45;&gt;Node29 -->
<g id="edge29" class="edge">
<title>Node24&#45;&gt;Node29</title>
<path fill="none" stroke="midnightblue" d="M223.09,-141.32C238.93,-139.18 258.5,-134.44 273,-124 297.32,-106.49 284.81,-84.68 309,-67 311.64,-65.07 314.47,-63.33 317.41,-61.77"/>
<polygon fill="midnightblue" stroke="midnightblue" points="318.89,-64.94 326.54,-57.6 315.99,-58.58 318.89,-64.94"/>
</g>
<!-- Node30 -->
<g id="node30" class="node">
<title>Node30</title>
<g id="a_node30"><a xlink:href="../display__spe_8c.html#a3ed08537d23a3bd4f4cc83b7c5da5529" target="_top" xlink:title=" ">
<polygon fill="white" stroke="black" points="311.5,-0.5 311.5,-19.5 454.5,-19.5 454.5,-0.5 311.5,-0.5"/>
<text text-anchor="middle" x="383" y="-7.5" font-family="Helvetica,sans-Serif" font-size="10.00">Display_spe_InitFunctions</text>
</a>
</g>
</g>
<!-- Node24&#45;&gt;Node30 -->
<g id="edge30" class="edge">
<title>Node24&#45;&gt;Node30</title>
<path fill="none" stroke="midnightblue" d="M223.17,-142.44C239.43,-140.72 259.41,-136.03 273,-124 306.81,-94.08 275.4,-59.16 309,-29 310.74,-27.44 312.6,-26 314.54,-24.68"/>
<polygon fill="midnightblue" stroke="midnightblue" points="316.56,-27.55 323.55,-19.59 313.12,-21.46 316.56,-27.55"/>
</g>
<!-- Node28&#45;&gt;Node25 -->
<g id="edge28" class="edge">
<title>Node28&#45;&gt;Node25</title>
<path fill="none" stroke="midnightblue" d="M425.66,-95.59C436,-98.31 446.99,-101.5 457,-105 476.61,-111.86 497.97,-121.35 514.43,-129.13"/>
<polygon fill="midnightblue" stroke="midnightblue" points="512.98,-132.31 523.51,-133.48 516,-126 512.98,-132.31"/>
</g>
</g>
</svg>
