<?xml version="1.0" encoding="UTF-8" standalone="no"?>
<!DOCTYPE svg PUBLIC "-//W3C//DTD SVG 1.1//EN"
 "http://www.w3.org/Graphics/SVG/1.1/DTD/svg11.dtd">
<!-- Generated by graphviz version 2.43.0 (0)
 -->
<!-- Title: main.h Pages: 1 -->
<svg width="434pt" height="140pt"
 viewBox="0.00 0.00 433.50 140.00" xmlns="http://www.w3.org/2000/svg" xmlns:xlink="http://www.w3.org/1999/xlink">
<g id="graph0" class="graph" transform="scale(1 1) rotate(0) translate(4 136)">
<title>main.h</title>
<polygon fill="white" stroke="transparent" points="-4,4 -4,-136 429.5,-136 429.5,4 -4,4"/>
<!-- Node1 -->
<g id="node1" class="node">
<title>Node1</title>
<g id="a_node1"><a xlink:title=" ">
<polygon fill="#bfbfbf" stroke="black" points="228.5,-112.5 228.5,-131.5 278.5,-131.5 278.5,-112.5 228.5,-112.5"/>
<text text-anchor="middle" x="253.5" y="-119.5" font-family="Helvetica,sans-Serif" font-size="10.00">main.h</text>
</a>
</g>
</g>
<!-- Node2 -->
<g id="node2" class="node">
<title>Node2</title>
<g id="a_node2"><a xlink:href="../display__keypoints__13_8h.html" target="_top" xlink:title=" ">
<polygon fill="white" stroke="black" points="0,-56.5 0,-75.5 131,-75.5 131,-56.5 0,-56.5"/>
<text text-anchor="middle" x="65.5" y="-63.5" font-family="Helvetica,sans-Serif" font-size="10.00">display_keypoints_13.h</text>
</a>
</g>
</g>
<!-- Node1&#45;&gt;Node2 -->
<g id="edge1" class="edge">
<title>Node1&#45;&gt;Node2</title>
<path fill="none" stroke="midnightblue" d="M218.23,-110.87C182.81,-100.69 128.8,-85.18 95.41,-75.59"/>
<polygon fill="midnightblue" stroke="midnightblue" points="217.57,-114.32 228.15,-113.72 219.5,-107.59 217.57,-114.32"/>
</g>
<!-- Node3 -->
<g id="node3" class="node">
<title>Node3</title>
<g id="a_node3"><a xlink:href="../display__spe_8c.html" target="_top" xlink:title=" ">
<polygon fill="white" stroke="black" points="92,-0.5 92,-19.5 175,-19.5 175,-0.5 92,-0.5"/>
<text text-anchor="middle" x="133.5" y="-7.5" font-family="Helvetica,sans-Serif" font-size="10.00">display_spe.c</text>
</a>
</g>
</g>
<!-- Node1&#45;&gt;Node3 -->
<g id="edge6" class="edge">
<title>Node1&#45;&gt;Node3</title>
<path fill="none" stroke="midnightblue" d="M225.15,-107.69C210.23,-99.81 192.23,-88.86 178.5,-76 160.27,-58.92 145.22,-33.27 138.04,-19.87"/>
<polygon fill="midnightblue" stroke="midnightblue" points="223.94,-111 234.44,-112.41 227.12,-104.76 223.94,-111"/>
</g>
<!-- Node4 -->
<g id="node4" class="node">
<title>Node4</title>
<g id="a_node4"><a xlink:href="../display__keypoints__17_8h.html" target="_top" xlink:title=" ">
<polygon fill="white" stroke="black" points="188,-56.5 188,-75.5 319,-75.5 319,-56.5 188,-56.5"/>
<text text-anchor="middle" x="253.5" y="-63.5" font-family="Helvetica,sans-Serif" font-size="10.00">display_keypoints_17.h</text>
</a>
</g>
</g>
<!-- Node1&#45;&gt;Node4 -->
<g id="edge3" class="edge">
<title>Node1&#45;&gt;Node4</title>
<path fill="none" stroke="midnightblue" d="M253.5,-101.8C253.5,-92.91 253.5,-82.78 253.5,-75.75"/>
<polygon fill="midnightblue" stroke="midnightblue" points="250,-102.08 253.5,-112.08 257,-102.08 250,-102.08"/>
</g>
<!-- Node5 -->
<g id="node5" class="node">
<title>Node5</title>
<g id="a_node5"><a xlink:href="../display__mpe_8c.html" target="_top" xlink:title=" ">
<polygon fill="white" stroke="black" points="235,-0.5 235,-19.5 322,-19.5 322,-0.5 235,-0.5"/>
<text text-anchor="middle" x="278.5" y="-7.5" font-family="Helvetica,sans-Serif" font-size="10.00">display_mpe.c</text>
</a>
</g>
</g>
<!-- Node1&#45;&gt;Node5 -->
<g id="edge5" class="edge">
<title>Node1&#45;&gt;Node5</title>
<path fill="none" stroke="midnightblue" d="M287.85,-109.39C303.16,-102.3 319.7,-91.54 328.5,-76 340.85,-54.2 312.58,-31.65 293.71,-19.69"/>
<polygon fill="midnightblue" stroke="midnightblue" points="286.39,-106.21 278.55,-113.34 289.12,-112.65 286.39,-106.21"/>
</g>
<!-- Node6 -->
<g id="node6" class="node">
<title>Node6</title>
<g id="a_node6"><a xlink:href="../main_8c.html" target="_top" xlink:title="Main firmware entry point for the STM32N6570&#45;DK pose estimation application running on the Neural&#45;ART...">
<polygon fill="white" stroke="black" points="375.5,-56.5 375.5,-75.5 425.5,-75.5 425.5,-56.5 375.5,-56.5"/>
<text text-anchor="middle" x="400.5" y="-63.5" font-family="Helvetica,sans-Serif" font-size="10.00">main.c</text>
</a>
</g>
</g>
<!-- Node1&#45;&gt;Node6 -->
<g id="edge7" class="edge">
<title>Node1&#45;&gt;Node6</title>
<path fill="none" stroke="midnightblue" d="M286.42,-108.91C314.06,-98.75 352.84,-84.51 377.32,-75.52"/>
<polygon fill="midnightblue" stroke="midnightblue" points="284.97,-105.71 276.79,-112.44 287.39,-112.28 284.97,-105.71"/>
</g>
<!-- Node2&#45;&gt;Node3 -->
<g id="edge2" class="edge">
<title>Node2&#45;&gt;Node3</title>
<path fill="none" stroke="midnightblue" d="M84.26,-50.1C96.5,-40.38 112.06,-28.03 122.38,-19.83"/>
<polygon fill="midnightblue" stroke="midnightblue" points="82.08,-47.36 76.43,-56.32 86.43,-52.85 82.08,-47.36"/>
</g>
<!-- Node4&#45;&gt;Node5 -->
<g id="edge4" class="edge">
<title>Node4&#45;&gt;Node5</title>
<path fill="none" stroke="midnightblue" d="M261.84,-46.98C266.08,-37.82 271.05,-27.09 274.45,-19.75"/>
<polygon fill="midnightblue" stroke="midnightblue" points="258.65,-45.54 257.63,-56.08 265.01,-48.48 258.65,-45.54"/>
</g>
</g>
</svg>
