<?xml version="1.0" encoding="UTF-8" standalone="no"?>
<!DOCTYPE svg PUBLIC "-//W3C//DTD SVG 1.1//EN"
 "http://www.w3.org/Graphics/SVG/1.1/DTD/svg11.dtd">
<!-- Generated by graphviz version 2.43.0 (0)
 -->
<!-- Title: NPUCache_config Pages: 1 -->
<svg width="347pt" height="28pt"
 viewBox="0.00 0.00 347.00 28.00" xmlns="http://www.w3.org/2000/svg" xmlns:xlink="http://www.w3.org/1999/xlink">
<g id="graph0" class="graph" transform="scale(1 1) rotate(0) translate(4 24)">
<title>NPUCache_config</title>
<polygon fill="white" stroke="transparent" points="-4,4 -4,-24 343,-24 343,4 -4,4"/>
<!-- Node1 -->
<g id="node1" class="node">
<title>Node1</title>
<g id="a_node1"><a xlink:title="Initialize and enable the NPU AXI cache.">
<polygon fill="#bfbfbf" stroke="black" points="237,-0.5 237,-19.5 339,-19.5 339,-0.5 237,-0.5"/>
<text text-anchor="middle" x="288" y="-7.5" font-family="Helvetica,sans-Serif" font-size="10.00">NPUCache_config</text>
</a>
</g>
</g>
<!-- Node2 -->
<g id="node2" class="node">
<title>Node2</title>
<g id="a_node2"><a xlink:href="../main_8c.html#a1696a94f558858d8375527b1cdad1511" target="_top" xlink:title="Initialize all hardware peripherals required for the application.">
<polygon fill="white" stroke="black" points="116,-0.5 116,-19.5 201,-19.5 201,-0.5 116,-0.5"/>
<text text-anchor="middle" x="158.5" y="-7.5" font-family="Helvetica,sans-Serif" font-size="10.00">Hardware_init</text>
</a>
</g>
</g>
<!-- Node1&#45;&gt;Node2 -->
<g id="edge1" class="edge">
<title>Node1&#45;&gt;Node2</title>
<path fill="none" stroke="midnightblue" d="M226.85,-10C218.15,-10 209.37,-10 201.15,-10"/>
<polygon fill="midnightblue" stroke="midnightblue" points="226.97,-13.5 236.97,-10 226.97,-6.5 226.97,-13.5"/>
</g>
<!-- Node3 -->
<g id="node3" class="node">
<title>Node3</title>
<g id="a_node3"><a xlink:href="../main_8c.html#a69d29ef3499c0b385325c4225e6085a5" target="_top" xlink:title="LCD background framebuffer — camera preview.">
<polygon fill="white" stroke="black" points="0,-0.5 0,-19.5 80,-19.5 80,-0.5 0,-0.5"/>
<text text-anchor="middle" x="40" y="-7.5" font-family="Helvetica,sans-Serif" font-size="10.00">__attribute__</text>
</a>
</g>
</g>
<!-- Node2&#45;&gt;Node3 -->
<g id="edge2" class="edge">
<title>Node2&#45;&gt;Node3</title>
<path fill="none" stroke="midnightblue" d="M105.5,-10C96.97,-10 88.26,-10 80.11,-10"/>
<polygon fill="midnightblue" stroke="midnightblue" points="105.77,-13.5 115.77,-10 105.77,-6.5 105.77,-13.5"/>
</g>
</g>
</svg>
