<?xml version="1.0" encoding="UTF-8" standalone="no"?>
<!DOCTYPE svg PUBLIC "-//W3C//DTD SVG 1.1//EN"
 "http://www.w3.org/Graphics/SVG/1.1/DTD/svg11.dtd">
<!-- Generated by graphviz version 2.43.0 (0)
 -->
<!-- Title: Display_NetworkOutput Pages: 1 -->
<svg width="451pt" height="142pt"
 viewBox="0.00 0.00 451.00 142.00" xmlns="http://www.w3.org/2000/svg" xmlns:xlink="http://www.w3.org/1999/xlink">
<g id="graph0" class="graph" transform="scale(1 1) rotate(0) translate(4 138)">
<title>Display_NetworkOutput</title>
<polygon fill="white" stroke="transparent" points="-4,4 -4,-138 447,-138 447,4 -4,4"/>
<!-- Node1 -->
<g id="node1" class="node">
<title>Node1</title>
<g id="a_node1"><a xlink:title="Render inference results on the LCD foreground overlay layer.">
<polygon fill="#bfbfbf" stroke="black" points="0,-38.5 0,-57.5 133,-57.5 133,-38.5 0,-38.5"/>
<text text-anchor="middle" x="66.5" y="-45.5" font-family="Helvetica,sans-Serif" font-size="10.00">Display_NetworkOutput</text>
</a>
</g>
</g>
<!-- Node2 -->
<g id="node2" class="node">
<title>Node2</title>
<g id="a_node2"><a xlink:href="../display__mpe_8c.html#ad1fe7138bda00f1de29e05121ed85cee" target="_top" xlink:title=" ">
<polygon fill="white" stroke="black" points="171,-76.5 171,-95.5 304,-95.5 304,-76.5 171,-76.5"/>
<text text-anchor="middle" x="237.5" y="-83.5" font-family="Helvetica,sans-Serif" font-size="10.00">Display_mpe_Detection</text>
</a>
</g>
</g>
<!-- Node1&#45;&gt;Node2 -->
<g id="edge1" class="edge">
<title>Node1&#45;&gt;Node2</title>
<path fill="none" stroke="midnightblue" d="M110.15,-57.59C132.65,-62.65 160.45,-68.9 184.24,-74.25"/>
<polygon fill="midnightblue" stroke="midnightblue" points="183.64,-77.7 194.16,-76.48 185.17,-70.87 183.64,-77.7"/>
</g>
<!-- Node5 -->
<g id="node5" class="node">
<title>Node5</title>
<g id="a_node5"><a xlink:href="../display__spe_8c.html#a49c33466ffd28bd79079f74627ae7e07" target="_top" xlink:title=" ">
<polygon fill="white" stroke="black" points="173.5,-38.5 173.5,-57.5 301.5,-57.5 301.5,-38.5 173.5,-38.5"/>
<text text-anchor="middle" x="237.5" y="-45.5" font-family="Helvetica,sans-Serif" font-size="10.00">Display_spe_Detection</text>
</a>
</g>
</g>
<!-- Node1&#45;&gt;Node5 -->
<g id="edge4" class="edge">
<title>Node1&#45;&gt;Node5</title>
<path fill="none" stroke="midnightblue" d="M133.32,-48C143.09,-48 153.21,-48 163.12,-48"/>
<polygon fill="midnightblue" stroke="midnightblue" points="163.35,-51.5 173.35,-48 163.35,-44.5 163.35,-51.5"/>
</g>
<!-- Node8 -->
<g id="node8" class="node">
<title>Node8</title>
<g id="a_node8"><a xlink:href="../main_8c.html#a848d8421fb3b66fb8f98c5c33a83748f" target="_top" xlink:title="Display the welcome screen for the first 4 seconds after boot.">
<polygon fill="white" stroke="black" points="169,-0.5 169,-19.5 306,-19.5 306,-0.5 169,-0.5"/>
<text text-anchor="middle" x="237.5" y="-7.5" font-family="Helvetica,sans-Serif" font-size="10.00">Display_WelcomeScreen</text>
</a>
</g>
</g>
<!-- Node1&#45;&gt;Node8 -->
<g id="edge7" class="edge">
<title>Node1&#45;&gt;Node8</title>
<path fill="none" stroke="midnightblue" d="M110.15,-38.41C132.65,-33.35 160.45,-27.1 184.24,-21.75"/>
<polygon fill="midnightblue" stroke="midnightblue" points="185.17,-25.13 194.16,-19.52 183.64,-18.3 185.17,-25.13"/>
</g>
<!-- Node3 -->
<g id="node3" class="node">
<title>Node3</title>
<g id="a_node3"><a xlink:href="../display__mpe_8c.html#a0c3681e4be0208d983ee84706172d7a8" target="_top" xlink:title=" ">
<polygon fill="white" stroke="black" points="345,-114.5 345,-133.5 440,-133.5 440,-114.5 345,-114.5"/>
<text text-anchor="middle" x="392.5" y="-121.5" font-family="Helvetica,sans-Serif" font-size="10.00">Display_binding</text>
</a>
</g>
</g>
<!-- Node2&#45;&gt;Node3 -->
<g id="edge2" class="edge">
<title>Node2&#45;&gt;Node3</title>
<path fill="none" stroke="midnightblue" d="M277.11,-95.59C297.21,-100.58 321.98,-106.73 343.32,-112.03"/>
<polygon fill="midnightblue" stroke="midnightblue" points="342.62,-115.47 353.17,-114.48 344.31,-108.67 342.62,-115.47"/>
</g>
<!-- Node4 -->
<g id="node4" class="node">
<title>Node4</title>
<g id="a_node4"><a xlink:href="../display__mpe_8c.html#af6788281922831b4982dd40ac181c346" target="_top" xlink:title=" ">
<polygon fill="white" stroke="black" points="342,-76.5 342,-95.5 443,-95.5 443,-76.5 342,-76.5"/>
<text text-anchor="middle" x="392.5" y="-83.5" font-family="Helvetica,sans-Serif" font-size="10.00">Display_keypoint</text>
</a>
</g>
</g>
<!-- Node2&#45;&gt;Node4 -->
<g id="edge3" class="edge">
<title>Node2&#45;&gt;Node4</title>
<path fill="none" stroke="midnightblue" d="M304.27,-86C313.45,-86 322.84,-86 331.9,-86"/>
<polygon fill="midnightblue" stroke="midnightblue" points="331.96,-89.5 341.96,-86 331.96,-82.5 331.96,-89.5"/>
</g>
<!-- Node6 -->
<g id="node6" class="node">
<title>Node6</title>
<g id="a_node6"><a xlink:href="../display__spe_8c.html#a787aab0ae8f912bd380294e7db222ccf" target="_top" xlink:title=" ">
<polygon fill="white" stroke="black" points="345,-38.5 345,-57.5 440,-57.5 440,-38.5 345,-38.5"/>
<text text-anchor="middle" x="392.5" y="-45.5" font-family="Helvetica,sans-Serif" font-size="10.00">Display_binding</text>
</a>
</g>
</g>
<!-- Node5&#45;&gt;Node6 -->
<g id="edge5" class="edge">
<title>Node5&#45;&gt;Node6</title>
<path fill="none" stroke="midnightblue" d="M301.61,-48C312.59,-48 323.95,-48 334.75,-48"/>
<polygon fill="midnightblue" stroke="midnightblue" points="334.89,-51.5 344.89,-48 334.89,-44.5 334.89,-51.5"/>
</g>
<!-- Node7 -->
<g id="node7" class="node">
<title>Node7</title>
<g id="a_node7"><a xlink:href="../display__spe_8c.html#a9c802acdd128f147549c3fd6c03fedd9" target="_top" xlink:title=" ">
<polygon fill="white" stroke="black" points="342,-0.5 342,-19.5 443,-19.5 443,-0.5 342,-0.5"/>
<text text-anchor="middle" x="392.5" y="-7.5" font-family="Helvetica,sans-Serif" font-size="10.00">Display_keypoint</text>
</a>
</g>
</g>
<!-- Node5&#45;&gt;Node7 -->
<g id="edge6" class="edge">
<title>Node5&#45;&gt;Node7</title>
<path fill="none" stroke="midnightblue" d="M277.11,-38.41C297.21,-33.42 321.98,-27.27 343.32,-21.97"/>
<polygon fill="midnightblue" stroke="midnightblue" points="344.31,-25.33 353.17,-19.52 342.62,-18.53 344.31,-25.33"/>
</g>
</g>
</svg>
