<?xml version="1.0" encoding="UTF-8" standalone="no"?>
<!DOCTYPE svg PUBLIC "-//W3C//DTD SVG 1.1//EN"
 "http://www.w3.org/Graphics/SVG/1.1/DTD/svg11.dtd">
<!-- Generated by graphviz version 2.43.0 (0)
 -->
<!-- Title: data_loader._normalize_labels Pages: 1 -->
<svg width="799pt" height="78pt"
 viewBox="0.00 0.00 799.00 77.50" xmlns="http://www.w3.org/2000/svg" xmlns:xlink="http://www.w3.org/1999/xlink">
<g id="graph0" class="graph" transform="scale(1 1) rotate(0) translate(4 73.5)">
<title>data_loader._normalize_labels</title>
<polygon fill="white" stroke="transparent" points="-4,4 -4,-73.5 795,-73.5 795,4 -4,4"/>
<!-- Node1 -->
<g id="node1" class="node">
<title>Node1</title>
<g id="a_node1"><a xlink:title=" ">
<polygon fill="#bfbfbf" stroke="black" points="660,-22.5 660,-52.5 791,-52.5 791,-22.5 660,-22.5"/>
<text text-anchor="start" x="668" y="-40.5" font-family="Helvetica,sans-Serif" font-size="10.00">data_loader._normalize</text>
<text text-anchor="middle" x="725.5" y="-29.5" font-family="Helvetica,sans-Serif" font-size="10.00">_labels</text>
</a>
</g>
</g>
<!-- Node2 -->
<g id="node2" class="node">
<title>Node2</title>
<g id="a_node2"><a xlink:href="../namespacedata__loader.html#aacb518b38997abe818fa7d287629e786" target="_top" xlink:title=" ">
<polygon fill="white" stroke="black" points="499,-22.5 499,-52.5 624,-52.5 624,-22.5 499,-22.5"/>
<text text-anchor="start" x="507" y="-40.5" font-family="Helvetica,sans-Serif" font-size="10.00">data_loader._get_path</text>
<text text-anchor="middle" x="561.5" y="-29.5" font-family="Helvetica,sans-Serif" font-size="10.00">_dataset</text>
</a>
</g>
</g>
<!-- Node1&#45;&gt;Node2 -->
<g id="edge1" class="edge">
<title>Node1&#45;&gt;Node2</title>
<path fill="none" stroke="midnightblue" d="M649.3,-37.5C640.84,-37.5 632.31,-37.5 624.05,-37.5"/>
<polygon fill="midnightblue" stroke="midnightblue" points="649.54,-41 659.54,-37.5 649.54,-34 649.54,-41"/>
</g>
<!-- Node3 -->
<g id="node3" class="node">
<title>Node3</title>
<g id="a_node3"><a xlink:href="../namespacedata__loader.html#aa5abe0ecef3ff61a0625128c84452a5d" target="_top" xlink:title=" ">
<polygon fill="white" stroke="black" points="343.5,-50 343.5,-69 457.5,-69 457.5,-50 343.5,-50"/>
<text text-anchor="middle" x="400.5" y="-57" font-family="Helvetica,sans-Serif" font-size="10.00">data_loader._get_ds</text>
</a>
</g>
</g>
<!-- Node2&#45;&gt;Node3 -->
<g id="edge2" class="edge">
<title>Node2&#45;&gt;Node3</title>
<path fill="none" stroke="midnightblue" d="M488.65,-47.44C478.22,-48.88 467.61,-50.35 457.56,-51.74"/>
<polygon fill="midnightblue" stroke="midnightblue" points="489.15,-50.91 498.57,-46.07 488.19,-43.97 489.15,-50.91"/>
</g>
<!-- Node6 -->
<g id="node6" class="node">
<title>Node6</title>
<g id="a_node6"><a xlink:href="../namespacedata__loader.html#a9aacd5ef04c40893225f36a5088e7c0e" target="_top" xlink:title=" ">
<polygon fill="white" stroke="black" points="338,-0.5 338,-30.5 463,-30.5 463,-0.5 338,-0.5"/>
<text text-anchor="start" x="346" y="-18.5" font-family="Helvetica,sans-Serif" font-size="10.00">data_loader._get_train</text>
<text text-anchor="middle" x="400.5" y="-7.5" font-family="Helvetica,sans-Serif" font-size="10.00">_val_ds</text>
</a>
</g>
</g>
<!-- Node2&#45;&gt;Node6 -->
<g id="edge5" class="edge">
<title>Node2&#45;&gt;Node6</title>
<path fill="none" stroke="midnightblue" d="M488.41,-27.53C480.01,-26.36 471.5,-25.19 463.26,-24.05"/>
<polygon fill="midnightblue" stroke="midnightblue" points="488.19,-31.03 498.57,-28.93 489.15,-24.09 488.19,-31.03"/>
</g>
<!-- Node4 -->
<g id="node4" class="node">
<title>Node4</title>
<g id="a_node4"><a xlink:href="../namespacedata__loader.html#a2a79d830a8a311a7c7946d45c3d834a3" target="_top" xlink:title=" ">
<polygon fill="white" stroke="black" points="162,-28 162,-47 302,-47 302,-28 162,-28"/>
<text text-anchor="middle" x="232" y="-35" font-family="Helvetica,sans-Serif" font-size="10.00">data_loader.load_dataset</text>
</a>
</g>
</g>
<!-- Node3&#45;&gt;Node4 -->
<g id="edge3" class="edge">
<title>Node3&#45;&gt;Node4</title>
<path fill="none" stroke="midnightblue" d="M333.06,-50.72C322.85,-49.37 312.28,-47.98 302.01,-46.62"/>
<polygon fill="midnightblue" stroke="midnightblue" points="332.76,-54.21 343.13,-52.05 333.68,-47.27 332.76,-54.21"/>
</g>
<!-- Node5 -->
<g id="node5" class="node">
<title>Node5</title>
<g id="a_node5"><a xlink:href="../namespacepreprocess.html#a64f651cc0d35bc20aadcef1c3a184a2a" target="_top" xlink:title=" ">
<polygon fill="white" stroke="black" points="0,-28 0,-47 126,-47 126,-28 0,-28"/>
<text text-anchor="middle" x="63" y="-35" font-family="Helvetica,sans-Serif" font-size="10.00">preprocess.preprocess</text>
</a>
</g>
</g>
<!-- Node4&#45;&gt;Node5 -->
<g id="edge4" class="edge">
<title>Node4&#45;&gt;Node5</title>
<path fill="none" stroke="midnightblue" d="M151.37,-37.5C142.93,-37.5 134.43,-37.5 126.22,-37.5"/>
<polygon fill="midnightblue" stroke="midnightblue" points="151.63,-41 161.63,-37.5 151.63,-34 151.63,-41"/>
</g>
<!-- Node6&#45;&gt;Node4 -->
<g id="edge6" class="edge">
<title>Node6&#45;&gt;Node4</title>
<path fill="none" stroke="midnightblue" d="M328,-24.95C319.42,-26.08 310.67,-27.24 302.13,-28.37"/>
<polygon fill="midnightblue" stroke="midnightblue" points="328.52,-28.41 337.97,-23.63 327.6,-21.47 328.52,-28.41"/>
</g>
</g>
</svg>
