<?xml version="1.0" encoding="UTF-8" standalone="no"?>
<!DOCTYPE svg PUBLIC "-//W3C//DTD SVG 1.1//EN"
 "http://www.w3.org/Graphics/SVG/1.1/DTD/svg11.dtd">
<!-- Generated by graphviz version 2.43.0 (0)
 -->
<!-- Title: preprocess.preprocess Pages: 1 -->
<svg width="817pt" height="88pt"
 viewBox="0.00 0.00 817.00 88.00" xmlns="http://www.w3.org/2000/svg" xmlns:xlink="http://www.w3.org/1999/xlink">
<g id="graph0" class="graph" transform="scale(1 1) rotate(0) translate(4 84)">
<title>preprocess.preprocess</title>
<polygon fill="white" stroke="transparent" points="-4,4 -4,-84 813,-84 813,4 -4,4"/>
<!-- Node1 -->
<g id="node1" class="node">
<title>Node1</title>
<g id="a_node1"><a xlink:title=" ">
<polygon fill="#bfbfbf" stroke="black" points="0,-30 0,-49 126,-49 126,-30 0,-30"/>
<text text-anchor="middle" x="63" y="-37" font-family="Helvetica,sans-Serif" font-size="10.00">preprocess.preprocess</text>
</a>
</g>
</g>
<!-- Node2 -->
<g id="node2" class="node">
<title>Node2</title>
<g id="a_node2"><a xlink:href="../namespacedata__loader.html#a2a79d830a8a311a7c7946d45c3d834a3" target="_top" xlink:title=" ">
<polygon fill="white" stroke="black" points="162,-30 162,-49 302,-49 302,-30 162,-30"/>
<text text-anchor="middle" x="232" y="-37" font-family="Helvetica,sans-Serif" font-size="10.00">data_loader.load_dataset</text>
</a>
</g>
</g>
<!-- Node1&#45;&gt;Node2 -->
<g id="edge1" class="edge">
<title>Node1&#45;&gt;Node2</title>
<path fill="none" stroke="midnightblue" d="M126.18,-39.5C134.52,-39.5 143.15,-39.5 151.73,-39.5"/>
<polygon fill="midnightblue" stroke="midnightblue" points="151.74,-43 161.74,-39.5 151.74,-36 151.74,-43"/>
</g>
<!-- Node3 -->
<g id="node3" class="node">
<title>Node3</title>
<g id="a_node3"><a xlink:href="../namespacedata__loader.html#aa5abe0ecef3ff61a0625128c84452a5d" target="_top" xlink:title=" ">
<polygon fill="white" stroke="black" points="343.5,-52 343.5,-71 457.5,-71 457.5,-52 343.5,-52"/>
<text text-anchor="middle" x="400.5" y="-59" font-family="Helvetica,sans-Serif" font-size="10.00">data_loader._get_ds</text>
</a>
</g>
</g>
<!-- Node2&#45;&gt;Node3 -->
<g id="edge2" class="edge">
<title>Node2&#45;&gt;Node3</title>
<path fill="none" stroke="midnightblue" d="M302.16,-48.64C312.48,-50 323.1,-51.41 333.36,-52.76"/>
<polygon fill="midnightblue" stroke="midnightblue" points="333.09,-56.26 343.47,-54.1 334.01,-49.32 333.09,-56.26"/>
</g>
<!-- Node8 -->
<g id="node8" class="node">
<title>Node8</title>
<g id="a_node8"><a xlink:href="../namespacedata__loader.html#a9aacd5ef04c40893225f36a5088e7c0e" target="_top" xlink:title=" ">
<polygon fill="white" stroke="black" points="338,-2.5 338,-32.5 463,-32.5 463,-2.5 338,-2.5"/>
<text text-anchor="start" x="346" y="-20.5" font-family="Helvetica,sans-Serif" font-size="10.00">data_loader._get_train</text>
<text text-anchor="middle" x="400.5" y="-9.5" font-family="Helvetica,sans-Serif" font-size="10.00">_val_ds</text>
</a>
</g>
</g>
<!-- Node2&#45;&gt;Node8 -->
<g id="edge7" class="edge">
<title>Node2&#45;&gt;Node8</title>
<path fill="none" stroke="midnightblue" d="M302.16,-30.36C310.71,-29.23 319.45,-28.08 328.02,-26.94"/>
<polygon fill="midnightblue" stroke="midnightblue" points="328.53,-30.41 337.99,-25.63 327.62,-23.47 328.53,-30.41"/>
</g>
<!-- Node4 -->
<g id="node4" class="node">
<title>Node4</title>
<g id="a_node4"><a xlink:href="../namespacedata__loader.html#aacb518b38997abe818fa7d287629e786" target="_top" xlink:title=" ">
<polygon fill="white" stroke="black" points="504,-49.5 504,-79.5 629,-79.5 629,-49.5 504,-49.5"/>
<text text-anchor="start" x="512" y="-67.5" font-family="Helvetica,sans-Serif" font-size="10.00">data_loader._get_path</text>
<text text-anchor="middle" x="566.5" y="-56.5" font-family="Helvetica,sans-Serif" font-size="10.00">_dataset</text>
</a>
</g>
</g>
<!-- Node3&#45;&gt;Node4 -->
<g id="edge3" class="edge">
<title>Node3&#45;&gt;Node4</title>
<path fill="none" stroke="midnightblue" d="M457.94,-62.53C469.52,-62.74 481.86,-62.97 493.89,-63.19"/>
<polygon fill="midnightblue" stroke="midnightblue" points="493.85,-66.69 503.91,-63.37 493.97,-59.69 493.85,-66.69"/>
</g>
<!-- Node6 -->
<g id="node6" class="node">
<title>Node6</title>
<g id="a_node6"><a xlink:href="../namespacedata__loader.html#afbe478e627ff1519131e19a93f18c1ed" target="_top" xlink:title=" ">
<polygon fill="white" stroke="black" points="499,-0.5 499,-30.5 634,-30.5 634,-0.5 499,-0.5"/>
<text text-anchor="start" x="507" y="-18.5" font-family="Helvetica,sans-Serif" font-size="10.00">data_loader._preprocess</text>
<text text-anchor="middle" x="566.5" y="-7.5" font-family="Helvetica,sans-Serif" font-size="10.00">_function</text>
</a>
</g>
</g>
<!-- Node3&#45;&gt;Node6 -->
<g id="edge5" class="edge">
<title>Node3&#45;&gt;Node6</title>
<path fill="none" stroke="midnightblue" d="M435.48,-51.97C454.69,-46.58 479.32,-39.67 501.97,-33.32"/>
<polygon fill="midnightblue" stroke="midnightblue" points="503.19,-36.61 511.87,-30.54 501.3,-29.87 503.19,-36.61"/>
</g>
<!-- Node5 -->
<g id="node5" class="node">
<title>Node5</title>
<g id="a_node5"><a xlink:href="../namespacedata__loader.html#aabe60973e5e3bc958aa34fa142657963" target="_top" xlink:title=" ">
<polygon fill="white" stroke="black" points="674,-49.5 674,-79.5 805,-79.5 805,-49.5 674,-49.5"/>
<text text-anchor="start" x="682" y="-67.5" font-family="Helvetica,sans-Serif" font-size="10.00">data_loader._normalize</text>
<text text-anchor="middle" x="739.5" y="-56.5" font-family="Helvetica,sans-Serif" font-size="10.00">_labels</text>
</a>
</g>
</g>
<!-- Node4&#45;&gt;Node5 -->
<g id="edge4" class="edge">
<title>Node4&#45;&gt;Node5</title>
<path fill="none" stroke="midnightblue" d="M629.23,-64.5C640.48,-64.5 652.32,-64.5 663.9,-64.5"/>
<polygon fill="midnightblue" stroke="midnightblue" points="663.97,-68 673.97,-64.5 663.97,-61 663.97,-68"/>
</g>
<!-- Node7 -->
<g id="node7" class="node">
<title>Node7</title>
<g id="a_node7"><a xlink:href="../namespacedata__loader.html#a941107b6390a29d4eced4383bbc4c144" target="_top" xlink:title=" ">
<polygon fill="white" stroke="black" points="670,-0.5 670,-30.5 809,-30.5 809,-0.5 670,-0.5"/>
<text text-anchor="start" x="678" y="-18.5" font-family="Helvetica,sans-Serif" font-size="10.00">data_loader._get_padded</text>
<text text-anchor="middle" x="739.5" y="-7.5" font-family="Helvetica,sans-Serif" font-size="10.00">_labels</text>
</a>
</g>
</g>
<!-- Node6&#45;&gt;Node7 -->
<g id="edge6" class="edge">
<title>Node6&#45;&gt;Node7</title>
<path fill="none" stroke="midnightblue" d="M634.1,-15.5C642.53,-15.5 651.21,-15.5 659.8,-15.5"/>
<polygon fill="midnightblue" stroke="midnightblue" points="659.82,-19 669.82,-15.5 659.82,-12 659.82,-19"/>
</g>
<!-- Node8&#45;&gt;Node4 -->
<g id="edge8" class="edge">
<title>Node8&#45;&gt;Node4</title>
<path fill="none" stroke="midnightblue" d="M453.84,-32.5C469.52,-36.99 486.88,-41.97 503.14,-46.63"/>
<polygon fill="midnightblue" stroke="midnightblue" points="502.52,-50.09 513.09,-49.48 504.44,-43.36 502.52,-50.09"/>
</g>
<!-- Node8&#45;&gt;Node6 -->
<g id="edge9" class="edge">
<title>Node8&#45;&gt;Node6</title>
<path fill="none" stroke="midnightblue" d="M463.03,-16.75C471.46,-16.65 480.2,-16.54 488.85,-16.43"/>
<polygon fill="midnightblue" stroke="midnightblue" points="489,-19.93 498.95,-16.31 488.91,-12.93 489,-19.93"/>
</g>
</g>
</svg>
