<?xml version="1.0" encoding="UTF-8" standalone="no"?>
<!DOCTYPE svg PUBLIC "-//W3C//DTD SVG 1.1//EN"
 "http://www.w3.org/Graphics/SVG/1.1/DTD/svg11.dtd">
<!-- Generated by graphviz version 2.43.0 (0)
 -->
<!-- Title: metrics.single_pose_oks Pages: 1 -->
<svg width="297pt" height="78pt"
 viewBox="0.00 0.00 297.00 77.50" xmlns="http://www.w3.org/2000/svg" xmlns:xlink="http://www.w3.org/1999/xlink">
<g id="graph0" class="graph" transform="scale(1 1) rotate(0) translate(4 73.5)">
<title>metrics.single_pose_oks</title>
<polygon fill="white" stroke="transparent" points="-4,4 -4,-73.5 293,-73.5 293,4 -4,4"/>
<!-- Node1 -->
<g id="node1" class="node">
<title>Node1</title>
<g id="a_node1"><a xlink:title=" ">
<polygon fill="#bfbfbf" stroke="black" points="0,-28 0,-47 137,-47 137,-28 0,-28"/>
<text text-anchor="middle" x="68.5" y="-35" font-family="Helvetica,sans-Serif" font-size="10.00">metrics.single_pose_oks</text>
</a>
</g>
</g>
<!-- Node2 -->
<g id="node2" class="node">
<title>Node2</title>
<g id="a_node2"><a xlink:href="../namespacemetrics.html#ac634edf984073c1f09a574c6fa217738" target="_top" xlink:title=" ">
<polygon fill="white" stroke="black" points="173,-50 173,-69 289,-69 289,-50 173,-50"/>
<text text-anchor="middle" x="231" y="-57" font-family="Helvetica,sans-Serif" font-size="10.00">metrics._oks_matrix</text>
</a>
</g>
</g>
<!-- Node1&#45;&gt;Node2 -->
<g id="edge1" class="edge">
<title>Node1&#45;&gt;Node2</title>
<path fill="none" stroke="midnightblue" d="M137.1,-46.77C145.66,-47.94 154.42,-49.14 162.97,-50.31"/>
<polygon fill="midnightblue" stroke="midnightblue" points="162.5,-53.78 172.88,-51.67 163.45,-46.85 162.5,-53.78"/>
</g>
<!-- Node3 -->
<g id="node3" class="node">
<title>Node3</title>
<g id="a_node3"><a xlink:href="../namespacemetrics.html#a9aba1f16408cadc45e4fdfe24e44b7af" target="_top" xlink:title=" ">
<polygon fill="white" stroke="black" points="175,-0.5 175,-30.5 287,-30.5 287,-0.5 175,-0.5"/>
<text text-anchor="start" x="183" y="-18.5" font-family="Helvetica,sans-Serif" font-size="10.00">metrics._pose_area</text>
<text text-anchor="middle" x="231" y="-7.5" font-family="Helvetica,sans-Serif" font-size="10.00">_calculation</text>
</a>
</g>
</g>
<!-- Node1&#45;&gt;Node3 -->
<g id="edge2" class="edge">
<title>Node1&#45;&gt;Node3</title>
<path fill="none" stroke="midnightblue" d="M137.1,-28.23C146.19,-26.99 155.5,-25.71 164.55,-24.47"/>
<polygon fill="midnightblue" stroke="midnightblue" points="165.2,-27.92 174.63,-23.09 164.25,-20.98 165.2,-27.92"/>
</g>
</g>
</svg>
