<?xml version="1.0" encoding="UTF-8" standalone="no"?>
<!DOCTYPE svg PUBLIC "-//W3C//DTD SVG 1.1//EN"
 "http://www.w3.org/Graphics/SVG/1.1/DTD/svg11.dtd">
<!-- Generated by graphviz version 2.43.0 (0)
 -->
<!-- Title: parse_config.get_config Pages: 1 -->
<svg width="333pt" height="186pt"
 viewBox="0.00 0.00 333.00 186.00" xmlns="http://www.w3.org/2000/svg" xmlns:xlink="http://www.w3.org/1999/xlink">
<g id="graph0" class="graph" transform="scale(1 1) rotate(0) translate(4 182)">
<title>parse_config.get_config</title>
<polygon fill="white" stroke="transparent" points="-4,4 -4,-182 329,-182 329,4 -4,4"/>
<!-- Node1 -->
<g id="node1" class="node">
<title>Node1</title>
<g id="a_node1"><a xlink:title=" ">
<polygon fill="#bfbfbf" stroke="black" points="0,-79 0,-98 131,-98 131,-79 0,-79"/>
<text text-anchor="middle" x="65.5" y="-86" font-family="Helvetica,sans-Serif" font-size="10.00">parse_config.get_config</text>
</a>
</g>
</g>
<!-- Node2 -->
<g id="node2" class="node">
<title>Node2</title>
<g id="a_node2"><a xlink:href="../namespaceparse__config.html#a0bf66e5ac1f69032cfcf8106c8510ee0" target="_top" xlink:title=" ">
<polygon fill="white" stroke="black" points="167,-147.5 167,-177.5 325,-177.5 325,-147.5 167,-147.5"/>
<text text-anchor="start" x="175" y="-165.5" font-family="Helvetica,sans-Serif" font-size="10.00">parse_config._parse</text>
<text text-anchor="middle" x="246" y="-154.5" font-family="Helvetica,sans-Serif" font-size="10.00">_data_augmentation_section</text>
</a>
</g>
</g>
<!-- Node1&#45;&gt;Node2 -->
<g id="edge1" class="edge">
<title>Node1&#45;&gt;Node2</title>
<path fill="none" stroke="midnightblue" d="M83.54,-98.05C103.22,-108.83 136.78,-126.43 167,-138.5 171.81,-140.42 176.84,-142.28 181.92,-144.07"/>
<polygon fill="midnightblue" stroke="midnightblue" points="181.13,-147.49 191.73,-147.38 183.38,-140.86 181.13,-147.49"/>
</g>
<!-- Node3 -->
<g id="node3" class="node">
<title>Node3</title>
<g id="a_node3"><a xlink:href="../namespaceparse__config.html#acfc49e2bf58b3c6c8d2fafc1c4df1b2b" target="_top" xlink:title=" ">
<polygon fill="white" stroke="black" points="189.5,-98.5 189.5,-128.5 302.5,-128.5 302.5,-98.5 189.5,-98.5"/>
<text text-anchor="start" x="197.5" y="-116.5" font-family="Helvetica,sans-Serif" font-size="10.00">parse_config._parse</text>
<text text-anchor="middle" x="246" y="-105.5" font-family="Helvetica,sans-Serif" font-size="10.00">_dataset_section</text>
</a>
</g>
</g>
<!-- Node1&#45;&gt;Node3 -->
<g id="edge2" class="edge">
<title>Node1&#45;&gt;Node3</title>
<path fill="none" stroke="midnightblue" d="M131.19,-97.56C146.83,-99.75 163.55,-102.09 179.23,-104.29"/>
<polygon fill="midnightblue" stroke="midnightblue" points="178.97,-107.79 189.36,-105.71 179.95,-100.85 178.97,-107.79"/>
</g>
<!-- Node4 -->
<g id="node4" class="node">
<title>Node4</title>
<g id="a_node4"><a xlink:href="../namespaceparse__config.html#a55a94c086e5761879b9c86432ab7df7c" target="_top" xlink:title=" ">
<polygon fill="white" stroke="black" points="178,-49.5 178,-79.5 314,-79.5 314,-49.5 178,-49.5"/>
<text text-anchor="start" x="186" y="-67.5" font-family="Helvetica,sans-Serif" font-size="10.00">parse_config._parse</text>
<text text-anchor="middle" x="246" y="-56.5" font-family="Helvetica,sans-Serif" font-size="10.00">_postprocessing_section</text>
</a>
</g>
</g>
<!-- Node1&#45;&gt;Node4 -->
<g id="edge3" class="edge">
<title>Node1&#45;&gt;Node4</title>
<path fill="none" stroke="midnightblue" d="M131.19,-79.8C143.04,-78.21 155.52,-76.53 167.69,-74.89"/>
<polygon fill="midnightblue" stroke="midnightblue" points="168.38,-78.33 177.82,-73.53 167.45,-71.4 168.38,-78.33"/>
</g>
<!-- Node5 -->
<g id="node5" class="node">
<title>Node5</title>
<g id="a_node5"><a xlink:href="../namespaceparse__config.html#aab9263c54d21f9e1feddd2bce27427b8" target="_top" xlink:title=" ">
<polygon fill="white" stroke="black" points="180.5,-0.5 180.5,-30.5 311.5,-30.5 311.5,-0.5 180.5,-0.5"/>
<text text-anchor="start" x="188.5" y="-18.5" font-family="Helvetica,sans-Serif" font-size="10.00">parse_config._parse</text>
<text text-anchor="middle" x="246" y="-7.5" font-family="Helvetica,sans-Serif" font-size="10.00">_preprocessing_section</text>
</a>
</g>
</g>
<!-- Node1&#45;&gt;Node5 -->
<g id="edge4" class="edge">
<title>Node1&#45;&gt;Node5</title>
<path fill="none" stroke="midnightblue" d="M84.69,-78.89C104.57,-68.61 137.53,-52.2 167,-40.5 172.81,-38.19 178.93,-35.94 185.07,-33.79"/>
<polygon fill="midnightblue" stroke="midnightblue" points="186.37,-37.05 194.71,-30.51 184.12,-30.42 186.37,-37.05"/>
</g>
</g>
</svg>
