<?xml version="1.0" encoding="UTF-8" standalone="no"?>
<!DOCTYPE svg PUBLIC "-//W3C//DTD SVG 1.1//EN"
 "http://www.w3.org/Graphics/SVG/1.1/DTD/svg11.dtd">
<!-- Generated by graphviz version 2.43.0 (0)
 -->
<!-- Title: stm32ai_main.process_mode Pages: 1 -->
<svg width="671pt" height="256pt"
 viewBox="0.00 0.00 671.00 256.00" xmlns="http://www.w3.org/2000/svg" xmlns:xlink="http://www.w3.org/1999/xlink">
<g id="graph0" class="graph" transform="scale(1 1) rotate(0) translate(4 252)">
<title>stm32ai_main.process_mode</title>
<polygon fill="white" stroke="transparent" points="-4,4 -4,-252 667,-252 667,4 -4,4"/>
<!-- Node1 -->
<g id="node1" class="node">
<title>Node1</title>
<g id="a_node1"><a xlink:title=" ">
<polygon fill="#bfbfbf" stroke="black" points="0,-114.5 0,-133.5 160,-133.5 160,-114.5 0,-114.5"/>
<text text-anchor="middle" x="80" y="-121.5" font-family="Helvetica,sans-Serif" font-size="10.00">stm32ai_main.process_mode</text>
</a>
</g>
</g>
<!-- Node2 -->
<g id="node2" class="node">
<title>Node2</title>
<g id="a_node2"><a xlink:href="../namespacestm32ai__main.html#abbfd761001c5e75ee1f94db798898a14" target="_top" xlink:title=" ">
<polygon fill="white" stroke="black" points="199,-228.5 199,-247.5 338,-247.5 338,-228.5 199,-228.5"/>
<text text-anchor="middle" x="268.5" y="-235.5" font-family="Helvetica,sans-Serif" font-size="10.00">stm32ai_main.chain_eqe</text>
</a>
</g>
</g>
<!-- Node1&#45;&gt;Node2 -->
<g id="edge1" class="edge">
<title>Node1&#45;&gt;Node2</title>
<path fill="none" stroke="midnightblue" d="M89.83,-133.68C107.87,-152.87 151.09,-195.9 196,-219 200.52,-221.33 205.36,-223.39 210.3,-225.21"/>
<polygon fill="midnightblue" stroke="midnightblue" points="209.29,-228.56 219.89,-228.43 211.52,-221.93 209.29,-228.56"/>
</g>
<!-- Node3 -->
<g id="node3" class="node">
<title>Node3</title>
<g id="a_node3"><a xlink:href="../namespacestm32ai__main.html#a38bbc61827d08e317cbfe48366d5e041" target="_top" xlink:title=" ">
<polygon fill="white" stroke="black" points="196,-190.5 196,-209.5 341,-209.5 341,-190.5 196,-190.5"/>
<text text-anchor="middle" x="268.5" y="-197.5" font-family="Helvetica,sans-Serif" font-size="10.00">stm32ai_main.chain_eqeb</text>
</a>
</g>
</g>
<!-- Node1&#45;&gt;Node3 -->
<g id="edge2" class="edge">
<title>Node1&#45;&gt;Node3</title>
<path fill="none" stroke="midnightblue" d="M97.67,-133.59C119.63,-145.92 159.71,-167.34 196,-181 202.38,-183.4 209.19,-185.62 215.97,-187.64"/>
<polygon fill="midnightblue" stroke="midnightblue" points="215.27,-191.08 225.84,-190.44 217.18,-184.34 215.27,-191.08"/>
</g>
<!-- Node4 -->
<g id="node4" class="node">
<title>Node4</title>
<g id="a_node4"><a xlink:href="../namespacestm32ai__main.html#a34011c12ffc5885a2d9a0737461a6d83" target="_top" xlink:title=" ">
<polygon fill="white" stroke="black" points="202,-152.5 202,-171.5 335,-171.5 335,-152.5 202,-152.5"/>
<text text-anchor="middle" x="268.5" y="-159.5" font-family="Helvetica,sans-Serif" font-size="10.00">stm32ai_main.chain_qb</text>
</a>
</g>
</g>
<!-- Node1&#45;&gt;Node4 -->
<g id="edge3" class="edge">
<title>Node1&#45;&gt;Node4</title>
<path fill="none" stroke="midnightblue" d="M128.06,-133.59C153.23,-138.72 184.4,-145.07 210.88,-150.46"/>
<polygon fill="midnightblue" stroke="midnightblue" points="210.28,-153.91 220.78,-152.48 211.68,-147.05 210.28,-153.91"/>
</g>
<!-- Node5 -->
<g id="node5" class="node">
<title>Node5</title>
<g id="a_node5"><a xlink:href="../namespacestm32ai__main.html#a1d087592b8cc565c0d7735ecbaabbf23" target="_top" xlink:title=" ">
<polygon fill="white" stroke="black" points="202,-114.5 202,-133.5 335,-133.5 335,-114.5 202,-114.5"/>
<text text-anchor="middle" x="268.5" y="-121.5" font-family="Helvetica,sans-Serif" font-size="10.00">stm32ai_main.chain_qd</text>
</a>
</g>
</g>
<!-- Node1&#45;&gt;Node5 -->
<g id="edge4" class="edge">
<title>Node1&#45;&gt;Node5</title>
<path fill="none" stroke="midnightblue" d="M160.09,-124C170.52,-124 181.18,-124 191.55,-124"/>
<polygon fill="midnightblue" stroke="midnightblue" points="191.8,-127.5 201.8,-124 191.8,-120.5 191.8,-127.5"/>
</g>
<!-- Node6 -->
<g id="node6" class="node">
<title>Node6</title>
<g id="a_node6"><a xlink:href="../namespacedeploy.html#ade035e1e35eba041fb59e073ff2d91cb" target="_top" xlink:title=" ">
<polygon fill="white" stroke="black" points="377,-95.5 377,-114.5 488,-114.5 488,-95.5 377,-95.5"/>
<text text-anchor="middle" x="432.5" y="-102.5" font-family="Helvetica,sans-Serif" font-size="10.00">deploy.deploy_mpu</text>
</a>
</g>
</g>
<!-- Node1&#45;&gt;Node6 -->
<g id="edge9" class="edge">
<title>Node1&#45;&gt;Node6</title>
<path fill="none" stroke="midnightblue" d="M127.78,-114.49C148.58,-110.72 173.41,-106.85 196,-105 253.51,-100.28 319.19,-100.77 366.55,-102.15"/>
<polygon fill="midnightblue" stroke="midnightblue" points="366.57,-105.65 376.67,-102.47 366.79,-98.66 366.57,-105.65"/>
</g>
<!-- Node8 -->
<g id="node8" class="node">
<title>Node8</title>
<g id="a_node8"><a xlink:href="../namespacestm32ai__main.html#abb40f28bff527fd696b9a8c0c649c4c2" target="_top" xlink:title=" ">
<polygon fill="white" stroke="black" points="200,-38.5 200,-57.5 337,-57.5 337,-38.5 200,-38.5"/>
<text text-anchor="middle" x="268.5" y="-45.5" font-family="Helvetica,sans-Serif" font-size="10.00">stm32ai_main.chain_tqe</text>
</a>
</g>
</g>
<!-- Node1&#45;&gt;Node8 -->
<g id="edge7" class="edge">
<title>Node1&#45;&gt;Node8</title>
<path fill="none" stroke="midnightblue" d="M100.68,-114.37C123.38,-103.43 161.94,-85.38 196,-72 205.97,-68.08 216.88,-64.22 227.1,-60.77"/>
<polygon fill="midnightblue" stroke="midnightblue" points="228.25,-64.08 236.64,-57.61 226.04,-57.43 228.25,-64.08"/>
</g>
<!-- Node9 -->
<g id="node9" class="node">
<title>Node9</title>
<g id="a_node9"><a xlink:href="../namespacestm32ai__main.html#a44079280c9c0dc10f849c526d702da14" target="_top" xlink:title=" ">
<polygon fill="white" stroke="black" points="197,-0.5 197,-19.5 340,-19.5 340,-0.5 197,-0.5"/>
<text text-anchor="middle" x="268.5" y="-7.5" font-family="Helvetica,sans-Serif" font-size="10.00">stm32ai_main.chain_tqeb</text>
</a>
</g>
</g>
<!-- Node1&#45;&gt;Node9 -->
<g id="edge8" class="edge">
<title>Node1&#45;&gt;Node9</title>
<path fill="none" stroke="midnightblue" d="M89.83,-114.32C107.87,-95.13 151.09,-52.1 196,-29 200.52,-26.67 205.36,-24.61 210.3,-22.79"/>
<polygon fill="midnightblue" stroke="midnightblue" points="211.52,-26.07 219.89,-19.57 209.29,-19.44 211.52,-26.07"/>
</g>
<!-- Node5&#45;&gt;Node6 -->
<g id="edge5" class="edge">
<title>Node5&#45;&gt;Node6</title>
<path fill="none" stroke="midnightblue" d="M335.39,-116.27C345.71,-115.06 356.36,-113.81 366.65,-112.61"/>
<polygon fill="midnightblue" stroke="midnightblue" points="367.27,-116.06 376.8,-111.42 366.46,-109.1 367.27,-116.06"/>
</g>
<!-- Node7 -->
<g id="node7" class="node">
<title>Node7</title>
<g id="a_node7"><a xlink:href="../namespacecommon__deploy.html#a98d1d351c899bfbf088bc3ee23f3b2a5" target="_top" xlink:title=" ">
<polygon fill="white" stroke="black" points="524,-90 524,-120 663,-120 663,-90 524,-90"/>
<text text-anchor="start" x="532" y="-108" font-family="Helvetica,sans-Serif" font-size="10.00">common_deploy.stm32ai</text>
<text text-anchor="middle" x="593.5" y="-97" font-family="Helvetica,sans-Serif" font-size="10.00">_deploy_mpu</text>
</a>
</g>
</g>
<!-- Node6&#45;&gt;Node7 -->
<g id="edge6" class="edge">
<title>Node6&#45;&gt;Node7</title>
<path fill="none" stroke="midnightblue" d="M488.22,-105C496.48,-105 505.14,-105 513.79,-105"/>
<polygon fill="midnightblue" stroke="midnightblue" points="513.92,-108.5 523.92,-105 513.92,-101.5 513.92,-108.5"/>
</g>
</g>
</svg>
