<?xml version="1.0" encoding="UTF-8" standalone="no"?>
<!DOCTYPE svg PUBLIC "-//W3C//DTD SVG 1.1//EN"
 "http://www.w3.org/Graphics/SVG/1.1/DTD/svg11.dtd">
<!-- Generated by graphviz version 2.43.0 (0)
 -->
<!-- Title: quantize.quantize Pages: 1 -->
<svg width="297pt" height="78pt"
 viewBox="0.00 0.00 297.00 77.50" xmlns="http://www.w3.org/2000/svg" xmlns:xlink="http://www.w3.org/1999/xlink">
<g id="graph0" class="graph" transform="scale(1 1) rotate(0) translate(4 73.5)">
<title>quantize.quantize</title>
<polygon fill="white" stroke="transparent" points="-4,4 -4,-73.5 293,-73.5 293,4 -4,4"/>
<!-- Node1 -->
<g id="node1" class="node">
<title>Node1</title>
<g id="a_node1"><a xlink:title=" ">
<polygon fill="#bfbfbf" stroke="black" points="0,-22.5 0,-41.5 104,-41.5 104,-22.5 0,-22.5"/>
<text text-anchor="middle" x="52" y="-29.5" font-family="Helvetica,sans-Serif" font-size="10.00">quantize.quantize</text>
</a>
</g>
</g>
<!-- Node2 -->
<g id="node2" class="node">
<title>Node2</title>
<g id="a_node2"><a xlink:href="../namespacequantize.html#ad783ec6a8a183831e03024c72d483cb9" target="_top" xlink:title=" ">
<polygon fill="white" stroke="black" points="159.5,-39 159.5,-69 269.5,-69 269.5,-39 159.5,-39"/>
<text text-anchor="start" x="167.5" y="-57" font-family="Helvetica,sans-Serif" font-size="10.00">quantize._tflite_ptq</text>
<text text-anchor="middle" x="214.5" y="-46" font-family="Helvetica,sans-Serif" font-size="10.00">_quantizer</text>
</a>
</g>
</g>
<!-- Node1&#45;&gt;Node2 -->
<g id="edge1" class="edge">
<title>Node1&#45;&gt;Node2</title>
<path fill="none" stroke="midnightblue" d="M104.22,-39.02C118.54,-40.98 134.27,-43.14 149.23,-45.19"/>
<polygon fill="midnightblue" stroke="midnightblue" points="149.06,-48.7 159.44,-46.59 150.01,-41.76 149.06,-48.7"/>
</g>
<!-- Node3 -->
<g id="node3" class="node">
<title>Node3</title>
<g id="a_node3"><a xlink:href="../namespacepreprocess.html#af03c5fb6530b8d1d64891dbe4e62f3dd" target="_top" xlink:title=" ">
<polygon fill="white" stroke="black" points="140,-0.5 140,-19.5 289,-19.5 289,-0.5 140,-0.5"/>
<text text-anchor="middle" x="214.5" y="-7.5" font-family="Helvetica,sans-Serif" font-size="10.00">preprocess.apply_rescaling</text>
</a>
</g>
</g>
<!-- Node1&#45;&gt;Node3 -->
<g id="edge2" class="edge">
<title>Node1&#45;&gt;Node3</title>
<path fill="none" stroke="midnightblue" d="M104.22,-24.98C113.72,-23.68 123.84,-22.29 133.95,-20.9"/>
<polygon fill="midnightblue" stroke="midnightblue" points="134.59,-24.35 144.03,-19.52 133.64,-17.41 134.59,-24.35"/>
</g>
</g>
</svg>
