<?xml version="1.0" encoding="UTF-8" standalone="no"?>
<!DOCTYPE svg PUBLIC "-//W3C//DTD SVG 1.1//EN"
 "http://www.w3.org/Graphics/SVG/1.1/DTD/svg11.dtd">
<!-- Generated by graphviz version 2.43.0 (0)
 -->
<!-- Title: parse_config._parse_dataset_section Pages: 1 -->
<svg width="438pt" height="39pt"
 viewBox="0.00 0.00 438.00 39.00" xmlns="http://www.w3.org/2000/svg" xmlns:xlink="http://www.w3.org/1999/xlink">
<g id="graph0" class="graph" transform="scale(1 1) rotate(0) translate(4 35)">
<title>parse_config._parse_dataset_section</title>
<polygon fill="white" stroke="transparent" points="-4,4 -4,-35 434,-35 434,4 -4,4"/>
<!-- Node1 -->
<g id="node1" class="node">
<title>Node1</title>
<g id="a_node1"><a xlink:title=" ">
<polygon fill="#bfbfbf" stroke="black" points="317,-0.5 317,-30.5 430,-30.5 430,-0.5 317,-0.5"/>
<text text-anchor="start" x="325" y="-18.5" font-family="Helvetica,sans-Serif" font-size="10.00">parse_config._parse</text>
<text text-anchor="middle" x="373.5" y="-7.5" font-family="Helvetica,sans-Serif" font-size="10.00">_dataset_section</text>
</a>
</g>
</g>
<!-- Node2 -->
<g id="node2" class="node">
<title>Node2</title>
<g id="a_node2"><a xlink:href="../namespaceparse__config.html#abfe1966ebc2c0cc7cde6ac7932db5e9f" target="_top" xlink:title=" ">
<polygon fill="white" stroke="black" points="150,-6 150,-25 281,-25 281,-6 150,-6"/>
<text text-anchor="middle" x="215.5" y="-13" font-family="Helvetica,sans-Serif" font-size="10.00">parse_config.get_config</text>
</a>
</g>
</g>
<!-- Node1&#45;&gt;Node2 -->
<g id="edge1" class="edge">
<title>Node1&#45;&gt;Node2</title>
<path fill="none" stroke="midnightblue" d="M306.46,-15.5C298.04,-15.5 289.42,-15.5 281.02,-15.5"/>
<polygon fill="midnightblue" stroke="midnightblue" points="306.62,-19 316.62,-15.5 306.62,-12 306.62,-19"/>
</g>
<!-- Node3 -->
<g id="node3" class="node">
<title>Node3</title>
<g id="a_node3"><a xlink:href="../namespacestm32ai__main.html#ae0e69d0e3fd0c4e2f3e05a0f2105c432" target="_top" xlink:title=" ">
<polygon fill="white" stroke="black" points="0,-6 0,-25 114,-25 114,-6 0,-6"/>
<text text-anchor="middle" x="57" y="-13" font-family="Helvetica,sans-Serif" font-size="10.00">stm32ai_main.main</text>
</a>
</g>
</g>
<!-- Node2&#45;&gt;Node3 -->
<g id="edge2" class="edge">
<title>Node2&#45;&gt;Node3</title>
<path fill="none" stroke="midnightblue" d="M139.92,-15.5C131.34,-15.5 122.7,-15.5 114.41,-15.5"/>
<polygon fill="midnightblue" stroke="midnightblue" points="139.94,-19 149.94,-15.5 139.94,-12 139.94,-19"/>
</g>
</g>
</svg>
