<?xml version="1.0" encoding="UTF-8" standalone="no"?>
<!DOCTYPE svg PUBLIC "-//W3C//DTD SVG 1.1//EN"
 "http://www.w3.org/Graphics/SVG/1.1/DTD/svg11.dtd">
<!-- Generated by graphviz version 2.43.0 (0)
 -->
<!-- Title: common_deploy.stm32ai_deploy_mpu Pages: 1 -->
<svg width="809pt" height="53pt"
 viewBox="0.00 0.00 809.00 52.50" xmlns="http://www.w3.org/2000/svg" xmlns:xlink="http://www.w3.org/1999/xlink">
<g id="graph0" class="graph" transform="scale(1 1) rotate(0) translate(4 48.5)">
<title>common_deploy.stm32ai_deploy_mpu</title>
<polygon fill="white" stroke="transparent" points="-4,4 -4,-48.5 805,-48.5 805,4 -4,4"/>
<!-- Node1 -->
<g id="node1" class="node">
<title>Node1</title>
<g id="a_node1"><a xlink:title=" ">
<polygon fill="#bfbfbf" stroke="black" points="662,-0.5 662,-30.5 801,-30.5 801,-0.5 662,-0.5"/>
<text text-anchor="start" x="670" y="-18.5" font-family="Helvetica,sans-Serif" font-size="10.00">common_deploy.stm32ai</text>
<text text-anchor="middle" x="731.5" y="-7.5" font-family="Helvetica,sans-Serif" font-size="10.00">_deploy_mpu</text>
</a>
</g>
</g>
<!-- Node2 -->
<g id="node2" class="node">
<title>Node2</title>
<g id="a_node2"><a xlink:href="../namespacedeploy.html#ade035e1e35eba041fb59e073ff2d91cb" target="_top" xlink:title=" ">
<polygon fill="white" stroke="black" points="515,-6 515,-25 626,-25 626,-6 515,-6"/>
<text text-anchor="middle" x="570.5" y="-13" font-family="Helvetica,sans-Serif" font-size="10.00">deploy.deploy_mpu</text>
</a>
</g>
</g>
<!-- Node1&#45;&gt;Node2 -->
<g id="edge1" class="edge">
<title>Node1&#45;&gt;Node2</title>
<path fill="none" stroke="midnightblue" d="M651.58,-15.5C642.94,-15.5 634.3,-15.5 626.05,-15.5"/>
<polygon fill="midnightblue" stroke="midnightblue" points="651.69,-19 661.69,-15.5 651.69,-12 651.69,-19"/>
</g>
<!-- Node3 -->
<g id="node3" class="node">
<title>Node3</title>
<g id="a_node3"><a xlink:href="../namespacestm32ai__main.html#a1d087592b8cc565c0d7735ecbaabbf23" target="_top" xlink:title=" ">
<polygon fill="white" stroke="black" points="346,-25 346,-44 479,-44 479,-25 346,-25"/>
<text text-anchor="middle" x="412.5" y="-32" font-family="Helvetica,sans-Serif" font-size="10.00">stm32ai_main.chain_qd</text>
</a>
</g>
</g>
<!-- Node2&#45;&gt;Node3 -->
<g id="edge2" class="edge">
<title>Node2&#45;&gt;Node3</title>
<path fill="none" stroke="midnightblue" d="M505,-23.36C496.42,-24.4 487.62,-25.47 479.02,-26.52"/>
<polygon fill="midnightblue" stroke="midnightblue" points="505.44,-26.83 514.94,-22.15 504.59,-19.88 505.44,-26.83"/>
</g>
<!-- Node4 -->
<g id="node4" class="node">
<title>Node4</title>
<g id="a_node4"><a xlink:href="../namespacestm32ai__main.html#a4cbaa9ff30732c1dd564db78f0f9b0b7" target="_top" xlink:title=" ">
<polygon fill="white" stroke="black" points="150,-6 150,-25 310,-25 310,-6 150,-6"/>
<text text-anchor="middle" x="230" y="-13" font-family="Helvetica,sans-Serif" font-size="10.00">stm32ai_main.process_mode</text>
</a>
</g>
</g>
<!-- Node2&#45;&gt;Node4 -->
<g id="edge5" class="edge">
<title>Node2&#45;&gt;Node4</title>
<path fill="none" stroke="midnightblue" d="M504.7,-15.5C449.33,-15.5 369.49,-15.5 310.32,-15.5"/>
<polygon fill="midnightblue" stroke="midnightblue" points="504.74,-19 514.74,-15.5 504.74,-12 504.74,-19"/>
</g>
<!-- Node3&#45;&gt;Node4 -->
<g id="edge3" class="edge">
<title>Node3&#45;&gt;Node4</title>
<path fill="none" stroke="midnightblue" d="M335.65,-26.52C327.21,-25.63 318.61,-24.72 310.14,-23.83"/>
<polygon fill="midnightblue" stroke="midnightblue" points="335.51,-30.02 345.82,-27.59 336.25,-23.06 335.51,-30.02"/>
</g>
<!-- Node5 -->
<g id="node5" class="node">
<title>Node5</title>
<g id="a_node5"><a xlink:href="../namespacestm32ai__main.html#ae0e69d0e3fd0c4e2f3e05a0f2105c432" target="_top" xlink:title=" ">
<polygon fill="white" stroke="black" points="0,-6 0,-25 114,-25 114,-6 0,-6"/>
<text text-anchor="middle" x="57" y="-13" font-family="Helvetica,sans-Serif" font-size="10.00">stm32ai_main.main</text>
</a>
</g>
</g>
<!-- Node4&#45;&gt;Node5 -->
<g id="edge4" class="edge">
<title>Node4&#45;&gt;Node5</title>
<path fill="none" stroke="midnightblue" d="M139.48,-15.5C130.95,-15.5 122.46,-15.5 114.38,-15.5"/>
<polygon fill="midnightblue" stroke="midnightblue" points="139.51,-19 149.51,-15.5 139.51,-12 139.51,-19"/>
</g>
</g>
</svg>
