<?xml version="1.0" encoding="UTF-8" standalone="no"?>
<!DOCTYPE svg PUBLIC "-//W3C//DTD SVG 1.1//EN"
 "http://www.w3.org/Graphics/SVG/1.1/DTD/svg11.dtd">
<!-- Generated by graphviz version 2.43.0 (0)
 -->
<!-- Title: stm32ai_main.chain_tqe Pages: 1 -->
<svg width="491pt" height="28pt"
 viewBox="0.00 0.00 491.00 28.00" xmlns="http://www.w3.org/2000/svg" xmlns:xlink="http://www.w3.org/1999/xlink">
<g id="graph0" class="graph" transform="scale(1 1) rotate(0) translate(4 24)">
<title>stm32ai_main.chain_tqe</title>
<polygon fill="white" stroke="transparent" points="-4,4 -4,-24 487,-24 487,4 -4,4"/>
<!-- Node1 -->
<g id="node1" class="node">
<title>Node1</title>
<g id="a_node1"><a xlink:title=" ">
<polygon fill="#bfbfbf" stroke="black" points="346,-0.5 346,-19.5 483,-19.5 483,-0.5 346,-0.5"/>
<text text-anchor="middle" x="414.5" y="-7.5" font-family="Helvetica,sans-Serif" font-size="10.00">stm32ai_main.chain_tqe</text>
</a>
</g>
</g>
<!-- Node2 -->
<g id="node2" class="node">
<title>Node2</title>
<g id="a_node2"><a xlink:href="../namespacestm32ai__main.html#a4cbaa9ff30732c1dd564db78f0f9b0b7" target="_top" xlink:title=" ">
<polygon fill="white" stroke="black" points="150,-0.5 150,-19.5 310,-19.5 310,-0.5 150,-0.5"/>
<text text-anchor="middle" x="230" y="-7.5" font-family="Helvetica,sans-Serif" font-size="10.00">stm32ai_main.process_mode</text>
</a>
</g>
</g>
<!-- Node1&#45;&gt;Node2 -->
<g id="edge1" class="edge">
<title>Node1&#45;&gt;Node2</title>
<path fill="none" stroke="midnightblue" d="M335.66,-10C327.26,-10 318.71,-10 310.3,-10"/>
<polygon fill="midnightblue" stroke="midnightblue" points="335.8,-13.5 345.8,-10 335.8,-6.5 335.8,-13.5"/>
</g>
<!-- Node3 -->
<g id="node3" class="node">
<title>Node3</title>
<g id="a_node3"><a xlink:href="../namespacestm32ai__main.html#ae0e69d0e3fd0c4e2f3e05a0f2105c432" target="_top" xlink:title=" ">
<polygon fill="white" stroke="black" points="0,-0.5 0,-19.5 114,-19.5 114,-0.5 0,-0.5"/>
<text text-anchor="middle" x="57" y="-7.5" font-family="Helvetica,sans-Serif" font-size="10.00">stm32ai_main.main</text>
</a>
</g>
</g>
<!-- Node2&#45;&gt;Node3 -->
<g id="edge2" class="edge">
<title>Node2&#45;&gt;Node3</title>
<path fill="none" stroke="midnightblue" d="M139.48,-10C130.95,-10 122.46,-10 114.38,-10"/>
<polygon fill="midnightblue" stroke="midnightblue" points="139.51,-13.5 149.51,-10 139.51,-6.5 139.51,-13.5"/>
</g>
</g>
</svg>
