<?xml version="1.0" encoding="UTF-8" standalone="no"?>
<!DOCTYPE svg PUBLIC "-//W3C//DTD SVG 1.1//EN"
 "http://www.w3.org/Graphics/SVG/1.1/DTD/svg11.dtd">
<!-- Generated by graphviz version 2.43.0 (0)
 -->
<!-- Title: metrics.multi_pose_oks_mAP Pages: 1 -->
<svg width="321pt" height="116pt"
 viewBox="0.00 0.00 321.00 115.50" xmlns="http://www.w3.org/2000/svg" xmlns:xlink="http://www.w3.org/1999/xlink">
<g id="graph0" class="graph" transform="scale(1 1) rotate(0) translate(4 111.5)">
<title>metrics.multi_pose_oks_mAP</title>
<polygon fill="white" stroke="transparent" points="-4,4 -4,-111.5 317,-111.5 317,4 -4,4"/>
<!-- Node1 -->
<g id="node1" class="node">
<title>Node1</title>
<g id="a_node1"><a xlink:title=" ">
<polygon fill="#bfbfbf" stroke="black" points="0,-44.5 0,-74.5 110,-74.5 110,-44.5 0,-44.5"/>
<text text-anchor="start" x="8" y="-62.5" font-family="Helvetica,sans-Serif" font-size="10.00">metrics.multi_pose</text>
<text text-anchor="middle" x="55" y="-51.5" font-family="Helvetica,sans-Serif" font-size="10.00">_oks_mAP</text>
</a>
</g>
</g>
<!-- Node2 -->
<g id="node2" class="node">
<title>Node2</title>
<g id="a_node2"><a xlink:href="../namespacemetrics.html#afcee9efd052c77e4f53877b2a912e8b5" target="_top" xlink:title=" ">
<polygon fill="white" stroke="black" points="146,-88 146,-107 313,-107 313,-88 146,-88"/>
<text text-anchor="middle" x="229.5" y="-95" font-family="Helvetica,sans-Serif" font-size="10.00">metrics._matching_predictions</text>
</a>
</g>
</g>
<!-- Node1&#45;&gt;Node2 -->
<g id="edge1" class="edge">
<title>Node1&#45;&gt;Node2</title>
<path fill="none" stroke="midnightblue" d="M110.11,-71.42C130.91,-76 154.62,-81.23 175.34,-85.79"/>
<polygon fill="midnightblue" stroke="midnightblue" points="174.72,-89.24 185.24,-87.97 176.23,-82.4 174.72,-89.24"/>
</g>
<!-- Node3 -->
<g id="node3" class="node">
<title>Node3</title>
<g id="a_node3"><a xlink:href="../namespacemetrics.html#ac634edf984073c1f09a574c6fa217738" target="_top" xlink:title=" ">
<polygon fill="white" stroke="black" points="171.5,-50 171.5,-69 287.5,-69 287.5,-50 171.5,-50"/>
<text text-anchor="middle" x="229.5" y="-57" font-family="Helvetica,sans-Serif" font-size="10.00">metrics._oks_matrix</text>
</a>
</g>
</g>
<!-- Node1&#45;&gt;Node3 -->
<g id="edge2" class="edge">
<title>Node1&#45;&gt;Node3</title>
<path fill="none" stroke="midnightblue" d="M110.11,-59.5C126.23,-59.5 144.09,-59.5 160.96,-59.5"/>
<polygon fill="midnightblue" stroke="midnightblue" points="161.3,-63 171.3,-59.5 161.3,-56 161.3,-63"/>
</g>
<!-- Node4 -->
<g id="node4" class="node">
<title>Node4</title>
<g id="a_node4"><a xlink:href="../namespacemetrics.html#a9aba1f16408cadc45e4fdfe24e44b7af" target="_top" xlink:title=" ">
<polygon fill="white" stroke="black" points="173.5,-0.5 173.5,-30.5 285.5,-30.5 285.5,-0.5 173.5,-0.5"/>
<text text-anchor="start" x="181.5" y="-18.5" font-family="Helvetica,sans-Serif" font-size="10.00">metrics._pose_area</text>
<text text-anchor="middle" x="229.5" y="-7.5" font-family="Helvetica,sans-Serif" font-size="10.00">_calculation</text>
</a>
</g>
</g>
<!-- Node1&#45;&gt;Node4 -->
<g id="edge3" class="edge">
<title>Node1&#45;&gt;Node4</title>
<path fill="none" stroke="midnightblue" d="M110.11,-45.7C126.96,-41.4 145.72,-36.62 163.24,-32.15"/>
<polygon fill="midnightblue" stroke="midnightblue" points="164.57,-35.42 173.4,-29.56 162.84,-28.64 164.57,-35.42"/>
</g>
</g>
</svg>
