<?xml version="1.0" encoding="UTF-8" standalone="no"?>
<!DOCTYPE svg PUBLIC "-//W3C//DTD SVG 1.1//EN"
 "http://www.w3.org/Graphics/SVG/1.1/DTD/svg11.dtd">
<!-- Generated by graphviz version 2.43.0 (0)
 -->
<!-- Title: data_loader._get_padded_labels Pages: 1 -->
<svg width="817pt" height="78pt"
 viewBox="0.00 0.00 817.00 77.50" xmlns="http://www.w3.org/2000/svg" xmlns:xlink="http://www.w3.org/1999/xlink">
<g id="graph0" class="graph" transform="scale(1 1) rotate(0) translate(4 73.5)">
<title>data_loader._get_padded_labels</title>
<polygon fill="white" stroke="transparent" points="-4,4 -4,-73.5 813,-73.5 813,4 -4,4"/>
<!-- Node1 -->
<g id="node1" class="node">
<title>Node1</title>
<g id="a_node1"><a xlink:title=" ">
<polygon fill="#bfbfbf" stroke="black" points="670,-22.5 670,-52.5 809,-52.5 809,-22.5 670,-22.5"/>
<text text-anchor="start" x="678" y="-40.5" font-family="Helvetica,sans-Serif" font-size="10.00">data_loader._get_padded</text>
<text text-anchor="middle" x="739.5" y="-29.5" font-family="Helvetica,sans-Serif" font-size="10.00">_labels</text>
</a>
</g>
</g>
<!-- Node2 -->
<g id="node2" class="node">
<title>Node2</title>
<g id="a_node2"><a xlink:href="../namespacedata__loader.html#afbe478e627ff1519131e19a93f18c1ed" target="_top" xlink:title=" ">
<polygon fill="white" stroke="black" points="499,-22.5 499,-52.5 634,-52.5 634,-22.5 499,-22.5"/>
<text text-anchor="start" x="507" y="-40.5" font-family="Helvetica,sans-Serif" font-size="10.00">data_loader._preprocess</text>
<text text-anchor="middle" x="566.5" y="-29.5" font-family="Helvetica,sans-Serif" font-size="10.00">_function</text>
</a>
</g>
</g>
<!-- Node1&#45;&gt;Node2 -->
<g id="edge1" class="edge">
<title>Node1&#45;&gt;Node2</title>
<path fill="none" stroke="midnightblue" d="M659.89,-37.5C651.28,-37.5 642.58,-37.5 634.14,-37.5"/>
<polygon fill="midnightblue" stroke="midnightblue" points="659.93,-41 669.93,-37.5 659.93,-34 659.93,-41"/>
</g>
<!-- Node3 -->
<g id="node3" class="node">
<title>Node3</title>
<g id="a_node3"><a xlink:href="../namespacedata__loader.html#aa5abe0ecef3ff61a0625128c84452a5d" target="_top" xlink:title=" ">
<polygon fill="white" stroke="black" points="343.5,-50 343.5,-69 457.5,-69 457.5,-50 343.5,-50"/>
<text text-anchor="middle" x="400.5" y="-57" font-family="Helvetica,sans-Serif" font-size="10.00">data_loader._get_ds</text>
</a>
</g>
</g>
<!-- Node2&#45;&gt;Node3 -->
<g id="edge2" class="edge">
<title>Node2&#45;&gt;Node3</title>
<path fill="none" stroke="midnightblue" d="M488.79,-47.79C478.3,-49.2 467.69,-50.62 457.65,-51.97"/>
<polygon fill="midnightblue" stroke="midnightblue" points="489.35,-51.25 498.79,-46.45 488.42,-44.31 489.35,-51.25"/>
</g>
<!-- Node6 -->
<g id="node6" class="node">
<title>Node6</title>
<g id="a_node6"><a xlink:href="../namespacedata__loader.html#a9aacd5ef04c40893225f36a5088e7c0e" target="_top" xlink:title=" ">
<polygon fill="white" stroke="black" points="338,-0.5 338,-30.5 463,-30.5 463,-0.5 338,-0.5"/>
<text text-anchor="start" x="346" y="-18.5" font-family="Helvetica,sans-Serif" font-size="10.00">data_loader._get_train</text>
<text text-anchor="middle" x="400.5" y="-7.5" font-family="Helvetica,sans-Serif" font-size="10.00">_val_ds</text>
</a>
</g>
</g>
<!-- Node2&#45;&gt;Node6 -->
<g id="edge5" class="edge">
<title>Node2&#45;&gt;Node6</title>
<path fill="none" stroke="midnightblue" d="M488.76,-27.21C480.17,-26.05 471.49,-24.89 463.12,-23.77"/>
<polygon fill="midnightblue" stroke="midnightblue" points="488.42,-30.69 498.79,-28.55 489.35,-23.75 488.42,-30.69"/>
</g>
<!-- Node4 -->
<g id="node4" class="node">
<title>Node4</title>
<g id="a_node4"><a xlink:href="../namespacedata__loader.html#a2a79d830a8a311a7c7946d45c3d834a3" target="_top" xlink:title=" ">
<polygon fill="white" stroke="black" points="162,-28 162,-47 302,-47 302,-28 162,-28"/>
<text text-anchor="middle" x="232" y="-35" font-family="Helvetica,sans-Serif" font-size="10.00">data_loader.load_dataset</text>
</a>
</g>
</g>
<!-- Node3&#45;&gt;Node4 -->
<g id="edge3" class="edge">
<title>Node3&#45;&gt;Node4</title>
<path fill="none" stroke="midnightblue" d="M333.06,-50.72C322.85,-49.37 312.28,-47.98 302.01,-46.62"/>
<polygon fill="midnightblue" stroke="midnightblue" points="332.76,-54.21 343.13,-52.05 333.68,-47.27 332.76,-54.21"/>
</g>
<!-- Node5 -->
<g id="node5" class="node">
<title>Node5</title>
<g id="a_node5"><a xlink:href="../namespacepreprocess.html#a64f651cc0d35bc20aadcef1c3a184a2a" target="_top" xlink:title=" ">
<polygon fill="white" stroke="black" points="0,-28 0,-47 126,-47 126,-28 0,-28"/>
<text text-anchor="middle" x="63" y="-35" font-family="Helvetica,sans-Serif" font-size="10.00">preprocess.preprocess</text>
</a>
</g>
</g>
<!-- Node4&#45;&gt;Node5 -->
<g id="edge4" class="edge">
<title>Node4&#45;&gt;Node5</title>
<path fill="none" stroke="midnightblue" d="M151.37,-37.5C142.93,-37.5 134.43,-37.5 126.22,-37.5"/>
<polygon fill="midnightblue" stroke="midnightblue" points="151.63,-41 161.63,-37.5 151.63,-34 151.63,-41"/>
</g>
<!-- Node6&#45;&gt;Node4 -->
<g id="edge6" class="edge">
<title>Node6&#45;&gt;Node4</title>
<path fill="none" stroke="midnightblue" d="M328,-24.95C319.42,-26.08 310.67,-27.24 302.13,-28.37"/>
<polygon fill="midnightblue" stroke="midnightblue" points="328.52,-28.41 337.97,-23.63 327.6,-21.47 328.52,-28.41"/>
</g>
</g>
</svg>
