<?xml version="1.0" encoding="UTF-8" standalone="no"?>
<!DOCTYPE svg PUBLIC "-//W3C//DTD SVG 1.1//EN"
 "http://www.w3.org/Graphics/SVG/1.1/DTD/svg11.dtd">
<!-- Generated by graphviz version 2.43.0 (0)
 -->
<!-- Title: deploy.deploy Pages: 1 -->
<svg width="267pt" height="88pt"
 viewBox="0.00 0.00 267.00 88.00" xmlns="http://www.w3.org/2000/svg" xmlns:xlink="http://www.w3.org/1999/xlink">
<g id="graph0" class="graph" transform="scale(1 1) rotate(0) translate(4 84)">
<title>deploy.deploy</title>
<polygon fill="white" stroke="transparent" points="-4,4 -4,-84 263,-84 263,4 -4,4"/>
<!-- Node1 -->
<g id="node1" class="node">
<title>Node1</title>
<g id="a_node1"><a xlink:title="Key parameters:">
<polygon fill="#bfbfbf" stroke="black" points="0,-30 0,-49 84,-49 84,-30 0,-30"/>
<text text-anchor="middle" x="42" y="-37" font-family="Helvetica,sans-Serif" font-size="10.00">deploy.deploy</text>
</a>
</g>
</g>
<!-- Node2 -->
<g id="node2" class="node">
<title>Node2</title>
<g id="a_node2"><a xlink:href="../namespacegen__h__file.html#a48544178c8a1711024320d51cf46dd94" target="_top" xlink:title=" ">
<polygon fill="white" stroke="black" points="127,-49.5 127,-79.5 252,-79.5 252,-49.5 127,-49.5"/>
<text text-anchor="start" x="135" y="-67.5" font-family="Helvetica,sans-Serif" font-size="10.00">gen_h_file.gen_h_user</text>
<text text-anchor="middle" x="189.5" y="-56.5" font-family="Helvetica,sans-Serif" font-size="10.00">_file_n6</text>
</a>
</g>
</g>
<!-- Node1&#45;&gt;Node2 -->
<g id="edge1" class="edge">
<title>Node1&#45;&gt;Node2</title>
<path fill="none" stroke="midnightblue" d="M84.31,-46.6C94.47,-48.34 105.65,-50.26 116.79,-52.18"/>
<polygon fill="midnightblue" stroke="midnightblue" points="116.54,-55.69 126.99,-53.93 117.72,-48.79 116.54,-55.69"/>
</g>
<!-- Node3 -->
<g id="node3" class="node">
<title>Node3</title>
<g id="a_node3"><a xlink:href="../namespacecommon__deploy.html#abba85e8917e8ac57e4b1e4e9cfda7528" target="_top" xlink:title=" ">
<polygon fill="white" stroke="black" points="120,-0.5 120,-30.5 259,-30.5 259,-0.5 120,-0.5"/>
<text text-anchor="start" x="128" y="-18.5" font-family="Helvetica,sans-Serif" font-size="10.00">common_deploy.stm32ai</text>
<text text-anchor="middle" x="189.5" y="-7.5" font-family="Helvetica,sans-Serif" font-size="10.00">_deploy_stm32n6</text>
</a>
</g>
</g>
<!-- Node1&#45;&gt;Node3 -->
<g id="edge2" class="edge">
<title>Node1&#45;&gt;Node3</title>
<path fill="none" stroke="midnightblue" d="M84.31,-32.69C92.36,-31.36 101.06,-29.92 109.87,-28.47"/>
<polygon fill="midnightblue" stroke="midnightblue" points="110.54,-31.91 119.84,-26.83 109.4,-25 110.54,-31.91"/>
</g>
</g>
</svg>
